<svg width="144" height="232" viewBox="0 0 144 232" fill="none" xmlns="http://www.w3.org/2000/svg">
<path d="M10.4781 3.02344C8.86877 3.02344 7.60315 3.59375 6.68127 4.73438C5.7594 5.875 5.29846 7.44922 5.29846 9.45703C5.29846 11.5586 5.73987 13.1484 6.62268 14.2266C7.51331 15.3047 8.79846 15.8438 10.4781 15.8438C11.2047 15.8438 11.9078 15.7734 12.5875 15.6328C13.2672 15.4844 13.9742 15.2969 14.7086 15.0703V17.4727C13.3649 17.9805 11.8414 18.2344 10.1383 18.2344C7.63049 18.2344 5.70471 17.4766 4.36096 15.9609C3.01721 14.4375 2.34534 12.2617 2.34534 9.43359C2.34534 7.65234 2.66956 6.09375 3.31799 4.75781C3.97424 3.42188 4.91956 2.39844 6.15393 1.6875C7.38831 0.976562 8.83752 0.621094 10.5016 0.621094C12.2516 0.621094 13.8688 0.988281 15.3531 1.72266L14.3453 4.05469C13.7672 3.78125 13.1539 3.54297 12.5055 3.33984C11.8649 3.12891 11.1891 3.02344 10.4781 3.02344ZM29.6031 11.4961C29.6031 13.6133 29.0602 15.2656 27.9742 16.4531C26.8883 17.6406 25.3766 18.2344 23.4391 18.2344C22.2281 18.2344 21.1578 17.9609 20.2281 17.4141C19.2985 16.8672 18.5836 16.082 18.0836 15.0586C17.5836 14.0352 17.3336 12.8477 17.3336 11.4961C17.3336 9.39453 17.8727 7.75391 18.9508 6.57422C20.0289 5.39453 21.5485 4.80469 23.5094 4.80469C25.3844 4.80469 26.8688 5.41016 27.9625 6.62109C29.0563 7.82422 29.6031 9.44922 29.6031 11.4961ZM20.1696 11.4961C20.1696 14.4883 21.275 15.9844 23.486 15.9844C25.6735 15.9844 26.7672 14.4883 26.7672 11.4961C26.7672 8.53516 25.6656 7.05469 23.4625 7.05469C22.3063 7.05469 21.4664 7.4375 20.943 8.20312C20.4274 8.96875 20.1696 10.0664 20.1696 11.4961ZM43.7008 18H40.9352V10.0078C40.9352 9.01562 40.7477 8.27734 40.3727 7.79297C39.9977 7.30078 39.4117 7.05469 38.6149 7.05469C37.5524 7.05469 36.7711 7.40234 36.2711 8.09766C35.7789 8.78516 35.5328 9.93359 35.5328 11.543V18H32.7789V5.03906H34.9352L35.3219 6.73828H35.4625C35.8219 6.12109 36.3414 5.64453 37.0211 5.30859C37.7086 4.97266 38.4625 4.80469 39.2828 4.80469C41.275 4.80469 42.5953 5.48438 43.2438 6.84375H43.4313C43.8141 6.20312 44.3531 5.70312 45.0485 5.34375C45.7438 4.98438 46.5406 4.80469 47.4391 4.80469C48.986 4.80469 50.111 5.19531 50.8141 5.97656C51.525 6.75781 51.8805 7.94922 51.8805 9.55078V18H49.1266V10.0078C49.1266 9.01562 48.9352 8.27734 48.5524 7.79297C48.1774 7.30078 47.5914 7.05469 46.7946 7.05469C45.7242 7.05469 44.9391 7.39062 44.4391 8.0625C43.9469 8.72656 43.7008 9.75 43.7008 11.1328V18ZM62.2985 18.2344C60.6578 18.2344 59.3844 17.6445 58.4781 16.4648H58.3141C58.4235 17.5586 58.4781 18.2227 58.4781 18.457V23.7656H55.7242V5.03906H57.9508C58.0133 5.28125 58.1422 5.85938 58.3375 6.77344H58.4781C59.3375 5.46094 60.6266 4.80469 62.3453 4.80469C63.9625 4.80469 65.2203 5.39062 66.1188 6.5625C67.025 7.73438 67.4781 9.37891 67.4781 11.4961C67.4781 13.6133 67.0172 15.2656 66.0953 16.4531C65.1813 17.6406 63.9156 18.2344 62.2985 18.2344ZM61.6305 7.05469C60.5367 7.05469 59.736 7.375 59.2281 8.01562C58.7281 8.65625 58.4781 9.67969 58.4781 11.0859V11.4961C58.4781 13.0742 58.7281 14.2188 59.2281 14.9297C59.7281 15.6328 60.5446 15.9844 61.6774 15.9844C62.6305 15.9844 63.3649 15.5938 63.8805 14.8125C64.3961 14.0312 64.6539 12.918 64.6539 11.4727C64.6539 10.0195 64.3961 8.92188 63.8805 8.17969C63.3727 7.42969 62.6227 7.05469 61.6305 7.05469ZM78.7867 18L78.236 16.1953H78.1422C77.5172 16.9844 76.8883 17.5234 76.2555 17.8125C75.6227 18.0938 74.8102 18.2344 73.818 18.2344C72.5446 18.2344 71.5485 17.8906 70.8297 17.2031C70.1188 16.5156 69.7633 15.543 69.7633 14.2852C69.7633 12.9492 70.2594 11.9414 71.2516 11.2617C72.2438 10.582 73.7555 10.2109 75.7867 10.1484L78.025 10.0781V9.38672C78.025 8.55859 77.8297 7.94141 77.4391 7.53516C77.0563 7.12109 76.4586 6.91406 75.6461 6.91406C74.9821 6.91406 74.3453 7.01172 73.736 7.20703C73.1266 7.40234 72.5406 7.63281 71.9781 7.89844L71.0875 5.92969C71.7906 5.5625 72.5602 5.28516 73.3961 5.09766C74.2321 4.90234 75.0211 4.80469 75.7633 4.80469C77.4117 4.80469 78.6539 5.16406 79.4899 5.88281C80.3336 6.60156 80.7555 7.73047 80.7555 9.26953V18H78.7867ZM74.6852 16.125C75.6852 16.125 76.486 15.8477 77.0875 15.293C77.6969 14.7305 78.0016 13.9453 78.0016 12.9375V11.8125L76.3375 11.8828C75.0406 11.9297 74.0953 12.1484 73.5016 12.5391C72.9156 12.9219 72.6227 13.5117 72.6227 14.3086C72.6227 14.8867 72.7946 15.3359 73.1383 15.6562C73.4821 15.9688 73.9977 16.125 74.6852 16.125ZM96.0016 18H93.236V10.0312C93.236 9.03125 93.0328 8.28516 92.6266 7.79297C92.2281 7.30078 91.5914 7.05469 90.7164 7.05469C89.5524 7.05469 88.7008 7.39844 88.1617 8.08594C87.6227 8.77344 87.3531 9.92578 87.3531 11.543V18H84.5992V5.03906H86.7555L87.1422 6.73828H87.2828C87.6735 6.12109 88.2281 5.64453 88.9469 5.30859C89.6656 4.97266 90.4625 4.80469 91.3375 4.80469C94.4469 4.80469 96.0016 6.38672 96.0016 9.55078V18ZM97.8649 5.03906H100.865L103.502 12.3867C103.9 13.4336 104.166 14.418 104.298 15.3398H104.392C104.463 14.9102 104.591 14.3906 104.779 13.7812C104.966 13.1641 105.959 10.25 107.755 5.03906H110.732L105.189 19.7227C104.181 22.418 102.502 23.7656 100.15 23.7656C99.5406 23.7656 98.9469 23.6992 98.3688 23.5664V21.3867C98.7828 21.4805 99.2555 21.5273 99.7867 21.5273C101.115 21.5273 102.048 20.7578 102.588 19.2188L103.068 18L97.8649 5.03906Z" fill="#212121"/>
<path d="M10.7711 68L9.17151 63.9131H4.02112L2.43909 68H0.927368L6.00745 55.0977H7.26428L12.318 68H10.7711ZM8.70569 62.5684L7.21155 58.5869C7.01819 58.083 6.81897 57.4648 6.61389 56.7324C6.48499 57.2949 6.30042 57.9131 6.06018 58.5869L4.54846 62.5684H8.70569ZM18.3473 58.209C19.6129 58.209 20.5944 58.6426 21.2916 59.5098C21.9948 60.3711 22.3463 61.5928 22.3463 63.1748C22.3463 64.7568 21.9918 65.9873 21.2828 66.8662C20.5797 67.7393 19.6012 68.1758 18.3473 68.1758C17.7203 68.1758 17.1461 68.0615 16.6246 67.833C16.109 67.5986 15.6754 67.2412 15.3239 66.7607H15.2184L14.9108 68H13.8649V54.3242H15.3239V57.6465C15.3239 58.3906 15.3004 59.0586 15.2535 59.6504H15.3239C16.0035 58.6895 17.0114 58.209 18.3473 58.209ZM18.1364 59.4307C17.1403 59.4307 16.4225 59.7178 15.983 60.292C15.5436 60.8604 15.3239 61.8213 15.3239 63.1748C15.3239 64.5283 15.5494 65.498 16.0006 66.084C16.4518 66.6641 17.1754 66.9541 18.1715 66.9541C19.068 66.9541 19.736 66.6289 20.1754 65.9785C20.6149 65.3223 20.8346 64.3818 20.8346 63.1572C20.8346 61.9033 20.6149 60.9688 20.1754 60.3535C19.736 59.7383 19.0563 59.4307 18.1364 59.4307ZM33.2184 63.1748C33.2184 64.7451 32.8229 65.9727 32.0319 66.8574C31.2408 67.7363 30.1481 68.1758 28.7535 68.1758C27.8922 68.1758 27.1276 67.9736 26.4596 67.5693C25.7916 67.165 25.276 66.585 24.9127 65.8291C24.5494 65.0732 24.3678 64.1885 24.3678 63.1748C24.3678 61.6045 24.7604 60.3828 25.5455 59.5098C26.3307 58.6309 27.4205 58.1914 28.8151 58.1914C30.1627 58.1914 31.2321 58.6396 32.0231 59.5361C32.8199 60.4326 33.2184 61.6455 33.2184 63.1748ZM25.8795 63.1748C25.8795 64.4053 26.1256 65.3428 26.6178 65.9873C27.11 66.6318 27.8336 66.9541 28.7887 66.9541C29.7438 66.9541 30.4674 66.6348 30.9596 65.9961C31.4576 65.3516 31.7067 64.4111 31.7067 63.1748C31.7067 61.9502 31.4576 61.0215 30.9596 60.3887C30.4674 59.75 29.7379 59.4307 28.7711 59.4307C27.816 59.4307 27.0953 59.7441 26.609 60.3711C26.1227 60.998 25.8795 61.9326 25.8795 63.1748ZM37.1559 58.3672V64.6162C37.1559 65.4014 37.3346 65.9873 37.692 66.374C38.0494 66.7607 38.609 66.9541 39.3707 66.9541C40.3785 66.9541 41.1139 66.6787 41.5768 66.1279C42.0455 65.5771 42.2799 64.6777 42.2799 63.4297V58.3672H43.7389V68H42.5348L42.3239 66.708H42.2448C41.9459 67.1826 41.5299 67.5459 40.9967 67.7979C40.4694 68.0498 39.8658 68.1758 39.1862 68.1758C38.0143 68.1758 37.1354 67.8975 36.5494 67.3408C35.9694 66.7842 35.6793 65.8936 35.6793 64.6689V58.3672H37.1559ZM49.9528 66.9717C50.2106 66.9717 50.4596 66.9541 50.6998 66.9189C50.9401 66.8779 51.1305 66.8369 51.2711 66.7959V67.9121C51.1129 67.9883 50.8785 68.0498 50.568 68.0967C50.2633 68.1494 49.9879 68.1758 49.7418 68.1758C47.8785 68.1758 46.9469 67.1943 46.9469 65.2314V59.501H45.567V58.7979L46.9469 58.1914L47.5621 56.1348H48.4059V58.3672H51.2008V59.501H48.4059V65.1699C48.4059 65.75 48.5436 66.1953 48.819 66.5059C49.0944 66.8164 49.4723 66.9717 49.9528 66.9717ZM63.6022 56.3018C62.1901 56.3018 61.0739 56.7734 60.2535 57.7168C59.4391 58.6543 59.0319 59.9404 59.0319 61.5752C59.0319 63.2568 59.4244 64.5576 60.2096 65.4775C61.0006 66.3916 62.1256 66.8486 63.5846 66.8486C64.4811 66.8486 65.5035 66.6875 66.652 66.3652V67.6748C65.7614 68.0088 64.6627 68.1758 63.3561 68.1758C61.4635 68.1758 60.0016 67.6016 58.9703 66.4531C57.9449 65.3047 57.4323 63.6729 57.4323 61.5576C57.4323 60.2334 57.6783 59.0732 58.1705 58.0771C58.6686 57.0811 59.3834 56.3135 60.3151 55.7744C61.2526 55.2354 62.3541 54.9658 63.6198 54.9658C64.9674 54.9658 66.1451 55.2119 67.153 55.7041L66.5201 56.9873C65.5475 56.5303 64.5748 56.3018 63.6022 56.3018ZM77.5504 63.1748C77.5504 64.7451 77.1549 65.9727 76.3639 66.8574C75.5729 67.7363 74.4801 68.1758 73.0856 68.1758C72.2242 68.1758 71.4596 67.9736 70.7916 67.5693C70.1237 67.165 69.608 66.585 69.2448 65.8291C68.8815 65.0732 68.6998 64.1885 68.6998 63.1748C68.6998 61.6045 69.0924 60.3828 69.8776 59.5098C70.6627 58.6309 71.7526 58.1914 73.1471 58.1914C74.4948 58.1914 75.5641 58.6396 76.3551 59.5361C77.152 60.4326 77.5504 61.6455 77.5504 63.1748ZM70.2115 63.1748C70.2115 64.4053 70.4576 65.3428 70.9498 65.9873C71.442 66.6318 72.1656 66.9541 73.1207 66.9541C74.0758 66.9541 74.7994 66.6348 75.2916 65.9961C75.7897 65.3516 76.0387 64.4111 76.0387 63.1748C76.0387 61.9502 75.7897 61.0215 75.2916 60.3887C74.7994 59.75 74.0699 59.4307 73.1031 59.4307C72.1481 59.4307 71.4274 59.7441 70.941 60.3711C70.4547 60.998 70.2115 61.9326 70.2115 63.1748ZM92.3951 68V61.7334C92.3951 60.9658 92.2311 60.3916 91.903 60.0107C91.5748 59.624 91.0651 59.4307 90.3737 59.4307C89.4655 59.4307 88.7946 59.6914 88.361 60.2129C87.9274 60.7344 87.7106 61.5371 87.7106 62.6211V68H86.2516V61.7334C86.2516 60.9658 86.0875 60.3916 85.7594 60.0107C85.4313 59.624 84.9186 59.4307 84.2213 59.4307C83.3073 59.4307 82.6364 59.7061 82.2086 60.2568C81.7867 60.8018 81.5758 61.6982 81.5758 62.9463V68H80.1168V58.3672H81.3033L81.5406 59.6855H81.611C81.8864 59.2168 82.2731 58.8506 82.7711 58.5869C83.275 58.3232 83.8375 58.1914 84.4586 58.1914C85.9645 58.1914 86.9489 58.7363 87.4117 59.8262H87.4821C87.7692 59.3223 88.1852 58.9238 88.7301 58.6309C89.275 58.3379 89.8961 58.1914 90.5934 58.1914C91.6832 58.1914 92.4977 58.4727 93.0367 59.0352C93.5817 59.5918 93.8541 60.4854 93.8541 61.7158V68H92.3951ZM101.351 68.1758C100.724 68.1758 100.15 68.0615 99.6285 67.833C99.1129 67.5986 98.6793 67.2412 98.3278 66.7607H98.2223C98.2926 67.3232 98.3278 67.8564 98.3278 68.3604V72.3242H96.8688V58.3672H98.0553L98.2574 59.6855H98.3278C98.7028 59.1582 99.1393 58.7773 99.6373 58.543C100.135 58.3086 100.707 58.1914 101.351 58.1914C102.629 58.1914 103.613 58.6279 104.304 59.501C105.002 60.374 105.35 61.5986 105.35 63.1748C105.35 64.7568 104.996 65.9873 104.287 66.8662C103.584 67.7393 102.605 68.1758 101.351 68.1758ZM101.14 59.4307C100.156 59.4307 99.444 59.7031 99.0045 60.248C98.5651 60.793 98.3395 61.6602 98.3278 62.8496V63.1748C98.3278 64.5283 98.5533 65.498 99.0045 66.084C99.4557 66.6641 100.179 66.9541 101.175 66.9541C102.007 66.9541 102.658 66.6172 103.127 65.9434C103.601 65.2695 103.839 64.3408 103.839 63.1572C103.839 61.9561 103.601 61.0361 103.127 60.3975C102.658 59.7529 101.996 59.4307 101.14 59.4307ZM113.832 68L113.542 66.6289H113.471C112.991 67.2324 112.51 67.6426 112.03 67.8594C111.555 68.0703 110.961 68.1758 110.246 68.1758C109.291 68.1758 108.541 67.9297 107.996 67.4375C107.457 66.9453 107.187 66.2451 107.187 65.3369C107.187 63.3916 108.743 62.3721 111.854 62.2783L113.489 62.2256V61.6279C113.489 60.8721 113.325 60.3154 112.997 59.958C112.674 59.5947 112.156 59.4131 111.441 59.4131C110.638 59.4131 109.73 59.6592 108.716 60.1514L108.268 59.0352C108.743 58.7773 109.261 58.5752 109.824 58.4287C110.392 58.2822 110.961 58.209 111.529 58.209C112.677 58.209 113.527 58.4639 114.078 58.9736C114.634 59.4834 114.913 60.3008 114.913 61.4258V68H113.832ZM110.536 66.9717C111.444 66.9717 112.156 66.7227 112.672 66.2246C113.193 65.7266 113.454 65.0293 113.454 64.1328V63.2627L111.995 63.3242C110.835 63.3652 109.997 63.5469 109.481 63.8691C108.971 64.1855 108.716 64.6807 108.716 65.3545C108.716 65.8818 108.875 66.2832 109.191 66.5586C109.513 66.834 109.962 66.9717 110.536 66.9717ZM124.519 68V61.7686C124.519 60.9834 124.34 60.3975 123.983 60.0107C123.626 59.624 123.066 59.4307 122.304 59.4307C121.297 59.4307 120.558 59.7031 120.089 60.248C119.621 60.793 119.386 61.6924 119.386 62.9463V68H117.927V58.3672H119.114L119.351 59.6855H119.422C119.72 59.2109 120.139 58.8447 120.678 58.5869C121.217 58.3232 121.818 58.1914 122.48 58.1914C123.64 58.1914 124.513 58.4727 125.099 59.0352C125.685 59.5918 125.978 60.4854 125.978 61.7158V68H124.519ZM127.455 58.3672H129.019L131.129 63.8604C131.591 65.1143 131.879 66.0195 131.99 66.5762H132.06C132.136 66.2773 132.295 65.7676 132.535 65.0469C132.781 64.3203 133.578 62.0938 134.925 58.3672H136.49L132.35 69.3359C131.94 70.4199 131.46 71.1875 130.909 71.6387C130.364 72.0957 129.693 72.3242 128.896 72.3242C128.451 72.3242 128.011 72.2744 127.578 72.1748V71.0059C127.9 71.0762 128.26 71.1113 128.659 71.1113C129.661 71.1113 130.376 70.5488 130.803 69.4238L131.339 68.0527L127.455 58.3672ZM13.8473 101.558C13.8473 103.614 13.3258 105.231 12.2828 106.409C11.2457 107.587 9.80139 108.176 7.94983 108.176C6.05725 108.176 4.59534 107.599 3.56409 106.444C2.5387 105.284 2.026 103.649 2.026 101.54C2.026 99.4482 2.54163 97.8281 3.57288 96.6797C4.60413 95.5254 6.06897 94.9482 7.96741 94.9482C9.81311 94.9482 11.2545 95.5342 12.2916 96.7061C13.3287 97.8779 13.8473 99.4951 13.8473 101.558ZM3.60803 101.558C3.60803 103.298 3.97717 104.619 4.71545 105.521C5.45959 106.418 6.53772 106.866 7.94983 106.866C9.37366 106.866 10.4489 106.418 11.1754 105.521C11.902 104.625 12.2653 103.304 12.2653 101.558C12.2653 99.8291 11.902 98.5195 11.1754 97.6289C10.4547 96.7324 9.38538 96.2842 7.96741 96.2842C6.54358 96.2842 5.45959 96.7354 4.71545 97.6377C3.97717 98.5342 3.60803 99.8408 3.60803 101.558ZM17.8727 98.3672V104.616C17.8727 105.401 18.0514 105.987 18.4088 106.374C18.7662 106.761 19.3258 106.954 20.0875 106.954C21.0953 106.954 21.8307 106.679 22.2936 106.128C22.7623 105.577 22.9967 104.678 22.9967 103.43V98.3672H24.4557V108H23.2516L23.0406 106.708H22.9615C22.6627 107.183 22.2467 107.546 21.7135 107.798C21.1862 108.05 20.5826 108.176 19.903 108.176C18.7311 108.176 17.8522 107.897 17.2662 107.341C16.6862 106.784 16.3961 105.894 16.3961 104.669V98.3672H17.8727ZM31.9528 98.1914C32.3805 98.1914 32.7643 98.2266 33.1041 98.2969L32.902 99.6504C32.5035 99.5625 32.152 99.5186 31.8473 99.5186C31.068 99.5186 30.4 99.835 29.8434 100.468C29.2926 101.101 29.0172 101.889 29.0172 102.832V108H27.5582V98.3672H28.7623L28.9293 100.151H28.9996C29.3571 99.5244 29.7877 99.041 30.2916 98.7012C30.7955 98.3613 31.3492 98.1914 31.9528 98.1914ZM43.7565 108H42.2623V96.4775H38.193V95.1504H47.8258V96.4775H43.7565V108ZM53.6178 108.176C52.194 108.176 51.069 107.742 50.2428 106.875C49.4225 106.008 49.0123 104.804 49.0123 103.263C49.0123 101.71 49.3932 100.477 50.1549 99.5625C50.9225 98.6484 51.9508 98.1914 53.2399 98.1914C54.4469 98.1914 55.402 98.5898 56.1051 99.3867C56.8082 100.178 57.1598 101.224 57.1598 102.524V103.447H50.524C50.5533 104.578 50.8375 105.437 51.3766 106.022C51.9215 106.608 52.6862 106.901 53.6705 106.901C54.7076 106.901 55.733 106.685 56.7467 106.251V107.552C56.2311 107.774 55.7418 107.933 55.2789 108.026C54.8219 108.126 54.2682 108.176 53.6178 108.176ZM53.2223 99.4131C52.4489 99.4131 51.8307 99.665 51.3678 100.169C50.9108 100.673 50.6412 101.37 50.5592 102.261H55.5953C55.5953 101.341 55.3903 100.638 54.9801 100.151C54.5699 99.6592 53.984 99.4131 53.2223 99.4131ZM65.8698 105.372C65.8698 106.269 65.5358 106.96 64.8678 107.446C64.1998 107.933 63.2623 108.176 62.0553 108.176C60.778 108.176 59.7819 107.974 59.067 107.569V106.216C59.5299 106.45 60.025 106.635 60.5524 106.77C61.0856 106.904 61.5983 106.972 62.0905 106.972C62.8522 106.972 63.4381 106.852 63.8483 106.611C64.2584 106.365 64.4635 105.993 64.4635 105.495C64.4635 105.12 64.2994 104.801 63.9713 104.537C63.649 104.268 63.0162 103.951 62.0729 103.588C61.1764 103.254 60.5377 102.964 60.1569 102.718C59.7819 102.466 59.5006 102.182 59.3131 101.865C59.1315 101.549 59.0406 101.171 59.0406 100.731C59.0406 99.9463 59.36 99.3281 59.9987 98.877C60.6373 98.4199 61.5133 98.1914 62.6266 98.1914C63.6637 98.1914 64.6774 98.4023 65.6676 98.8242L65.149 100.011C64.1823 99.6123 63.3063 99.4131 62.5211 99.4131C61.8297 99.4131 61.3082 99.5215 60.9567 99.7383C60.6051 99.9551 60.4293 100.254 60.4293 100.635C60.4293 100.893 60.4938 101.112 60.6227 101.294C60.7574 101.476 60.9713 101.648 61.2643 101.812C61.5573 101.977 62.1198 102.214 62.9518 102.524C64.0944 102.94 64.8649 103.359 65.2633 103.781C65.6676 104.203 65.8698 104.733 65.8698 105.372ZM71.3629 106.972C71.6207 106.972 71.8698 106.954 72.11 106.919C72.3502 106.878 72.5406 106.837 72.6813 106.796V107.912C72.5231 107.988 72.2887 108.05 71.9781 108.097C71.6735 108.149 71.3981 108.176 71.152 108.176C69.2887 108.176 68.3571 107.194 68.3571 105.231V99.501H66.9772V98.7979L68.3571 98.1914L68.9723 96.1348H69.816V98.3672H72.611V99.501H69.816V105.17C69.816 105.75 69.9537 106.195 70.2291 106.506C70.5045 106.816 70.8824 106.972 71.3629 106.972ZM76.0739 108H74.6149V98.3672H76.0739V108ZM74.4918 95.7568C74.4918 95.4229 74.5739 95.1797 74.7379 95.0273C74.902 94.8691 75.1071 94.79 75.3531 94.79C75.5875 94.79 75.7897 94.8691 75.9596 95.0273C76.1295 95.1855 76.2145 95.4287 76.2145 95.7568C76.2145 96.085 76.1295 96.3311 75.9596 96.4951C75.7897 96.6533 75.5875 96.7324 75.3531 96.7324C75.1071 96.7324 74.902 96.6533 74.7379 96.4951C74.5739 96.3311 74.4918 96.085 74.4918 95.7568ZM91.4459 108V101.733C91.4459 100.966 91.2819 100.392 90.9537 100.011C90.6256 99.624 90.1158 99.4307 89.4244 99.4307C88.5162 99.4307 87.8453 99.6914 87.4117 100.213C86.9781 100.734 86.7614 101.537 86.7614 102.621V108H85.3024V101.733C85.3024 100.966 85.1383 100.392 84.8102 100.011C84.4821 99.624 83.9694 99.4307 83.2721 99.4307C82.358 99.4307 81.6871 99.7061 81.2594 100.257C80.8375 100.802 80.6266 101.698 80.6266 102.946V108H79.1676V98.3672H80.3541L80.5914 99.6855H80.6617C80.9371 99.2168 81.3239 98.8506 81.8219 98.5869C82.3258 98.3232 82.8883 98.1914 83.5094 98.1914C85.0153 98.1914 85.9996 98.7363 86.4625 99.8262H86.5328C86.8199 99.3223 87.236 98.9238 87.7809 98.6309C88.3258 98.3379 88.9469 98.1914 89.6442 98.1914C90.734 98.1914 91.5485 98.4727 92.0875 99.0352C92.6324 99.5918 92.9049 100.485 92.9049 101.716V108H91.4459ZM104.234 103.175C104.234 104.745 103.839 105.973 103.047 106.857C102.256 107.736 101.164 108.176 99.7692 108.176C98.9078 108.176 98.1432 107.974 97.4752 107.569C96.8073 107.165 96.2916 106.585 95.9283 105.829C95.5651 105.073 95.3834 104.188 95.3834 103.175C95.3834 101.604 95.776 100.383 96.5612 99.5098C97.3463 98.6309 98.4362 98.1914 99.8307 98.1914C101.178 98.1914 102.248 98.6396 103.039 99.5361C103.836 100.433 104.234 101.646 104.234 103.175ZM96.8951 103.175C96.8951 104.405 97.1412 105.343 97.6334 105.987C98.1256 106.632 98.8492 106.954 99.8043 106.954C100.759 106.954 101.483 106.635 101.975 105.996C102.473 105.352 102.722 104.411 102.722 103.175C102.722 101.95 102.473 101.021 101.975 100.389C101.483 99.75 100.754 99.4307 99.7867 99.4307C98.8317 99.4307 98.111 99.7441 97.6246 100.371C97.1383 100.998 96.8951 101.933 96.8951 103.175ZM113.392 108V101.769C113.392 100.983 113.214 100.397 112.856 100.011C112.499 99.624 111.939 99.4307 111.177 99.4307C110.17 99.4307 109.431 99.7031 108.963 100.248C108.494 100.793 108.259 101.692 108.259 102.946V108H106.8V98.3672H107.987L108.224 99.6855H108.295C108.593 99.2109 109.012 98.8447 109.551 98.5869C110.09 98.3232 110.691 98.1914 111.353 98.1914C112.513 98.1914 113.386 98.4727 113.972 99.0352C114.558 99.5918 114.851 100.485 114.851 101.716V108H113.392ZM119.316 108H117.857V98.3672H119.316V108ZM117.734 95.7568C117.734 95.4229 117.816 95.1797 117.98 95.0273C118.144 94.8691 118.349 94.79 118.595 94.79C118.83 94.79 119.032 94.8691 119.202 95.0273C119.372 95.1855 119.457 95.4287 119.457 95.7568C119.457 96.085 119.372 96.3311 119.202 96.4951C119.032 96.6533 118.83 96.7324 118.595 96.7324C118.349 96.7324 118.144 96.6533 117.98 96.4951C117.816 96.3311 117.734 96.085 117.734 95.7568ZM128.334 108L128.044 106.629H127.973C127.493 107.232 127.012 107.643 126.532 107.859C126.057 108.07 125.463 108.176 124.748 108.176C123.793 108.176 123.043 107.93 122.498 107.438C121.959 106.945 121.689 106.245 121.689 105.337C121.689 103.392 123.245 102.372 126.356 102.278L127.991 102.226V101.628C127.991 100.872 127.827 100.315 127.499 99.958C127.176 99.5947 126.658 99.4131 125.943 99.4131C125.14 99.4131 124.232 99.6592 123.218 100.151L122.77 99.0352C123.245 98.7773 123.763 98.5752 124.326 98.4287C124.894 98.2822 125.463 98.209 126.031 98.209C127.179 98.209 128.029 98.4639 128.58 98.9736C129.136 99.4834 129.415 100.301 129.415 101.426V108H128.334ZM125.038 106.972C125.946 106.972 126.658 106.723 127.173 106.225C127.695 105.727 127.956 105.029 127.956 104.133V103.263L126.497 103.324C125.337 103.365 124.499 103.547 123.983 103.869C123.473 104.186 123.218 104.681 123.218 105.354C123.218 105.882 123.377 106.283 123.693 106.559C124.015 106.834 124.464 106.972 125.038 106.972ZM133.888 108H132.429V94.3242H133.888V108ZM143.196 105.372C143.196 106.269 142.862 106.96 142.194 107.446C141.526 107.933 140.589 108.176 139.381 108.176C138.104 108.176 137.108 107.974 136.393 107.569V106.216C136.856 106.45 137.351 106.635 137.879 106.77C138.412 106.904 138.924 106.972 139.417 106.972C140.178 106.972 140.764 106.852 141.174 106.611C141.585 106.365 141.79 105.993 141.79 105.495C141.79 105.12 141.626 104.801 141.297 104.537C140.975 104.268 140.342 103.951 139.399 103.588C138.503 103.254 137.864 102.964 137.483 102.718C137.108 102.466 136.827 102.182 136.639 101.865C136.458 101.549 136.367 101.171 136.367 100.731C136.367 99.9463 136.686 99.3281 137.325 98.877C137.964 98.4199 138.839 98.1914 139.953 98.1914C140.99 98.1914 142.004 98.4023 142.994 98.8242L142.475 100.011C141.508 99.6123 140.632 99.4131 139.847 99.4131C139.156 99.4131 138.634 99.5215 138.283 99.7383C137.931 99.9551 137.755 100.254 137.755 100.635C137.755 100.893 137.82 101.112 137.949 101.294C138.084 101.476 138.297 101.648 138.59 101.812C138.883 101.977 139.446 102.214 140.278 102.524C141.421 102.94 142.191 103.359 142.589 103.781C142.994 104.203 143.196 104.733 143.196 105.372ZM2.69397 148V135.15H4.18811V146.646H9.85706V148H2.69397ZM17.7496 148L17.4596 146.629H17.3893C16.9088 147.232 16.4283 147.643 15.9479 147.859C15.4733 148.07 14.8785 148.176 14.1637 148.176C13.2086 148.176 12.4586 147.93 11.9137 147.438C11.3746 146.945 11.1051 146.245 11.1051 145.337C11.1051 143.392 12.6608 142.372 15.7721 142.278L17.4069 142.226V141.628C17.4069 140.872 17.2428 140.315 16.9147 139.958C16.5924 139.595 16.0739 139.413 15.359 139.413C14.5563 139.413 13.6481 139.659 12.6344 140.151L12.1862 139.035C12.6608 138.777 13.1793 138.575 13.7418 138.429C14.3102 138.282 14.8785 138.209 15.4469 138.209C16.5953 138.209 17.4449 138.464 17.9957 138.974C18.5524 139.483 18.8307 140.301 18.8307 141.426V148H17.7496ZM14.4537 146.972C15.3619 146.972 16.0739 146.723 16.5895 146.225C17.111 145.727 17.3717 145.029 17.3717 144.133V143.263L15.9127 143.324C14.7526 143.365 13.9147 143.547 13.399 143.869C12.8893 144.186 12.6344 144.681 12.6344 145.354C12.6344 145.882 12.7926 146.283 13.109 146.559C13.4313 146.834 13.8795 146.972 14.4537 146.972ZM24.9567 146.972C25.2145 146.972 25.4635 146.954 25.7037 146.919C25.944 146.878 26.1344 146.837 26.275 146.796V147.912C26.1168 147.988 25.8824 148.05 25.5719 148.097C25.2672 148.149 24.9918 148.176 24.7457 148.176C22.8824 148.176 21.9508 147.194 21.9508 145.231V139.501H20.5709V138.798L21.9508 138.191L22.566 136.135H23.4098V138.367H26.2047V139.501H23.4098V145.17C23.4098 145.75 23.5475 146.195 23.8229 146.506C24.0983 146.816 24.4762 146.972 24.9567 146.972ZM32.278 148.176C30.8541 148.176 29.7291 147.742 28.903 146.875C28.0826 146.008 27.6725 144.804 27.6725 143.263C27.6725 141.71 28.0533 140.477 28.8151 139.562C29.5826 138.648 30.611 138.191 31.9 138.191C33.1071 138.191 34.0621 138.59 34.7653 139.387C35.4684 140.178 35.8199 141.224 35.8199 142.524V143.447H29.1842C29.2135 144.578 29.4977 145.437 30.0367 146.022C30.5817 146.608 31.3463 146.901 32.3307 146.901C33.3678 146.901 34.3932 146.685 35.4069 146.251V147.552C34.8912 147.774 34.402 147.933 33.9391 148.026C33.4821 148.126 32.9283 148.176 32.278 148.176ZM31.8824 139.413C31.109 139.413 30.4908 139.665 30.028 140.169C29.5709 140.673 29.3014 141.37 29.2194 142.261H34.2555C34.2555 141.341 34.0504 140.638 33.6403 140.151C33.2301 139.659 32.6442 139.413 31.8824 139.413ZM44.5299 145.372C44.5299 146.269 44.1959 146.96 43.528 147.446C42.86 147.933 41.9225 148.176 40.7155 148.176C39.4381 148.176 38.442 147.974 37.7272 147.569V146.216C38.1901 146.45 38.6852 146.635 39.2125 146.77C39.7457 146.904 40.2584 146.972 40.7506 146.972C41.5123 146.972 42.0983 146.852 42.5084 146.611C42.9186 146.365 43.1237 145.993 43.1237 145.495C43.1237 145.12 42.9596 144.801 42.6315 144.537C42.3092 144.268 41.6764 143.951 40.733 143.588C39.8365 143.254 39.1979 142.964 38.817 142.718C38.442 142.466 38.1608 142.182 37.9733 141.865C37.7916 141.549 37.7008 141.171 37.7008 140.731C37.7008 139.946 38.0201 139.328 38.6588 138.877C39.2975 138.42 40.1735 138.191 41.2867 138.191C42.3239 138.191 43.3375 138.402 44.3278 138.824L43.8092 140.011C42.8424 139.612 41.9664 139.413 41.1813 139.413C40.4899 139.413 39.9684 139.521 39.6168 139.738C39.2653 139.955 39.0895 140.254 39.0895 140.635C39.0895 140.893 39.1539 141.112 39.2828 141.294C39.4176 141.476 39.6315 141.648 39.9244 141.812C40.2174 141.977 40.7799 142.214 41.6119 142.524C42.7545 142.94 43.525 143.359 43.9235 143.781C44.3278 144.203 44.5299 144.733 44.5299 145.372ZM50.0231 146.972C50.2809 146.972 50.5299 146.954 50.7701 146.919C51.0104 146.878 51.2008 146.837 51.3414 146.796V147.912C51.1832 147.988 50.9489 148.05 50.6383 148.097C50.3336 148.149 50.0582 148.176 49.8121 148.176C47.9489 148.176 47.0172 147.194 47.0172 145.231V139.501H45.6373V138.798L47.0172 138.191L47.6324 136.135H48.4762V138.367H51.2711V139.501H48.4762V145.17C48.4762 145.75 48.6139 146.195 48.8893 146.506C49.1647 146.816 49.5426 146.972 50.0231 146.972ZM68.2076 148H66.5026L59.4801 137.216H59.4098C59.5035 138.481 59.5504 139.642 59.5504 140.696V148H58.1705V135.15H59.858L66.8629 145.891H66.9332C66.9215 145.732 66.8951 145.226 66.8541 144.37C66.8131 143.509 66.7985 142.894 66.8102 142.524V135.15H68.2076V148ZM75.5905 148.176C74.1666 148.176 73.0416 147.742 72.2155 146.875C71.3951 146.008 70.985 144.804 70.985 143.263C70.985 141.71 71.3658 140.477 72.1276 139.562C72.8951 138.648 73.9235 138.191 75.2125 138.191C76.4196 138.191 77.3746 138.59 78.0778 139.387C78.7809 140.178 79.1324 141.224 79.1324 142.524V143.447H72.4967C72.526 144.578 72.8102 145.437 73.3492 146.022C73.8942 146.608 74.6588 146.901 75.6432 146.901C76.6803 146.901 77.7057 146.685 78.7194 146.251V147.552C78.2037 147.774 77.7145 147.933 77.2516 148.026C76.7946 148.126 76.2408 148.176 75.5905 148.176ZM75.1949 139.413C74.4215 139.413 73.8033 139.665 73.3405 140.169C72.8834 140.673 72.6139 141.37 72.5319 142.261H77.568C77.568 141.341 77.3629 140.638 76.9528 140.151C76.5426 139.659 75.9567 139.413 75.1949 139.413ZM89.4948 148L87.7281 142.349C87.6168 142.003 87.4088 141.218 87.1041 139.993H87.0338C86.7994 141.019 86.5944 141.81 86.4186 142.366L84.5992 148H82.9117L80.2838 138.367H81.8131C82.4342 140.787 82.9059 142.63 83.2281 143.896C83.5563 145.161 83.7438 146.014 83.7906 146.453H83.861C83.9254 146.119 84.028 145.688 84.1686 145.161C84.3151 144.628 84.441 144.206 84.5465 143.896L86.3131 138.367H87.8951L89.6178 143.896C89.9459 144.903 90.1686 145.75 90.2858 146.436H90.3561C90.3795 146.225 90.441 145.899 90.5406 145.46C90.6461 145.021 91.2584 142.656 92.3776 138.367H93.8893L91.2262 148H89.4948ZM101.852 145.372C101.852 146.269 101.518 146.96 100.85 147.446C100.182 147.933 99.2448 148.176 98.0377 148.176C96.7604 148.176 95.7643 147.974 95.0494 147.569V146.216C95.5123 146.45 96.0074 146.635 96.5348 146.77C97.068 146.904 97.5807 146.972 98.0729 146.972C98.8346 146.972 99.4205 146.852 99.8307 146.611C100.241 146.365 100.446 145.993 100.446 145.495C100.446 145.12 100.282 144.801 99.9537 144.537C99.6315 144.268 98.9987 143.951 98.0553 143.588C97.1588 143.254 96.5201 142.964 96.1393 142.718C95.7643 142.466 95.483 142.182 95.2955 141.865C95.1139 141.549 95.0231 141.171 95.0231 140.731C95.0231 139.946 95.3424 139.328 95.9811 138.877C96.6198 138.42 97.4957 138.191 98.609 138.191C99.6461 138.191 100.66 138.402 101.65 138.824L101.131 140.011C100.165 139.612 99.2887 139.413 98.5035 139.413C97.8121 139.413 97.2906 139.521 96.9391 139.738C96.5875 139.955 96.4117 140.254 96.4117 140.635C96.4117 140.893 96.4762 141.112 96.6051 141.294C96.7399 141.476 96.9537 141.648 97.2467 141.812C97.5397 141.977 98.1022 142.214 98.9342 142.524C100.077 142.94 100.847 143.359 101.246 143.781C101.65 144.203 101.852 144.733 101.852 145.372ZM13.8473 181.558C13.8473 183.614 13.3258 185.231 12.2828 186.409C11.2457 187.587 9.80139 188.176 7.94983 188.176C6.05725 188.176 4.59534 187.599 3.56409 186.444C2.5387 185.284 2.026 183.649 2.026 181.54C2.026 179.448 2.54163 177.828 3.57288 176.68C4.60413 175.525 6.06897 174.948 7.96741 174.948C9.81311 174.948 11.2545 175.534 12.2916 176.706C13.3287 177.878 13.8473 179.495 13.8473 181.558ZM3.60803 181.558C3.60803 183.298 3.97717 184.619 4.71545 185.521C5.45959 186.418 6.53772 186.866 7.94983 186.866C9.37366 186.866 10.4489 186.418 11.1754 185.521C11.902 184.625 12.2653 183.304 12.2653 181.558C12.2653 179.829 11.902 178.52 11.1754 177.629C10.4547 176.732 9.38538 176.284 7.96741 176.284C6.54358 176.284 5.45959 176.735 4.71545 177.638C3.97717 178.534 3.60803 179.841 3.60803 181.558ZM17.8727 178.367V184.616C17.8727 185.401 18.0514 185.987 18.4088 186.374C18.7662 186.761 19.3258 186.954 20.0875 186.954C21.0953 186.954 21.8307 186.679 22.2936 186.128C22.7623 185.577 22.9967 184.678 22.9967 183.43V178.367H24.4557V188H23.2516L23.0406 186.708H22.9615C22.6627 187.183 22.2467 187.546 21.7135 187.798C21.1862 188.05 20.5826 188.176 19.903 188.176C18.7311 188.176 17.8522 187.897 17.2662 187.341C16.6862 186.784 16.3961 185.894 16.3961 184.669V178.367H17.8727ZM31.9528 178.191C32.3805 178.191 32.7643 178.227 33.1041 178.297L32.902 179.65C32.5035 179.562 32.152 179.519 31.8473 179.519C31.068 179.519 30.4 179.835 29.8434 180.468C29.2926 181.101 29.0172 181.889 29.0172 182.832V188H27.5582V178.367H28.7623L28.9293 180.151H28.9996C29.3571 179.524 29.7877 179.041 30.2916 178.701C30.7955 178.361 31.3492 178.191 31.9528 178.191ZM51.86 188V181.733C51.86 180.966 51.6959 180.392 51.3678 180.011C51.0397 179.624 50.5299 179.431 49.8385 179.431C48.9303 179.431 48.2594 179.691 47.8258 180.213C47.3922 180.734 47.1754 181.537 47.1754 182.621V188H45.7164V181.733C45.7164 180.966 45.5524 180.392 45.2242 180.011C44.8961 179.624 44.3834 179.431 43.6862 179.431C42.7721 179.431 42.1012 179.706 41.6735 180.257C41.2516 180.802 41.0406 181.698 41.0406 182.946V188H39.5817V178.367H40.7682L41.0055 179.686H41.0758C41.3512 179.217 41.7379 178.851 42.236 178.587C42.7399 178.323 43.3024 178.191 43.9235 178.191C45.4293 178.191 46.4137 178.736 46.8766 179.826H46.9469C47.234 179.322 47.65 178.924 48.1949 178.631C48.7399 178.338 49.361 178.191 50.0582 178.191C51.1481 178.191 51.9625 178.473 52.5016 179.035C53.0465 179.592 53.319 180.485 53.319 181.716V188H51.86ZM57.7926 188H56.3336V178.367H57.7926V188ZM56.2106 175.757C56.2106 175.423 56.2926 175.18 56.4567 175.027C56.6207 174.869 56.8258 174.79 57.0719 174.79C57.3063 174.79 57.5084 174.869 57.6783 175.027C57.8483 175.186 57.9332 175.429 57.9332 175.757C57.9332 176.085 57.8483 176.331 57.6783 176.495C57.5084 176.653 57.3063 176.732 57.0719 176.732C56.8258 176.732 56.6207 176.653 56.4567 176.495C56.2926 176.331 56.2106 176.085 56.2106 175.757ZM67.1002 185.372C67.1002 186.269 66.7662 186.96 66.0983 187.446C65.4303 187.933 64.4928 188.176 63.2858 188.176C62.0084 188.176 61.0123 187.974 60.2975 187.569V186.216C60.7604 186.45 61.2555 186.635 61.7828 186.77C62.316 186.904 62.8287 186.972 63.3209 186.972C64.0826 186.972 64.6686 186.852 65.0787 186.611C65.4889 186.365 65.694 185.993 65.694 185.495C65.694 185.12 65.5299 184.801 65.2018 184.537C64.8795 184.268 64.2467 183.951 63.3033 183.588C62.4069 183.254 61.7682 182.964 61.3873 182.718C61.0123 182.466 60.7311 182.182 60.5436 181.865C60.3619 181.549 60.2711 181.171 60.2711 180.731C60.2711 179.946 60.5905 179.328 61.2291 178.877C61.8678 178.42 62.7438 178.191 63.8571 178.191C64.8942 178.191 65.9078 178.402 66.8981 178.824L66.3795 180.011C65.4127 179.612 64.5367 179.413 63.7516 179.413C63.0602 179.413 62.5387 179.521 62.1871 179.738C61.8356 179.955 61.6598 180.254 61.6598 180.635C61.6598 180.893 61.7242 181.112 61.8531 181.294C61.9879 181.476 62.2018 181.648 62.4948 181.812C62.7877 181.977 63.3502 182.214 64.1823 182.524C65.3248 182.94 66.0953 183.359 66.4938 183.781C66.8981 184.203 67.1002 184.733 67.1002 185.372ZM75.6959 185.372C75.6959 186.269 75.3619 186.96 74.694 187.446C74.026 187.933 73.0885 188.176 71.8815 188.176C70.6041 188.176 69.608 187.974 68.8932 187.569V186.216C69.3561 186.45 69.8512 186.635 70.3785 186.77C70.9117 186.904 71.4244 186.972 71.9166 186.972C72.6783 186.972 73.2643 186.852 73.6744 186.611C74.0846 186.365 74.2897 185.993 74.2897 185.495C74.2897 185.12 74.1256 184.801 73.7975 184.537C73.4752 184.268 72.8424 183.951 71.899 183.588C71.0026 183.254 70.3639 182.964 69.983 182.718C69.608 182.466 69.3268 182.182 69.1393 181.865C68.9576 181.549 68.8668 181.171 68.8668 180.731C68.8668 179.946 69.1862 179.328 69.8248 178.877C70.4635 178.42 71.3395 178.191 72.4528 178.191C73.4899 178.191 74.5035 178.402 75.4938 178.824L74.9752 180.011C74.0084 179.612 73.1324 179.413 72.3473 179.413C71.6559 179.413 71.1344 179.521 70.7828 179.738C70.4313 179.955 70.2555 180.254 70.2555 180.635C70.2555 180.893 70.3199 181.112 70.4489 181.294C70.5836 181.476 70.7975 181.648 71.0905 181.812C71.3834 181.977 71.9459 182.214 72.778 182.524C73.9205 182.94 74.691 183.359 75.0895 183.781C75.4938 184.203 75.6959 184.733 75.6959 185.372ZM86.3922 183.175C86.3922 184.745 85.9967 185.973 85.2057 186.857C84.4147 187.736 83.3219 188.176 81.9274 188.176C81.066 188.176 80.3014 187.974 79.6334 187.569C78.9655 187.165 78.4498 186.585 78.0865 185.829C77.7233 185.073 77.5416 184.188 77.5416 183.175C77.5416 181.604 77.9342 180.383 78.7194 179.51C79.5045 178.631 80.5944 178.191 81.9889 178.191C83.3365 178.191 84.4059 178.64 85.1969 179.536C85.9938 180.433 86.3922 181.646 86.3922 183.175ZM79.0533 183.175C79.0533 184.405 79.2994 185.343 79.7916 185.987C80.2838 186.632 81.0074 186.954 81.9625 186.954C82.9176 186.954 83.6412 186.635 84.1334 185.996C84.6315 185.352 84.8805 184.411 84.8805 183.175C84.8805 181.95 84.6315 181.021 84.1334 180.389C83.6412 179.75 82.9117 179.431 81.9449 179.431C80.9899 179.431 80.2692 179.744 79.7828 180.371C79.2965 180.998 79.0533 181.933 79.0533 183.175ZM95.5504 188V181.769C95.5504 180.983 95.3717 180.397 95.0143 180.011C94.6569 179.624 94.0973 179.431 93.3356 179.431C92.3278 179.431 91.5895 179.703 91.1207 180.248C90.652 180.793 90.4176 181.692 90.4176 182.946V188H88.9586V178.367H90.1451L90.3824 179.686H90.4528C90.7516 179.211 91.1705 178.845 91.7096 178.587C92.2487 178.323 92.8492 178.191 93.5114 178.191C94.6715 178.191 95.5446 178.473 96.1305 179.035C96.7164 179.592 97.0094 180.485 97.0094 181.716V188H95.5504ZM8.34534 221.268H12.7135V227.517C12.0338 227.733 11.3424 227.897 10.6393 228.009C9.93616 228.12 9.1217 228.176 8.19592 228.176C6.25061 228.176 4.73596 227.599 3.65198 226.444C2.56799 225.284 2.026 223.661 2.026 221.575C2.026 220.239 2.2926 219.07 2.82581 218.068C3.36487 217.061 4.13831 216.293 5.14612 215.766C6.15393 215.232 7.33459 214.966 8.68811 214.966C10.0592 214.966 11.3365 215.218 12.5201 215.722L11.9401 217.04C10.7799 216.548 9.6637 216.302 8.59143 216.302C7.02698 216.302 5.8053 216.768 4.92639 217.699C4.04749 218.631 3.60803 219.923 3.60803 221.575C3.60803 223.31 4.02991 224.625 4.87366 225.521C5.72327 226.418 6.96838 226.866 8.60901 226.866C9.49963 226.866 10.3698 226.764 11.2194 226.559V222.604H8.34534V221.268ZM19.6569 228.176C18.233 228.176 17.108 227.742 16.2819 226.875C15.4615 226.008 15.0514 224.804 15.0514 223.263C15.0514 221.71 15.4323 220.477 16.194 219.562C16.9615 218.648 17.9899 218.191 19.2789 218.191C20.486 218.191 21.441 218.59 22.1442 219.387C22.8473 220.178 23.1989 221.224 23.1989 222.524V223.447H16.5631C16.5924 224.578 16.8766 225.437 17.4156 226.022C17.9606 226.608 18.7252 226.901 19.7096 226.901C20.7467 226.901 21.7721 226.685 22.7858 226.251V227.552C22.2701 227.774 21.7809 227.933 21.318 228.026C20.861 228.126 20.3073 228.176 19.6569 228.176ZM19.2614 219.413C18.4879 219.413 17.8698 219.665 17.4069 220.169C16.9498 220.673 16.6803 221.37 16.5983 222.261H21.6344C21.6344 221.341 21.4293 220.638 21.0192 220.151C20.609 219.659 20.0231 219.413 19.2614 219.413ZM28.8063 226.972C29.0641 226.972 29.3131 226.954 29.5533 226.919C29.7936 226.878 29.984 226.837 30.1246 226.796V227.912C29.9664 227.988 29.7321 228.05 29.4215 228.097C29.1168 228.149 28.8414 228.176 28.5953 228.176C26.7321 228.176 25.8004 227.194 25.8004 225.231V219.501H24.4205V218.798L25.8004 218.191L26.4156 216.135H27.2594V218.367H30.0543V219.501H27.2594V225.17C27.2594 225.75 27.3971 226.195 27.6725 226.506C27.9479 226.816 28.3258 226.972 28.8063 226.972ZM42.6578 228L42.3678 226.629H42.2975C41.817 227.232 41.3365 227.643 40.8561 227.859C40.3815 228.07 39.7867 228.176 39.0719 228.176C38.1168 228.176 37.3668 227.93 36.8219 227.438C36.2828 226.945 36.0133 226.245 36.0133 225.337C36.0133 223.392 37.569 222.372 40.6803 222.278L42.3151 222.226V221.628C42.3151 220.872 42.151 220.315 41.8229 219.958C41.5006 219.595 40.9821 219.413 40.2672 219.413C39.4645 219.413 38.5563 219.659 37.5426 220.151L37.0944 219.035C37.569 218.777 38.0875 218.575 38.65 218.429C39.2184 218.282 39.7867 218.209 40.3551 218.209C41.5035 218.209 42.3531 218.464 42.9039 218.974C43.4606 219.483 43.7389 220.301 43.7389 221.426V228H42.6578ZM39.3619 226.972C40.2701 226.972 40.9821 226.723 41.4977 226.225C42.0192 225.727 42.2799 225.029 42.2799 224.133V223.263L40.8209 223.324C39.6608 223.365 38.8229 223.547 38.3073 223.869C37.7975 224.186 37.5426 224.681 37.5426 225.354C37.5426 225.882 37.7008 226.283 38.0172 226.559C38.3395 226.834 38.7877 226.972 39.3619 226.972ZM55.7711 219.501H53.319V228H51.86V219.501H50.1373V218.842L51.86 218.314V217.778C51.86 215.411 52.8942 214.228 54.9625 214.228C55.4723 214.228 56.0699 214.33 56.7555 214.535L56.3776 215.704C55.8151 215.522 55.3346 215.432 54.9362 215.432C54.3854 215.432 53.9781 215.616 53.7145 215.985C53.4508 216.349 53.319 216.935 53.319 217.743V218.367H55.7711V219.501ZM61.9235 218.191C62.3512 218.191 62.735 218.227 63.0748 218.297L62.8727 219.65C62.4742 219.562 62.1227 219.519 61.818 219.519C61.0387 219.519 60.3707 219.835 59.8141 220.468C59.2633 221.101 58.9879 221.889 58.9879 222.832V228H57.5289V218.367H58.733L58.9 220.151H58.9703C59.3278 219.524 59.7584 219.041 60.2623 218.701C60.7662 218.361 61.3199 218.191 61.9235 218.191ZM68.9459 228.176C67.5221 228.176 66.3971 227.742 65.5709 226.875C64.7506 226.008 64.3405 224.804 64.3405 223.263C64.3405 221.71 64.7213 220.477 65.483 219.562C66.2506 218.648 67.2789 218.191 68.568 218.191C69.775 218.191 70.7301 218.59 71.4332 219.387C72.1364 220.178 72.4879 221.224 72.4879 222.524V223.447H65.8522C65.8815 224.578 66.1656 225.437 66.7047 226.022C67.2496 226.608 68.0143 226.901 68.9987 226.901C70.0358 226.901 71.0612 226.685 72.0748 226.251V227.552C71.5592 227.774 71.0699 227.933 70.6071 228.026C70.15 228.126 69.5963 228.176 68.9459 228.176ZM68.5504 219.413C67.777 219.413 67.1588 219.665 66.6959 220.169C66.2389 220.673 65.9694 221.37 65.8873 222.261H70.9235C70.9235 221.341 70.7184 220.638 70.3082 220.151C69.8981 219.659 69.3121 219.413 68.5504 219.413ZM79.0533 228.176C77.6295 228.176 76.5045 227.742 75.6783 226.875C74.858 226.008 74.4479 224.804 74.4479 223.263C74.4479 221.71 74.8287 220.477 75.5905 219.562C76.358 218.648 77.3864 218.191 78.6754 218.191C79.8824 218.191 80.8375 218.59 81.5406 219.387C82.2438 220.178 82.5953 221.224 82.5953 222.524V223.447H75.9596C75.9889 224.578 76.2731 225.437 76.8121 226.022C77.3571 226.608 78.1217 226.901 79.1061 226.901C80.1432 226.901 81.1686 226.685 82.1823 226.251V227.552C81.6666 227.774 81.1774 227.933 80.7145 228.026C80.2574 228.126 79.7037 228.176 79.0533 228.176ZM78.6578 219.413C77.8844 219.413 77.2662 219.665 76.8033 220.169C76.3463 220.673 76.0768 221.37 75.9948 222.261H81.0309C81.0309 221.341 80.8258 220.638 80.4156 220.151C80.0055 219.659 79.4196 219.413 78.6578 219.413ZM101.14 221.558C101.14 223.204 100.809 224.572 100.147 225.662C99.485 226.752 98.5504 227.49 97.3434 227.877L100.402 231.059H98.2311L95.7262 228.158L95.2428 228.176C93.3502 228.176 91.8883 227.599 90.8571 226.444C89.8317 225.284 89.319 223.649 89.319 221.54C89.319 219.448 89.8346 217.828 90.8658 216.68C91.8971 215.525 93.3619 214.948 95.2604 214.948C97.1061 214.948 98.5475 215.534 99.5846 216.706C100.622 217.878 101.14 219.495 101.14 221.558ZM90.901 221.558C90.901 223.298 91.2701 224.619 92.0084 225.521C92.7526 226.418 93.8307 226.866 95.2428 226.866C96.6666 226.866 97.7418 226.418 98.4684 225.521C99.1949 224.625 99.5582 223.304 99.5582 221.558C99.5582 219.829 99.1949 218.52 98.4684 217.629C97.7477 216.732 96.6783 216.284 95.2604 216.284C93.8365 216.284 92.7526 216.735 92.0084 217.638C91.2701 218.534 90.901 219.841 90.901 221.558ZM105.166 218.367V224.616C105.166 225.401 105.344 225.987 105.702 226.374C106.059 226.761 106.619 226.954 107.38 226.954C108.388 226.954 109.124 226.679 109.587 226.128C110.055 225.577 110.29 224.678 110.29 223.43V218.367H111.749V228H110.545L110.334 226.708H110.255C109.956 227.183 109.54 227.546 109.006 227.798C108.479 228.05 107.876 228.176 107.196 228.176C106.024 228.176 105.145 227.897 104.559 227.341C103.979 226.784 103.689 225.894 103.689 224.669V218.367H105.166ZM123.166 223.175C123.166 224.745 122.77 225.973 121.979 226.857C121.188 227.736 120.095 228.176 118.701 228.176C117.839 228.176 117.075 227.974 116.407 227.569C115.739 227.165 115.223 226.585 114.86 225.829C114.497 225.073 114.315 224.188 114.315 223.175C114.315 221.604 114.708 220.383 115.493 219.51C116.278 218.631 117.368 218.191 118.762 218.191C120.11 218.191 121.179 218.64 121.97 219.536C122.767 220.433 123.166 221.646 123.166 223.175ZM115.827 223.175C115.827 224.405 116.073 225.343 116.565 225.987C117.057 226.632 117.781 226.954 118.736 226.954C119.691 226.954 120.415 226.635 120.907 225.996C121.405 225.352 121.654 224.411 121.654 223.175C121.654 221.95 121.405 221.021 120.907 220.389C120.415 219.75 119.685 219.431 118.718 219.431C117.763 219.431 117.043 219.744 116.556 220.371C116.07 220.998 115.827 221.933 115.827 223.175ZM128.843 226.972C129.101 226.972 129.35 226.954 129.59 226.919C129.831 226.878 130.021 226.837 130.162 226.796V227.912C130.004 227.988 129.769 228.05 129.459 228.097C129.154 228.149 128.879 228.176 128.632 228.176C126.769 228.176 125.838 227.194 125.838 225.231V219.501H124.458V218.798L125.838 218.191L126.453 216.135H127.297V218.367H130.091V219.501H127.297V225.17C127.297 225.75 127.434 226.195 127.71 226.506C127.985 226.816 128.363 226.972 128.843 226.972Z" fill="#646464"/>
</svg>
