<svg width="198" height="189" viewBox="0 0 198 189" fill="none" xmlns="http://www.w3.org/2000/svg">
<path d="M9.47815 3.02344C7.86877 3.02344 6.60315 3.59375 5.68127 4.73438C4.7594 5.875 4.29846 7.44922 4.29846 9.45703C4.29846 11.5586 4.73987 13.1484 5.62268 14.2266C6.51331 15.3047 7.79846 15.8438 9.47815 15.8438C10.2047 15.8438 10.9078 15.7734 11.5875 15.6328C12.2672 15.4844 12.9742 15.2969 13.7086 15.0703V17.4727C12.3649 17.9805 10.8414 18.2344 9.13831 18.2344C6.63049 18.2344 4.70471 17.4766 3.36096 15.9609C2.01721 14.4375 1.34534 12.2617 1.34534 9.43359C1.34534 7.65234 1.66956 6.09375 2.31799 4.75781C2.97424 3.42188 3.91956 2.39844 5.15393 1.6875C6.38831 0.976562 7.83752 0.621094 9.50159 0.621094C11.2516 0.621094 12.8688 0.988281 14.3531 1.72266L13.3453 4.05469C12.7672 3.78125 12.1539 3.54297 11.5055 3.33984C10.8649 3.12891 10.1891 3.02344 9.47815 3.02344ZM28.6031 11.4961C28.6031 13.6133 28.0602 15.2656 26.9742 16.4531C25.8883 17.6406 24.3766 18.2344 22.4391 18.2344C21.2281 18.2344 20.1578 17.9609 19.2281 17.4141C18.2985 16.8672 17.5836 16.082 17.0836 15.0586C16.5836 14.0352 16.3336 12.8477 16.3336 11.4961C16.3336 9.39453 16.8727 7.75391 17.9508 6.57422C19.0289 5.39453 20.5485 4.80469 22.5094 4.80469C24.3844 4.80469 25.8688 5.41016 26.9625 6.62109C28.0563 7.82422 28.6031 9.44922 28.6031 11.4961ZM19.1696 11.4961C19.1696 14.4883 20.275 15.9844 22.486 15.9844C24.6735 15.9844 25.7672 14.4883 25.7672 11.4961C25.7672 8.53516 24.6656 7.05469 22.4625 7.05469C21.3063 7.05469 20.4664 7.4375 19.943 8.20312C19.4274 8.96875 19.1696 10.0664 19.1696 11.4961ZM43.1813 18H40.4156V10.0312C40.4156 9.03125 40.2125 8.28516 39.8063 7.79297C39.4078 7.30078 38.7711 7.05469 37.8961 7.05469C36.7321 7.05469 35.8805 7.39844 35.3414 8.08594C34.8024 8.77344 34.5328 9.92578 34.5328 11.543V18H31.7789V5.03906H33.9352L34.3219 6.73828H34.4625C34.8531 6.12109 35.4078 5.64453 36.1266 5.30859C36.8453 4.97266 37.6422 4.80469 38.5172 4.80469C41.6266 4.80469 43.1813 6.38672 43.1813 9.55078V18ZM51.8414 16.0078C52.5133 16.0078 53.1852 15.9023 53.8571 15.6914V17.7656C53.5524 17.8984 53.1578 18.0078 52.6735 18.0938C52.1969 18.1875 51.7008 18.2344 51.1852 18.2344C48.5758 18.2344 47.2711 16.8594 47.2711 14.1094V7.125H45.5016V5.90625L47.4 4.89844L48.3375 2.15625H50.0367V5.03906H53.7281V7.125H50.0367V14.0625C50.0367 14.7266 50.2008 15.2188 50.5289 15.5391C50.8649 15.8516 51.3024 16.0078 51.8414 16.0078ZM64.568 18L64.0172 16.1953H63.9235C63.2985 16.9844 62.6696 17.5234 62.0367 17.8125C61.4039 18.0938 60.5914 18.2344 59.5992 18.2344C58.3258 18.2344 57.3297 17.8906 56.611 17.2031C55.9 16.5156 55.5446 15.543 55.5446 14.2852C55.5446 12.9492 56.0406 11.9414 57.0328 11.2617C58.025 10.582 59.5367 10.2109 61.568 10.1484L63.8063 10.0781V9.38672C63.8063 8.55859 63.611 7.94141 63.2203 7.53516C62.8375 7.12109 62.2399 6.91406 61.4274 6.91406C60.7633 6.91406 60.1266 7.01172 59.5172 7.20703C58.9078 7.40234 58.3219 7.63281 57.7594 7.89844L56.8688 5.92969C57.5719 5.5625 58.3414 5.28516 59.1774 5.09766C60.0133 4.90234 60.8024 4.80469 61.5446 4.80469C63.193 4.80469 64.4352 5.16406 65.2711 5.88281C66.1149 6.60156 66.5367 7.73047 66.5367 9.26953V18H64.568ZM60.4664 16.125C61.4664 16.125 62.2672 15.8477 62.8688 15.293C63.4781 14.7305 63.7828 13.9453 63.7828 12.9375V11.8125L62.1188 11.8828C60.8219 11.9297 59.8766 12.1484 59.2828 12.5391C58.6969 12.9219 58.4039 13.5117 58.4039 14.3086C58.4039 14.8867 58.5758 15.3359 58.9196 15.6562C59.2633 15.9688 59.7789 16.125 60.4664 16.125ZM75.6071 18.2344C73.6461 18.2344 72.1539 17.6641 71.1305 16.5234C70.1149 15.375 69.6071 13.7305 69.6071 11.5898C69.6071 9.41016 70.1383 7.73438 71.2008 6.5625C72.2711 5.39062 73.8141 4.80469 75.8297 4.80469C77.1969 4.80469 78.4274 5.05859 79.5211 5.56641L78.6891 7.78125C77.525 7.32812 76.5641 7.10156 75.8063 7.10156C73.5641 7.10156 72.443 8.58984 72.443 11.5664C72.443 13.0195 72.7203 14.1133 73.275 14.8477C73.8375 15.5742 74.6578 15.9375 75.736 15.9375C76.9625 15.9375 78.1227 15.6328 79.2164 15.0234V17.4258C78.7242 17.7148 78.1969 17.9219 77.6344 18.0469C77.0797 18.1719 76.4039 18.2344 75.6071 18.2344ZM87.0914 16.0078C87.7633 16.0078 88.4352 15.9023 89.1071 15.6914V17.7656C88.8024 17.8984 88.4078 18.0078 87.9235 18.0938C87.4469 18.1875 86.9508 18.2344 86.4352 18.2344C83.8258 18.2344 82.5211 16.8594 82.5211 14.1094V7.125H80.7516V5.90625L82.65 4.89844L83.5875 2.15625H85.2867V5.03906H88.9781V7.125H85.2867V14.0625C85.2867 14.7266 85.4508 15.2188 85.7789 15.5391C86.1149 15.8516 86.5524 16.0078 87.0914 16.0078ZM107.084 18L106.697 16.3008H106.556C106.173 16.9023 105.627 17.375 104.916 17.7188C104.213 18.0625 103.408 18.2344 102.502 18.2344C100.931 18.2344 99.7594 17.8438 98.986 17.0625C98.2125 16.2812 97.8258 15.0977 97.8258 13.5117V5.03906H100.603V13.0312C100.603 14.0234 100.806 14.7695 101.213 15.2695C101.619 15.7617 102.255 16.0078 103.123 16.0078C104.279 16.0078 105.127 15.6641 105.666 14.9766C106.213 14.2812 106.486 13.1211 106.486 11.4961V5.03906H109.252V18H107.084ZM121.884 14.3086C121.884 15.5742 121.423 16.5469 120.502 17.2266C119.58 17.8984 118.259 18.2344 116.541 18.2344C114.814 18.2344 113.427 17.9727 112.38 17.4492V15.0703C113.904 15.7734 115.322 16.125 116.634 16.125C118.33 16.125 119.177 15.6133 119.177 14.5898C119.177 14.2617 119.084 13.9883 118.896 13.7695C118.709 13.5508 118.4 13.3242 117.97 13.0898C117.541 12.8555 116.943 12.5898 116.177 12.293C114.685 11.7148 113.673 11.1367 113.142 10.5586C112.619 9.98047 112.357 9.23047 112.357 8.30859C112.357 7.19922 112.802 6.33984 113.693 5.73047C114.591 5.11328 115.81 4.80469 117.349 4.80469C118.873 4.80469 120.314 5.11328 121.673 5.73047L120.783 7.80469C119.384 7.22656 118.209 6.9375 117.255 6.9375C115.802 6.9375 115.076 7.35156 115.076 8.17969C115.076 8.58594 115.263 8.92969 115.638 9.21094C116.021 9.49219 116.849 9.87891 118.123 10.3711C119.193 10.7852 119.97 11.1641 120.455 11.5078C120.939 11.8516 121.298 12.25 121.533 12.7031C121.767 13.1484 121.884 13.6836 121.884 14.3086Z" fill="#212121"/>
<path d="M8.94495 64.5811C8.94495 65.7119 8.53479 66.5938 7.71448 67.2266C6.89417 67.8594 5.78088 68.1758 4.37463 68.1758C2.8512 68.1758 1.67932 67.9795 0.859009 67.5869V66.1455C1.38635 66.3682 1.96057 66.5439 2.58167 66.6729C3.20276 66.8018 3.81799 66.8662 4.42737 66.8662C5.42346 66.8662 6.17346 66.6787 6.67737 66.3037C7.18127 65.9229 7.43323 65.3955 7.43323 64.7217C7.43323 64.2764 7.34241 63.9131 7.16077 63.6318C6.98499 63.3447 6.68616 63.0811 6.26428 62.8408C5.84827 62.6006 5.21252 62.3281 4.35706 62.0234C3.16174 61.5957 2.30627 61.0889 1.79065 60.5029C1.28088 59.917 1.026 59.1523 1.026 58.209C1.026 57.2188 1.39807 56.4307 2.14221 55.8447C2.88635 55.2588 3.87073 54.9658 5.09534 54.9658C6.37268 54.9658 7.54749 55.2002 8.61975 55.6689L8.15393 56.9697C7.09338 56.5244 6.06213 56.3018 5.06018 56.3018C4.26917 56.3018 3.651 56.4717 3.20569 56.8115C2.76038 57.1514 2.53772 57.623 2.53772 58.2266C2.53772 58.6719 2.61975 59.0381 2.78381 59.3252C2.94788 59.6064 3.22327 59.8672 3.60999 60.1074C4.00256 60.3418 4.60022 60.6025 5.40295 60.8896C6.75061 61.3701 7.67639 61.8857 8.1803 62.4365C8.69006 62.9873 8.94495 63.7021 8.94495 64.5811ZM17.277 68L16.9869 66.6289H16.9166C16.4362 67.2324 15.9557 67.6426 15.4752 67.8594C15.0006 68.0703 14.4059 68.1758 13.691 68.1758C12.736 68.1758 11.986 67.9297 11.441 67.4375C10.902 66.9453 10.6324 66.2451 10.6324 65.3369C10.6324 63.3916 12.1881 62.3721 15.2994 62.2783L16.9342 62.2256V61.6279C16.9342 60.8721 16.7701 60.3154 16.442 59.958C16.1198 59.5947 15.6012 59.4131 14.8864 59.4131C14.0836 59.4131 13.1754 59.6592 12.1617 60.1514L11.7135 59.0352C12.1881 58.7773 12.7067 58.5752 13.2692 58.4287C13.8375 58.2822 14.4059 58.209 14.9742 58.209C16.1227 58.209 16.9723 58.4639 17.5231 58.9736C18.0797 59.4834 18.358 60.3008 18.358 61.4258V68H17.277ZM13.9811 66.9717C14.8893 66.9717 15.6012 66.7227 16.1168 66.2246C16.6383 65.7266 16.899 65.0293 16.899 64.1328V63.2627L15.4401 63.3242C14.2799 63.3652 13.442 63.5469 12.9264 63.8691C12.4166 64.1855 12.1617 64.6807 12.1617 65.3545C12.1617 65.8818 12.3199 66.2832 12.6364 66.5586C12.9586 66.834 13.4069 66.9717 13.9811 66.9717ZM29.2565 58.3672V59.29L27.4723 59.501C27.6364 59.7061 27.7828 59.9756 27.9117 60.3096C28.0406 60.6377 28.1051 61.0098 28.1051 61.4258C28.1051 62.3691 27.7828 63.1221 27.1383 63.6846C26.4938 64.2471 25.609 64.5283 24.484 64.5283C24.1969 64.5283 23.9274 64.5049 23.6754 64.458C23.0543 64.7861 22.7438 65.1992 22.7438 65.6973C22.7438 65.9609 22.8522 66.1572 23.069 66.2861C23.2858 66.4092 23.6578 66.4707 24.1852 66.4707H25.8903C26.9332 66.4707 27.733 66.6904 28.2897 67.1299C28.8522 67.5693 29.1334 68.208 29.1334 69.0459C29.1334 70.1123 28.7057 70.9238 27.8502 71.4805C26.9948 72.043 25.7467 72.3242 24.1061 72.3242C22.8463 72.3242 21.8737 72.0898 21.1881 71.6211C20.5084 71.1523 20.1686 70.4902 20.1686 69.6348C20.1686 69.0488 20.3561 68.542 20.7311 68.1143C21.1061 67.6865 21.6334 67.3965 22.3131 67.2441C22.067 67.1328 21.859 66.96 21.6891 66.7256C21.525 66.4912 21.443 66.2188 21.443 65.9082C21.443 65.5566 21.5367 65.249 21.7242 64.9854C21.9117 64.7217 22.2076 64.4668 22.6119 64.2207C22.1139 64.0156 21.7067 63.667 21.3903 63.1748C21.0797 62.6826 20.9244 62.1201 20.9244 61.4873C20.9244 60.4326 21.2408 59.6211 21.8737 59.0527C22.5065 58.4785 23.403 58.1914 24.5631 58.1914C25.067 58.1914 25.5211 58.25 25.9254 58.3672H29.2565ZM21.5748 69.6172C21.5748 70.1387 21.7946 70.5342 22.234 70.8037C22.6735 71.0732 23.3033 71.208 24.1237 71.208C25.3483 71.208 26.2535 71.0234 26.8395 70.6543C27.4313 70.291 27.7272 69.7959 27.7272 69.1689C27.7272 68.6475 27.566 68.2842 27.2438 68.0791C26.9215 67.8799 26.3151 67.7803 25.4244 67.7803H23.6754C23.0133 67.7803 22.4977 67.9385 22.1285 68.2549C21.7594 68.5713 21.5748 69.0254 21.5748 69.6172ZM22.3658 61.4521C22.3658 62.126 22.5563 62.6357 22.9371 62.9814C23.318 63.3271 23.8483 63.5 24.528 63.5C25.9518 63.5 26.6637 62.8086 26.6637 61.4258C26.6637 59.9785 25.943 59.2549 24.5016 59.2549C23.816 59.2549 23.2887 59.4395 22.9196 59.8086C22.5504 60.1777 22.3658 60.7256 22.3658 61.4521ZM35.6285 58.1914C36.0563 58.1914 36.4401 58.2266 36.7799 58.2969L36.5778 59.6504C36.1793 59.5625 35.8278 59.5186 35.5231 59.5186C34.7438 59.5186 34.0758 59.835 33.5192 60.4678C32.9684 61.1006 32.693 61.8887 32.693 62.832V68H31.234V58.3672H32.4381L32.6051 60.1514H32.6754C33.0328 59.5244 33.4635 59.041 33.9674 58.7012C34.4713 58.3613 35.025 58.1914 35.6285 58.1914ZM44.5055 68L44.2155 66.6289H44.1451C43.6647 67.2324 43.1842 67.6426 42.7037 67.8594C42.2291 68.0703 41.6344 68.1758 40.9196 68.1758C39.9645 68.1758 39.2145 67.9297 38.6696 67.4375C38.1305 66.9453 37.861 66.2451 37.861 65.3369C37.861 63.3916 39.4166 62.3721 42.528 62.2783L44.1627 62.2256V61.6279C44.1627 60.8721 43.9987 60.3154 43.6705 59.958C43.3483 59.5947 42.8297 59.4131 42.1149 59.4131C41.3121 59.4131 40.4039 59.6592 39.3903 60.1514L38.942 59.0352C39.4166 58.7773 39.9352 58.5752 40.4977 58.4287C41.066 58.2822 41.6344 58.209 42.2028 58.209C43.3512 58.209 44.2008 58.4639 44.7516 58.9736C45.3082 59.4834 45.5865 60.3008 45.5865 61.4258V68H44.5055ZM41.2096 66.9717C42.1178 66.9717 42.8297 66.7227 43.3453 66.2246C43.8668 65.7266 44.1276 65.0293 44.1276 64.1328V63.2627L42.6686 63.3242C41.5084 63.3652 40.6705 63.5469 40.1549 63.8691C39.6451 64.1855 39.3903 64.6807 39.3903 65.3545C39.3903 65.8818 39.5485 66.2832 39.8649 66.5586C40.1871 66.834 40.6354 66.9717 41.2096 66.9717ZM55.1578 66.708H55.0787C54.4049 67.6865 53.3971 68.1758 52.0553 68.1758C50.7955 68.1758 49.8141 67.7451 49.111 66.8838C48.4137 66.0225 48.0651 64.7979 48.0651 63.21C48.0651 61.6221 48.4166 60.3887 49.1198 59.5098C49.8229 58.6309 50.8014 58.1914 52.0553 58.1914C53.3619 58.1914 54.3639 58.666 55.0612 59.6152H55.1754L55.1139 58.9209L55.0787 58.2441V54.3242H56.5377V68H55.3512L55.1578 66.708ZM52.2399 66.9541C53.236 66.9541 53.9567 66.6846 54.402 66.1455C54.8531 65.6006 55.0787 64.7246 55.0787 63.5176V63.21C55.0787 61.8447 54.8502 60.8721 54.3932 60.292C53.942 59.7061 53.2184 59.4131 52.2223 59.4131C51.3668 59.4131 50.7106 59.7471 50.2535 60.415C49.8024 61.0771 49.5768 62.0146 49.5768 63.2275C49.5768 64.458 49.8024 65.3867 50.2535 66.0137C50.7047 66.6406 51.3668 66.9541 52.2399 66.9541ZM65.5641 68L65.274 66.6289H65.2037C64.7233 67.2324 64.2428 67.6426 63.7623 67.8594C63.2877 68.0703 62.693 68.1758 61.9781 68.1758C61.0231 68.1758 60.2731 67.9297 59.7281 67.4375C59.1891 66.9453 58.9196 66.2451 58.9196 65.3369C58.9196 63.3916 60.4752 62.3721 63.5865 62.2783L65.2213 62.2256V61.6279C65.2213 60.8721 65.0573 60.3154 64.7291 59.958C64.4069 59.5947 63.8883 59.4131 63.1735 59.4131C62.3707 59.4131 61.4625 59.6592 60.4489 60.1514L60.0006 59.0352C60.4752 58.7773 60.9938 58.5752 61.5563 58.4287C62.1246 58.2822 62.693 58.209 63.2614 58.209C64.4098 58.209 65.2594 58.4639 65.8102 58.9736C66.3668 59.4834 66.6451 60.3008 66.6451 61.4258V68H65.5641ZM62.2682 66.9717C63.1764 66.9717 63.8883 66.7227 64.4039 66.2246C64.9254 65.7266 65.1862 65.0293 65.1862 64.1328V63.2627L63.7272 63.3242C62.567 63.3652 61.7291 63.5469 61.2135 63.8691C60.7037 64.1855 60.4489 64.6807 60.4489 65.3545C60.4489 65.8818 60.6071 66.2832 60.9235 66.5586C61.2457 66.834 61.694 66.9717 62.2682 66.9717ZM76.0494 68H74.5553V55.1504H81.7184V56.4775H76.0494V61.1797H81.3756V62.5068H76.0494V68ZM89.5582 68L89.2682 66.6289H89.1979C88.7174 67.2324 88.2369 67.6426 87.7565 67.8594C87.2819 68.0703 86.6871 68.1758 85.9723 68.1758C85.0172 68.1758 84.2672 67.9297 83.7223 67.4375C83.1832 66.9453 82.9137 66.2451 82.9137 65.3369C82.9137 63.3916 84.4694 62.3721 87.5807 62.2783L89.2155 62.2256V61.6279C89.2155 60.8721 89.0514 60.3154 88.7233 59.958C88.401 59.5947 87.8824 59.4131 87.1676 59.4131C86.3649 59.4131 85.4567 59.6592 84.443 60.1514L83.9948 59.0352C84.4694 58.7773 84.9879 58.5752 85.5504 58.4287C86.1188 58.2822 86.6871 58.209 87.2555 58.209C88.4039 58.209 89.2535 58.4639 89.8043 58.9736C90.361 59.4834 90.6393 60.3008 90.6393 61.4258V68H89.5582ZM86.2623 66.9717C87.1705 66.9717 87.8824 66.7227 88.3981 66.2246C88.9196 65.7266 89.1803 65.0293 89.1803 64.1328V63.2627L87.7213 63.3242C86.5612 63.3652 85.7233 63.5469 85.2076 63.8691C84.6979 64.1855 84.443 64.6807 84.443 65.3545C84.443 65.8818 84.6012 66.2832 84.9176 66.5586C85.2399 66.834 85.6881 66.9717 86.2623 66.9717ZM105.932 68V61.7334C105.932 60.9658 105.768 60.3916 105.44 60.0107C105.112 59.624 104.602 59.4307 103.911 59.4307C103.003 59.4307 102.332 59.6914 101.898 60.2129C101.464 60.7344 101.248 61.5371 101.248 62.6211V68H99.7887V61.7334C99.7887 60.9658 99.6246 60.3916 99.2965 60.0107C98.9684 59.624 98.4557 59.4307 97.7584 59.4307C96.8444 59.4307 96.1735 59.7061 95.7457 60.2568C95.3239 60.8018 95.1129 61.6982 95.1129 62.9463V68H93.6539V58.3672H94.8405L95.0778 59.6855H95.1481C95.4235 59.2168 95.8102 58.8506 96.3082 58.5869C96.8121 58.3232 97.3746 58.1914 97.9957 58.1914C99.5016 58.1914 100.486 58.7363 100.949 59.8262H101.019C101.306 59.3223 101.722 58.9238 102.267 58.6309C102.812 58.3379 103.433 58.1914 104.13 58.1914C105.22 58.1914 106.035 58.4727 106.574 59.0352C107.119 59.5918 107.391 60.4854 107.391 61.7158V68H105.932ZM111.865 68H110.406V58.3672H111.865V68ZM110.283 55.7568C110.283 55.4229 110.365 55.1797 110.529 55.0273C110.693 54.8691 110.898 54.79 111.144 54.79C111.379 54.79 111.581 54.8691 111.751 55.0273C111.921 55.1855 112.005 55.4287 112.005 55.7568C112.005 56.085 111.921 56.3311 111.751 56.4951C111.581 56.6533 111.379 56.7324 111.144 56.7324C110.898 56.7324 110.693 56.6533 110.529 56.4951C110.365 56.3311 110.283 56.085 110.283 55.7568ZM116.418 68H114.959V54.3242H116.418V68ZM120.97 68H119.511V58.3672H120.97V68ZM119.388 55.7568C119.388 55.4229 119.47 55.1797 119.634 55.0273C119.798 54.8691 120.004 54.79 120.25 54.79C120.484 54.79 120.686 54.8691 120.856 55.0273C121.026 55.1855 121.111 55.4287 121.111 55.7568C121.111 56.085 121.026 56.3311 120.856 56.4951C120.686 56.6533 120.484 56.7324 120.25 56.7324C120.004 56.7324 119.798 56.6533 119.634 56.4951C119.47 56.3311 119.388 56.085 119.388 55.7568ZM129.988 68L129.698 66.6289H129.628C129.147 67.2324 128.667 67.6426 128.186 67.8594C127.712 68.0703 127.117 68.1758 126.402 68.1758C125.447 68.1758 124.697 67.9297 124.152 67.4375C123.613 66.9453 123.343 66.2451 123.343 65.3369C123.343 63.3916 124.899 62.3721 128.01 62.2783L129.645 62.2256V61.6279C129.645 60.8721 129.481 60.3154 129.153 59.958C128.831 59.5947 128.312 59.4131 127.597 59.4131C126.795 59.4131 125.886 59.6592 124.873 60.1514L124.424 59.0352C124.899 58.7773 125.418 58.5752 125.98 58.4287C126.548 58.2822 127.117 58.209 127.685 58.209C128.834 58.209 129.683 58.4639 130.234 58.9736C130.791 59.4834 131.069 60.3008 131.069 61.4258V68H129.988ZM126.692 66.9717C127.6 66.9717 128.312 66.7227 128.828 66.2246C129.349 65.7266 129.61 65.0293 129.61 64.1328V63.2627L128.151 63.3242C126.991 63.3652 126.153 63.5469 125.637 63.8691C125.128 64.1855 124.873 64.6807 124.873 65.3545C124.873 65.8818 125.031 66.2832 125.347 66.5586C125.67 66.834 126.118 66.9717 126.692 66.9717ZM135.613 65.9082L135.745 66.1104C135.592 66.6963 135.373 67.376 135.086 68.1494C134.798 68.9287 134.5 69.6523 134.189 70.3203H133.09C133.249 69.7109 133.422 68.958 133.609 68.0615C133.802 67.165 133.937 66.4473 134.013 65.9082H135.613ZM153.147 68H151.653V61.9531H144.885V68H143.391V55.1504H144.885V60.6172H151.653V55.1504H153.147V68ZM160.53 68.1758C159.106 68.1758 157.981 67.7422 157.155 66.875C156.335 66.0078 155.924 64.8037 155.924 63.2627C155.924 61.71 156.305 60.4766 157.067 59.5625C157.835 58.6484 158.863 58.1914 160.152 58.1914C161.359 58.1914 162.314 58.5898 163.017 59.3867C163.72 60.1777 164.072 61.2236 164.072 62.5244V63.4473H157.436C157.465 64.5781 157.75 65.4365 158.289 66.0225C158.834 66.6084 159.598 66.9014 160.583 66.9014C161.62 66.9014 162.645 66.6846 163.659 66.251V67.5518C163.143 67.7744 162.654 67.9326 162.191 68.0264C161.734 68.126 161.18 68.1758 160.53 68.1758ZM160.134 59.4131C159.361 59.4131 158.743 59.665 158.28 60.1689C157.823 60.6729 157.553 61.3701 157.471 62.2607H162.507C162.507 61.3408 162.302 60.6377 161.892 60.1514C161.482 59.6592 160.896 59.4131 160.134 59.4131ZM170.963 58.1914C171.39 58.1914 171.774 58.2266 172.114 58.2969L171.912 59.6504C171.513 59.5625 171.162 59.5186 170.857 59.5186C170.078 59.5186 169.41 59.835 168.853 60.4678C168.302 61.1006 168.027 61.8887 168.027 62.832V68H166.568V58.3672H167.772L167.939 60.1514H168.009C168.367 59.5244 168.797 59.041 169.301 58.7012C169.805 58.3613 170.359 58.1914 170.963 58.1914ZM178.398 58.209C179.664 58.209 180.645 58.6426 181.342 59.5098C182.046 60.3711 182.397 61.5928 182.397 63.1748C182.397 64.7568 182.043 65.9873 181.334 66.8662C180.63 67.7393 179.652 68.1758 178.398 68.1758C177.771 68.1758 177.197 68.0615 176.675 67.833C176.16 67.5986 175.726 67.2412 175.375 66.7607H175.269L174.962 68H173.916V54.3242H175.375V57.6465C175.375 58.3906 175.351 59.0586 175.304 59.6504H175.375C176.054 58.6895 177.062 58.209 178.398 58.209ZM178.187 59.4307C177.191 59.4307 176.473 59.7178 176.034 60.292C175.594 60.8604 175.375 61.8213 175.375 63.1748C175.375 64.5283 175.6 65.498 176.051 66.084C176.503 66.6641 177.226 66.9541 178.222 66.9541C179.119 66.9541 179.787 66.6289 180.226 65.9785C180.666 65.3223 180.885 64.3818 180.885 63.1572C180.885 61.9033 180.666 60.9688 180.226 60.3535C179.787 59.7383 179.107 59.4307 178.187 59.4307ZM190.879 68L190.589 66.6289H190.518C190.038 67.2324 189.557 67.6426 189.077 67.8594C188.602 68.0703 188.007 68.1758 187.293 68.1758C186.338 68.1758 185.588 67.9297 185.043 67.4375C184.504 66.9453 184.234 66.2451 184.234 65.3369C184.234 63.3916 185.79 62.3721 188.901 62.2783L190.536 62.2256V61.6279C190.536 60.8721 190.372 60.3154 190.044 59.958C189.721 59.5947 189.203 59.4131 188.488 59.4131C187.685 59.4131 186.777 59.6592 185.763 60.1514L185.315 59.0352C185.79 58.7773 186.308 58.5752 186.871 58.4287C187.439 58.2822 188.007 58.209 188.576 58.209C189.724 58.209 190.574 58.4639 191.125 58.9736C191.681 59.4834 191.96 60.3008 191.96 61.4258V68H190.879ZM187.583 66.9717C188.491 66.9717 189.203 66.7227 189.718 66.2246C190.24 65.7266 190.501 65.0293 190.501 64.1328V63.2627L189.042 63.3242C187.881 63.3652 187.044 63.5469 186.528 63.8691C186.018 64.1855 185.763 64.6807 185.763 65.3545C185.763 65.8818 185.922 66.2832 186.238 66.5586C186.56 66.834 187.008 66.9717 187.583 66.9717ZM8.94495 104.581C8.94495 105.712 8.53479 106.594 7.71448 107.227C6.89417 107.859 5.78088 108.176 4.37463 108.176C2.8512 108.176 1.67932 107.979 0.859009 107.587V106.146C1.38635 106.368 1.96057 106.544 2.58167 106.673C3.20276 106.802 3.81799 106.866 4.42737 106.866C5.42346 106.866 6.17346 106.679 6.67737 106.304C7.18127 105.923 7.43323 105.396 7.43323 104.722C7.43323 104.276 7.34241 103.913 7.16077 103.632C6.98499 103.345 6.68616 103.081 6.26428 102.841C5.84827 102.601 5.21252 102.328 4.35706 102.023C3.16174 101.596 2.30627 101.089 1.79065 100.503C1.28088 99.917 1.026 99.1523 1.026 98.209C1.026 97.2188 1.39807 96.4307 2.14221 95.8447C2.88635 95.2588 3.87073 94.9658 5.09534 94.9658C6.37268 94.9658 7.54749 95.2002 8.61975 95.6689L8.15393 96.9697C7.09338 96.5244 6.06213 96.3018 5.06018 96.3018C4.26917 96.3018 3.651 96.4717 3.20569 96.8115C2.76038 97.1514 2.53772 97.623 2.53772 98.2266C2.53772 98.6719 2.61975 99.0381 2.78381 99.3252C2.94788 99.6064 3.22327 99.8672 3.60999 100.107C4.00256 100.342 4.60022 100.603 5.40295 100.89C6.75061 101.37 7.67639 101.886 8.1803 102.437C8.69006 102.987 8.94495 103.702 8.94495 104.581ZM14.4645 106.972C14.7223 106.972 14.9713 106.954 15.2115 106.919C15.4518 106.878 15.6422 106.837 15.7828 106.796V107.912C15.6246 107.988 15.3903 108.05 15.0797 108.097C14.775 108.149 14.4996 108.176 14.2535 108.176C12.3903 108.176 11.4586 107.194 11.4586 105.231V99.501H10.0787V98.7979L11.4586 98.1914L12.0739 96.1348H12.9176V98.3672H15.7125V99.501H12.9176V105.17C12.9176 105.75 13.0553 106.195 13.3307 106.506C13.6061 106.816 13.984 106.972 14.4645 106.972ZM22.111 98.1914C22.5387 98.1914 22.9225 98.2266 23.2623 98.2969L23.0602 99.6504C22.6617 99.5625 22.3102 99.5186 22.0055 99.5186C21.2262 99.5186 20.5582 99.835 20.0016 100.468C19.4508 101.101 19.1754 101.889 19.1754 102.832V108H17.7164V98.3672H18.9205L19.0875 100.151H19.1578C19.5153 99.5244 19.9459 99.041 20.4498 98.7012C20.9537 98.3613 21.5074 98.1914 22.111 98.1914ZM29.1334 108.176C27.7096 108.176 26.5846 107.742 25.7584 106.875C24.9381 106.008 24.528 104.804 24.528 103.263C24.528 101.71 24.9088 100.477 25.6705 99.5625C26.4381 98.6484 27.4664 98.1914 28.7555 98.1914C29.9625 98.1914 30.9176 98.5898 31.6207 99.3867C32.3239 100.178 32.6754 101.224 32.6754 102.524V103.447H26.0397C26.069 104.578 26.3531 105.437 26.8922 106.022C27.4371 106.608 28.2018 106.901 29.1862 106.901C30.2233 106.901 31.2487 106.685 32.2623 106.251V107.552C31.7467 107.774 31.2574 107.933 30.7946 108.026C30.3375 108.126 29.7838 108.176 29.1334 108.176ZM28.7379 99.4131C27.9645 99.4131 27.3463 99.665 26.8834 100.169C26.4264 100.673 26.1569 101.37 26.0748 102.261H31.111C31.111 101.341 30.9059 100.638 30.4957 100.151C30.0856 99.6592 29.4996 99.4131 28.7379 99.4131ZM39.2408 108.176C37.817 108.176 36.692 107.742 35.8658 106.875C35.0455 106.008 34.6354 104.804 34.6354 103.263C34.6354 101.71 35.0162 100.477 35.778 99.5625C36.5455 98.6484 37.5739 98.1914 38.8629 98.1914C40.0699 98.1914 41.025 98.5898 41.7281 99.3867C42.4313 100.178 42.7828 101.224 42.7828 102.524V103.447H36.1471C36.1764 104.578 36.4606 105.437 36.9996 106.022C37.5446 106.608 38.3092 106.901 39.2936 106.901C40.3307 106.901 41.3561 106.685 42.3698 106.251V107.552C41.8541 107.774 41.3649 107.933 40.902 108.026C40.4449 108.126 39.8912 108.176 39.2408 108.176ZM38.8453 99.4131C38.0719 99.4131 37.4537 99.665 36.9908 100.169C36.5338 100.673 36.2643 101.37 36.1823 102.261H41.2184C41.2184 101.341 41.0133 100.638 40.6031 100.151C40.193 99.6592 39.6071 99.4131 38.8453 99.4131ZM48.3903 106.972C48.6481 106.972 48.8971 106.954 49.1373 106.919C49.3776 106.878 49.568 106.837 49.7086 106.796V107.912C49.5504 107.988 49.316 108.05 49.0055 108.097C48.7008 108.149 48.4254 108.176 48.1793 108.176C46.316 108.176 45.3844 107.194 45.3844 105.231V99.501H44.0045V98.7979L45.3844 98.1914L45.9996 96.1348H46.8434V98.3672H49.6383V99.501H46.8434V105.17C46.8434 105.75 46.9811 106.195 47.2565 106.506C47.5319 106.816 47.9098 106.972 48.3903 106.972ZM58.0319 108H56.5377V95.1504H63.7008V96.4775H58.0319V101.18H63.358V102.507H58.0319V108ZM70.0114 98.1914C70.4391 98.1914 70.8229 98.2266 71.1627 98.2969L70.9606 99.6504C70.5621 99.5625 70.2106 99.5186 69.9059 99.5186C69.1266 99.5186 68.4586 99.835 67.902 100.468C67.3512 101.101 67.0758 101.889 67.0758 102.832V108H65.6168V98.3672H66.8209L66.9879 100.151H67.0582C67.4156 99.5244 67.8463 99.041 68.3502 98.7012C68.8541 98.3613 69.4078 98.1914 70.0114 98.1914ZM81.2789 103.175C81.2789 104.745 80.8834 105.973 80.0924 106.857C79.3014 107.736 78.2086 108.176 76.8141 108.176C75.9528 108.176 75.1881 107.974 74.5201 107.569C73.8522 107.165 73.3365 106.585 72.9733 105.829C72.61 105.073 72.4283 104.188 72.4283 103.175C72.4283 101.604 72.8209 100.383 73.6061 99.5098C74.3912 98.6309 75.4811 98.1914 76.8756 98.1914C78.2233 98.1914 79.2926 98.6396 80.0836 99.5361C80.8805 100.433 81.2789 101.646 81.2789 103.175ZM73.9401 103.175C73.9401 104.405 74.1862 105.343 74.6783 105.987C75.1705 106.632 75.8942 106.954 76.8492 106.954C77.8043 106.954 78.528 106.635 79.0201 105.996C79.5182 105.352 79.7672 104.411 79.7672 103.175C79.7672 101.95 79.5182 101.021 79.0201 100.389C78.528 99.75 77.7985 99.4307 76.8317 99.4307C75.8766 99.4307 75.1559 99.7441 74.6696 100.371C74.1832 100.998 73.9401 101.933 73.9401 103.175ZM90.4371 108V101.769C90.4371 100.983 90.2584 100.397 89.901 100.011C89.5436 99.624 88.984 99.4307 88.2223 99.4307C87.2145 99.4307 86.4762 99.7031 86.0074 100.248C85.5387 100.793 85.3043 101.692 85.3043 102.946V108H83.8453V98.3672H85.0319L85.2692 99.6855H85.3395C85.6383 99.2109 86.0573 98.8447 86.5963 98.5869C87.1354 98.3232 87.736 98.1914 88.3981 98.1914C89.5582 98.1914 90.4313 98.4727 91.0172 99.0352C91.6031 99.5918 91.8961 100.485 91.8961 101.716V108H90.4371ZM98.0133 106.972C98.2711 106.972 98.5201 106.954 98.7604 106.919C99.0006 106.878 99.191 106.837 99.3317 106.796V107.912C99.1735 107.988 98.9391 108.05 98.6285 108.097C98.3239 108.149 98.0485 108.176 97.8024 108.176C95.9391 108.176 95.0074 107.194 95.0074 105.231V99.501H93.6276V98.7979L95.0074 98.1914L95.6227 96.1348H96.4664V98.3672H99.2614V99.501H96.4664V105.17C96.4664 105.75 96.6041 106.195 96.8795 106.506C97.1549 106.816 97.5328 106.972 98.0133 106.972ZM115.864 95.1504V103.465C115.864 104.93 115.422 106.081 114.537 106.919C113.652 107.757 112.436 108.176 110.889 108.176C109.342 108.176 108.144 107.754 107.295 106.91C106.451 106.066 106.029 104.906 106.029 103.43V95.1504H107.523V103.535C107.523 104.607 107.816 105.431 108.402 106.005C108.988 106.579 109.849 106.866 110.986 106.866C112.07 106.866 112.905 106.579 113.491 106.005C114.077 105.425 114.37 104.596 114.37 103.518V95.1504H115.864ZM126.525 104.581C126.525 105.712 126.115 106.594 125.295 107.227C124.474 107.859 123.361 108.176 121.955 108.176C120.431 108.176 119.259 107.979 118.439 107.587V106.146C118.966 106.368 119.541 106.544 120.162 106.673C120.783 106.802 121.398 106.866 122.007 106.866C123.004 106.866 123.754 106.679 124.257 106.304C124.761 105.923 125.013 105.396 125.013 104.722C125.013 104.276 124.922 103.913 124.741 103.632C124.565 103.345 124.266 103.081 123.844 102.841C123.428 102.601 122.793 102.328 121.937 102.023C120.742 101.596 119.886 101.089 119.371 100.503C118.861 99.917 118.606 99.1523 118.606 98.209C118.606 97.2188 118.978 96.4307 119.722 95.8447C120.466 95.2588 121.451 94.9658 122.675 94.9658C123.953 94.9658 125.128 95.2002 126.2 95.6689L125.734 96.9697C124.673 96.5244 123.642 96.3018 122.64 96.3018C121.849 96.3018 121.231 96.4717 120.786 96.8115C120.34 97.1514 120.118 97.623 120.118 98.2266C120.118 98.6719 120.2 99.0381 120.364 99.3252C120.528 99.6064 120.803 99.8672 121.19 100.107C121.583 100.342 122.18 100.603 122.983 100.89C124.331 101.37 125.256 101.886 125.76 102.437C126.27 102.987 126.525 103.702 126.525 104.581ZM137.23 108L135.63 103.913H130.48L128.898 108H127.386L132.466 95.0977H133.723L138.777 108H137.23ZM135.165 102.568L133.671 98.5869C133.477 98.083 133.278 97.4648 133.073 96.7324C132.944 97.2949 132.759 97.9131 132.519 98.5869L131.007 102.568H135.165ZM5.95667 138.209C7.22229 138.209 8.20374 138.643 8.901 139.51C9.60413 140.371 9.95569 141.593 9.95569 143.175C9.95569 144.757 9.6012 145.987 8.89221 146.866C8.18909 147.739 7.21057 148.176 5.95667 148.176C5.32971 148.176 4.75549 148.062 4.23401 147.833C3.71838 147.599 3.28479 147.241 2.93323 146.761H2.82776L2.52014 148H1.47424V134.324H2.93323V137.646C2.93323 138.391 2.90979 139.059 2.86292 139.65H2.93323C3.61292 138.689 4.62073 138.209 5.95667 138.209ZM5.74573 139.431C4.74963 139.431 4.03186 139.718 3.59241 140.292C3.15295 140.86 2.93323 141.821 2.93323 143.175C2.93323 144.528 3.15881 145.498 3.60999 146.084C4.06116 146.664 4.78479 146.954 5.78088 146.954C6.67737 146.954 7.34534 146.629 7.78479 145.979C8.22424 145.322 8.44397 144.382 8.44397 143.157C8.44397 141.903 8.22424 140.969 7.78479 140.354C7.34534 139.738 6.66565 139.431 5.74573 139.431ZM16.9078 138.191C17.3356 138.191 17.7194 138.227 18.0592 138.297L17.8571 139.65C17.4586 139.562 17.1071 139.519 16.8024 139.519C16.0231 139.519 15.3551 139.835 14.7985 140.468C14.2477 141.101 13.9723 141.889 13.9723 142.832V148H12.5133V138.367H13.7174L13.8844 140.151H13.9547C14.3121 139.524 14.7428 139.041 15.2467 138.701C15.7506 138.361 16.3043 138.191 16.9078 138.191ZM25.7848 148L25.4948 146.629H25.4244C24.944 147.232 24.4635 147.643 23.983 147.859C23.5084 148.07 22.9137 148.176 22.1989 148.176C21.2438 148.176 20.4938 147.93 19.9489 147.438C19.4098 146.945 19.1403 146.245 19.1403 145.337C19.1403 143.392 20.6959 142.372 23.8073 142.278L25.442 142.226V141.628C25.442 140.872 25.278 140.315 24.9498 139.958C24.6276 139.595 24.109 139.413 23.3942 139.413C22.5914 139.413 21.6832 139.659 20.6696 140.151L20.2213 139.035C20.6959 138.777 21.2145 138.575 21.777 138.429C22.3453 138.282 22.9137 138.209 23.4821 138.209C24.6305 138.209 25.4801 138.464 26.0309 138.974C26.5875 139.483 26.8658 140.301 26.8658 141.426V148H25.7848ZM22.4889 146.972C23.3971 146.972 24.109 146.723 24.6246 146.225C25.1461 145.727 25.4069 145.029 25.4069 144.133V143.263L23.9479 143.324C22.7877 143.365 21.9498 143.547 21.4342 143.869C20.9244 144.186 20.6696 144.681 20.6696 145.354C20.6696 145.882 20.8278 146.283 21.1442 146.559C21.4664 146.834 21.9147 146.972 22.4889 146.972ZM36.4723 148V141.769C36.4723 140.983 36.2936 140.397 35.9362 140.011C35.5787 139.624 35.0192 139.431 34.2574 139.431C33.2496 139.431 32.5114 139.703 32.0426 140.248C31.5739 140.793 31.3395 141.692 31.3395 142.946V148H29.8805V138.367H31.067L31.3043 139.686H31.3746C31.6735 139.211 32.0924 138.845 32.6315 138.587C33.1705 138.323 33.7711 138.191 34.4332 138.191C35.5934 138.191 36.4664 138.473 37.0524 139.035C37.6383 139.592 37.9313 140.485 37.9313 141.716V148H36.4723ZM47.4938 146.708H47.4147C46.7408 147.687 45.733 148.176 44.3912 148.176C43.1315 148.176 42.15 147.745 41.4469 146.884C40.7496 146.022 40.401 144.798 40.401 143.21C40.401 141.622 40.7526 140.389 41.4557 139.51C42.1588 138.631 43.1373 138.191 44.3912 138.191C45.6979 138.191 46.6998 138.666 47.3971 139.615H47.5114L47.4498 138.921L47.4147 138.244V134.324H48.8737V148H47.6871L47.4938 146.708ZM44.5758 146.954C45.5719 146.954 46.2926 146.685 46.7379 146.146C47.1891 145.601 47.4147 144.725 47.4147 143.518V143.21C47.4147 141.845 47.1862 140.872 46.7291 140.292C46.278 139.706 45.5543 139.413 44.5582 139.413C43.7028 139.413 43.0465 139.747 42.5895 140.415C42.1383 141.077 41.9127 142.015 41.9127 143.228C41.9127 144.458 42.1383 145.387 42.5895 146.014C43.0406 146.641 43.7028 146.954 44.5758 146.954ZM60.2906 143.175C60.2906 144.745 59.8951 145.973 59.1041 146.857C58.3131 147.736 57.2203 148.176 55.8258 148.176C54.9645 148.176 54.1998 147.974 53.5319 147.569C52.8639 147.165 52.3483 146.585 51.985 145.829C51.6217 145.073 51.4401 144.188 51.4401 143.175C51.4401 141.604 51.8326 140.383 52.6178 139.51C53.403 138.631 54.4928 138.191 55.8873 138.191C57.235 138.191 58.3043 138.64 59.0953 139.536C59.8922 140.433 60.2906 141.646 60.2906 143.175ZM52.9518 143.175C52.9518 144.405 53.1979 145.343 53.6901 145.987C54.1823 146.632 54.9059 146.954 55.861 146.954C56.816 146.954 57.5397 146.635 58.0319 145.996C58.5299 145.352 58.7789 144.411 58.7789 143.175C58.7789 141.95 58.5299 141.021 58.0319 140.389C57.5397 139.75 56.8102 139.431 55.8434 139.431C54.8883 139.431 54.1676 139.744 53.6813 140.371C53.1949 140.998 52.9518 141.933 52.9518 143.175ZM65.1774 143.069L61.8287 138.367H63.4899L66.0299 142.059L68.5612 138.367H70.2047L66.8561 143.069L70.3805 148H68.7281L66.0299 144.098L63.3053 148H61.653L65.1774 143.069ZM73.7555 148H72.2965V138.367H73.7555V148ZM72.1735 135.757C72.1735 135.423 72.2555 135.18 72.4196 135.027C72.5836 134.869 72.7887 134.79 73.0348 134.79C73.2692 134.79 73.4713 134.869 73.6412 135.027C73.8112 135.186 73.8961 135.429 73.8961 135.757C73.8961 136.085 73.8112 136.331 73.6412 136.495C73.4713 136.653 73.2692 136.732 73.0348 136.732C72.7887 136.732 72.5836 136.653 72.4196 136.495C72.2555 136.331 72.1735 136.085 72.1735 135.757ZM83.4059 146.708H83.3268C82.653 147.687 81.6451 148.176 80.3033 148.176C79.0436 148.176 78.0621 147.745 77.359 146.884C76.6617 146.022 76.3131 144.798 76.3131 143.21C76.3131 141.622 76.6647 140.389 77.3678 139.51C78.0709 138.631 79.0494 138.191 80.3033 138.191C81.61 138.191 82.6119 138.666 83.3092 139.615H83.4235L83.3619 138.921L83.3268 138.244V134.324H84.7858V148H83.5992L83.4059 146.708ZM80.4879 146.954C81.484 146.954 82.2047 146.685 82.65 146.146C83.1012 145.601 83.3268 144.725 83.3268 143.518V143.21C83.3268 141.845 83.0983 140.872 82.6412 140.292C82.1901 139.706 81.4664 139.413 80.4703 139.413C79.6149 139.413 78.9586 139.747 78.5016 140.415C78.0504 141.077 77.8248 142.015 77.8248 143.228C77.8248 144.458 78.0504 145.387 78.5016 146.014C78.9528 146.641 79.6149 146.954 80.4879 146.954ZM91.9576 148.176C90.5338 148.176 89.4088 147.742 88.5826 146.875C87.7623 146.008 87.3522 144.804 87.3522 143.263C87.3522 141.71 87.733 140.477 88.4948 139.562C89.2623 138.648 90.2906 138.191 91.5797 138.191C92.7867 138.191 93.7418 138.59 94.4449 139.387C95.1481 140.178 95.4996 141.224 95.4996 142.524V143.447H88.8639C88.8932 144.578 89.1774 145.437 89.7164 146.022C90.2614 146.608 91.026 146.901 92.0104 146.901C93.0475 146.901 94.0729 146.685 95.0865 146.251V147.552C94.5709 147.774 94.0817 147.933 93.6188 148.026C93.1617 148.126 92.608 148.176 91.9576 148.176ZM91.5621 139.413C90.7887 139.413 90.1705 139.665 89.7076 140.169C89.2506 140.673 88.9811 141.37 88.899 142.261H93.9352C93.9352 141.341 93.7301 140.638 93.3199 140.151C92.9098 139.659 92.3239 139.413 91.5621 139.413ZM111.566 141.593C111.566 142.425 111.437 143.187 111.179 143.878C110.922 144.569 110.558 145.105 110.089 145.486C109.621 145.867 109.082 146.058 108.472 146.058C107.968 146.058 107.544 145.905 107.198 145.601C106.852 145.296 106.647 144.906 106.583 144.432H106.512C106.278 144.941 105.941 145.34 105.502 145.627C105.068 145.914 104.552 146.058 103.955 146.058C103.076 146.058 102.387 145.759 101.889 145.161C101.397 144.558 101.151 143.74 101.151 142.709C101.151 141.514 101.497 140.544 102.188 139.8C102.88 139.05 103.788 138.675 104.913 138.675C105.311 138.675 105.762 138.713 106.266 138.789C106.77 138.859 107.224 138.959 107.629 139.088L107.409 143.219V143.412C107.409 144.455 107.798 144.977 108.578 144.977C109.111 144.977 109.545 144.663 109.879 144.036C110.213 143.403 110.38 142.583 110.38 141.575C110.38 140.515 110.163 139.586 109.729 138.789C109.296 137.992 108.677 137.38 107.875 136.952C107.078 136.519 106.161 136.302 105.124 136.302C103.817 136.302 102.68 136.574 101.714 137.119C100.747 137.658 100.008 138.432 99.4987 139.439C98.9889 140.441 98.734 141.602 98.734 142.92C98.734 144.707 99.2057 146.081 100.149 147.042C101.092 148.003 102.452 148.483 104.227 148.483C105.458 148.483 106.735 148.231 108.059 147.728V148.896C106.934 149.389 105.657 149.635 104.227 149.635C102.1 149.635 100.448 149.052 99.2701 147.886C98.0983 146.714 97.5123 145.079 97.5123 142.981C97.5123 141.458 97.8258 140.102 98.4528 138.912C99.0797 137.723 99.9733 136.803 101.133 136.152C102.294 135.496 103.624 135.168 105.124 135.168C106.383 135.168 107.503 135.435 108.481 135.968C109.465 136.495 110.224 137.248 110.757 138.227C111.297 139.199 111.566 140.321 111.566 141.593ZM102.478 142.744C102.478 144.232 103.049 144.977 104.192 144.977C105.405 144.977 106.064 144.06 106.17 142.226L106.293 139.932C105.871 139.814 105.411 139.756 104.913 139.756C104.151 139.756 103.553 140.02 103.12 140.547C102.692 141.074 102.478 141.807 102.478 142.744ZM122.069 138.367V139.29L120.285 139.501C120.449 139.706 120.595 139.976 120.724 140.31C120.853 140.638 120.918 141.01 120.918 141.426C120.918 142.369 120.595 143.122 119.951 143.685C119.306 144.247 118.422 144.528 117.297 144.528C117.009 144.528 116.74 144.505 116.488 144.458C115.867 144.786 115.556 145.199 115.556 145.697C115.556 145.961 115.665 146.157 115.881 146.286C116.098 146.409 116.47 146.471 116.998 146.471H118.703C119.746 146.471 120.546 146.69 121.102 147.13C121.665 147.569 121.946 148.208 121.946 149.046C121.946 150.112 121.518 150.924 120.663 151.48C119.807 152.043 118.559 152.324 116.919 152.324C115.659 152.324 114.686 152.09 114.001 151.621C113.321 151.152 112.981 150.49 112.981 149.635C112.981 149.049 113.169 148.542 113.544 148.114C113.919 147.687 114.446 147.396 115.126 147.244C114.88 147.133 114.672 146.96 114.502 146.726C114.338 146.491 114.255 146.219 114.255 145.908C114.255 145.557 114.349 145.249 114.537 144.985C114.724 144.722 115.02 144.467 115.424 144.221C114.926 144.016 114.519 143.667 114.203 143.175C113.892 142.683 113.737 142.12 113.737 141.487C113.737 140.433 114.053 139.621 114.686 139.053C115.319 138.479 116.215 138.191 117.376 138.191C117.88 138.191 118.334 138.25 118.738 138.367H122.069ZM114.387 149.617C114.387 150.139 114.607 150.534 115.047 150.804C115.486 151.073 116.116 151.208 116.936 151.208C118.161 151.208 119.066 151.023 119.652 150.654C120.244 150.291 120.54 149.796 120.54 149.169C120.54 148.647 120.379 148.284 120.056 148.079C119.734 147.88 119.128 147.78 118.237 147.78H116.488C115.826 147.78 115.31 147.938 114.941 148.255C114.572 148.571 114.387 149.025 114.387 149.617ZM115.178 141.452C115.178 142.126 115.369 142.636 115.75 142.981C116.13 143.327 116.661 143.5 117.34 143.5C118.764 143.5 119.476 142.809 119.476 141.426C119.476 139.979 118.755 139.255 117.314 139.255C116.629 139.255 116.101 139.439 115.732 139.809C115.363 140.178 115.178 140.726 115.178 141.452ZM136.325 148V141.733C136.325 140.966 136.161 140.392 135.833 140.011C135.505 139.624 134.995 139.431 134.303 139.431C133.395 139.431 132.724 139.691 132.291 140.213C131.857 140.734 131.64 141.537 131.64 142.621V148H130.181V141.733C130.181 140.966 130.017 140.392 129.689 140.011C129.361 139.624 128.848 139.431 128.151 139.431C127.237 139.431 126.566 139.706 126.138 140.257C125.716 140.802 125.505 141.698 125.505 142.946V148H124.047V138.367H125.233L125.47 139.686H125.541C125.816 139.217 126.203 138.851 126.701 138.587C127.205 138.323 127.767 138.191 128.388 138.191C129.894 138.191 130.879 138.736 131.341 139.826H131.412C131.699 139.322 132.115 138.924 132.66 138.631C133.205 138.338 133.826 138.191 134.523 138.191C135.613 138.191 136.427 138.473 136.966 139.035C137.511 139.592 137.784 140.485 137.784 141.716V148H136.325ZM146.722 148L146.432 146.629H146.362C145.881 147.232 145.401 147.643 144.921 147.859C144.446 148.07 143.851 148.176 143.136 148.176C142.181 148.176 141.431 147.93 140.886 147.438C140.347 146.945 140.078 146.245 140.078 145.337C140.078 143.392 141.633 142.372 144.745 142.278L146.38 142.226V141.628C146.38 140.872 146.215 140.315 145.887 139.958C145.565 139.595 145.047 139.413 144.332 139.413C143.529 139.413 142.621 139.659 141.607 140.151L141.159 139.035C141.633 138.777 142.152 138.575 142.714 138.429C143.283 138.282 143.851 138.209 144.42 138.209C145.568 138.209 146.418 138.464 146.968 138.974C147.525 139.483 147.803 140.301 147.803 141.426V148H146.722ZM143.426 146.972C144.335 146.972 145.047 146.723 145.562 146.225C146.084 145.727 146.344 145.029 146.344 144.133V143.263L144.885 143.324C143.725 143.365 142.887 143.547 142.372 143.869C141.862 144.186 141.607 144.681 141.607 145.354C141.607 145.882 141.765 146.283 142.082 146.559C142.404 146.834 142.852 146.972 143.426 146.972ZM152.277 148H150.818V138.367H152.277V148ZM150.695 135.757C150.695 135.423 150.777 135.18 150.941 135.027C151.105 134.869 151.31 134.79 151.556 134.79C151.791 134.79 151.993 134.869 152.163 135.027C152.333 135.186 152.418 135.429 152.418 135.757C152.418 136.085 152.333 136.331 152.163 136.495C151.993 136.653 151.791 136.732 151.556 136.732C151.31 136.732 151.105 136.653 150.941 136.495C150.777 136.331 150.695 136.085 150.695 135.757ZM156.83 148H155.371V134.324H156.83V148ZM159.713 147.068C159.713 146.676 159.8 146.38 159.976 146.181C160.158 145.976 160.416 145.873 160.75 145.873C161.089 145.873 161.353 145.976 161.541 146.181C161.734 146.38 161.831 146.676 161.831 147.068C161.831 147.449 161.734 147.742 161.541 147.947C161.347 148.152 161.084 148.255 160.75 148.255C160.451 148.255 160.202 148.164 160.003 147.982C159.809 147.795 159.713 147.49 159.713 147.068ZM168.572 148.176C167.177 148.176 166.096 147.748 165.329 146.893C164.567 146.031 164.186 144.815 164.186 143.245C164.186 141.634 164.573 140.389 165.346 139.51C166.126 138.631 167.233 138.191 168.669 138.191C169.131 138.191 169.594 138.241 170.057 138.341C170.52 138.44 170.883 138.558 171.147 138.692L170.699 139.932C170.377 139.803 170.025 139.697 169.644 139.615C169.263 139.527 168.926 139.483 168.633 139.483C166.676 139.483 165.698 140.731 165.698 143.228C165.698 144.411 165.935 145.319 166.41 145.952C166.89 146.585 167.599 146.901 168.537 146.901C169.339 146.901 170.163 146.729 171.006 146.383V147.675C170.362 148.009 169.55 148.176 168.572 148.176ZM181.615 143.175C181.615 144.745 181.219 145.973 180.428 146.857C179.637 147.736 178.545 148.176 177.15 148.176C176.289 148.176 175.524 147.974 174.856 147.569C174.188 147.165 173.672 146.585 173.309 145.829C172.946 145.073 172.764 144.188 172.764 143.175C172.764 141.604 173.157 140.383 173.942 139.51C174.727 138.631 175.817 138.191 177.212 138.191C178.559 138.191 179.629 138.64 180.42 139.536C181.216 140.433 181.615 141.646 181.615 143.175ZM174.276 143.175C174.276 144.405 174.522 145.343 175.014 145.987C175.506 146.632 176.23 146.954 177.185 146.954C178.14 146.954 178.864 146.635 179.356 145.996C179.854 145.352 180.103 144.411 180.103 143.175C180.103 141.95 179.854 141.021 179.356 140.389C178.864 139.75 178.134 139.431 177.168 139.431C176.213 139.431 175.492 139.744 175.005 140.371C174.519 140.998 174.276 141.933 174.276 143.175ZM196.46 148V141.733C196.46 140.966 196.296 140.392 195.967 140.011C195.639 139.624 195.13 139.431 194.438 139.431C193.53 139.431 192.859 139.691 192.425 140.213C191.992 140.734 191.775 141.537 191.775 142.621V148H190.316V141.733C190.316 140.966 190.152 140.392 189.824 140.011C189.496 139.624 188.983 139.431 188.286 139.431C187.372 139.431 186.701 139.706 186.273 140.257C185.851 140.802 185.64 141.698 185.64 142.946V148H184.181V138.367H185.368L185.605 139.686H185.675C185.951 139.217 186.338 138.851 186.836 138.587C187.339 138.323 187.902 138.191 188.523 138.191C190.029 138.191 191.013 138.736 191.476 139.826H191.547C191.834 139.322 192.25 138.924 192.795 138.631C193.339 138.338 193.961 138.191 194.658 138.191C195.748 138.191 196.562 138.473 197.101 139.035C197.646 139.592 197.919 140.485 197.919 141.716V148H196.46ZM9.32288 181.558C9.32288 183.778 8.97131 185.437 8.26819 186.532C7.57092 187.628 6.50159 188.176 5.06018 188.176C3.67737 188.176 2.62561 187.616 1.90491 186.497C1.1842 185.372 0.823853 183.726 0.823853 181.558C0.823853 179.319 1.17249 177.658 1.86975 176.574C2.56702 175.49 3.63049 174.948 5.06018 174.948C6.45471 174.948 7.51233 175.514 8.23303 176.645C8.95959 177.775 9.32288 179.413 9.32288 181.558ZM2.30042 181.558C2.30042 183.427 2.52014 184.789 2.95959 185.645C3.39905 186.494 4.09924 186.919 5.06018 186.919C6.03284 186.919 6.73596 186.488 7.16956 185.627C7.60901 184.76 7.82874 183.403 7.82874 181.558C7.82874 179.712 7.60901 178.361 7.16956 177.506C6.73596 176.645 6.03284 176.214 5.06018 176.214C4.09924 176.214 3.39905 176.639 2.95959 177.488C2.52014 178.332 2.30042 179.688 2.30042 181.558ZM19.6237 181.558C19.6237 183.778 19.2721 185.437 18.569 186.532C17.8717 187.628 16.8024 188.176 15.361 188.176C13.9781 188.176 12.9264 187.616 12.2057 186.497C11.485 185.372 11.1246 183.726 11.1246 181.558C11.1246 179.319 11.4733 177.658 12.1705 176.574C12.8678 175.49 13.9313 174.948 15.361 174.948C16.7555 174.948 17.8131 175.514 18.5338 176.645C19.2604 177.775 19.6237 179.413 19.6237 181.558ZM12.6012 181.558C12.6012 183.427 12.8209 184.789 13.2604 185.645C13.6998 186.494 14.4 186.919 15.361 186.919C16.3336 186.919 17.0367 186.488 17.4703 185.627C17.9098 184.76 18.1295 183.403 18.1295 181.558C18.1295 179.712 17.9098 178.361 17.4703 177.506C17.0367 176.645 16.3336 176.214 15.361 176.214C14.4 176.214 13.6998 176.639 13.2604 177.488C12.8209 178.332 12.6012 179.688 12.6012 181.558ZM29.8541 188H21.4078V186.743L24.7916 183.342C25.8229 182.299 26.5026 181.555 26.8307 181.109C27.1588 180.664 27.4049 180.23 27.569 179.809C27.733 179.387 27.8151 178.933 27.8151 178.446C27.8151 177.761 27.6071 177.219 27.191 176.82C26.775 176.416 26.1979 176.214 25.4596 176.214C24.9264 176.214 24.4196 176.302 23.9391 176.478C23.4645 176.653 22.9342 176.973 22.3483 177.436L21.5748 176.442C22.7584 175.458 24.0475 174.966 25.442 174.966C26.649 174.966 27.5953 175.276 28.2809 175.897C28.9664 176.513 29.3092 177.342 29.3092 178.385C29.3092 179.199 29.0807 180.005 28.6237 180.802C28.1666 181.599 27.3112 182.606 26.0573 183.825L23.2448 186.576V186.646H29.8541V188ZM31.568 183.843V182.507H35.8834V183.843H31.568ZM41.526 180.151C42.8795 180.151 43.943 180.488 44.7164 181.162C45.4957 181.83 45.8854 182.747 45.8854 183.913C45.8854 185.243 45.4606 186.286 44.611 187.042C43.7672 187.798 42.6012 188.176 41.1129 188.176C39.6656 188.176 38.5612 187.944 37.7994 187.481V186.075C38.2096 186.339 38.7194 186.547 39.3287 186.699C39.9381 186.846 40.5387 186.919 41.1305 186.919C42.1617 186.919 42.9615 186.676 43.5299 186.189C44.1041 185.703 44.3912 185 44.3912 184.08C44.3912 182.287 43.2926 181.391 41.0953 181.391C40.5387 181.391 39.7946 181.476 38.8629 181.646L38.1071 181.162L38.5905 175.15H44.9801V176.495H39.8385L39.5133 180.354C40.1871 180.219 40.858 180.151 41.526 180.151ZM47.9596 182.507C47.9596 179.981 48.4489 178.095 49.4274 176.847C50.4117 175.593 51.8649 174.966 53.7867 174.966C54.4489 174.966 54.9703 175.021 55.3512 175.133V176.39C54.9 176.243 54.3844 176.17 53.8043 176.17C52.4274 176.17 51.3756 176.601 50.649 177.462C49.9225 178.317 49.524 179.665 49.4537 181.505H49.5592C50.2037 180.497 51.2233 179.993 52.6178 179.993C53.7721 179.993 54.6803 180.342 55.3424 181.039C56.0104 181.736 56.3444 182.683 56.3444 183.878C56.3444 185.214 55.9781 186.266 55.2457 187.033C54.5192 187.795 53.5348 188.176 52.2926 188.176C50.9625 188.176 49.9078 187.678 49.1285 186.682C48.3492 185.68 47.9596 184.288 47.9596 182.507ZM52.275 186.937C53.1071 186.937 53.7516 186.676 54.2086 186.154C54.6715 185.627 54.903 184.868 54.903 183.878C54.903 183.028 54.6891 182.36 54.2614 181.874C53.8336 181.388 53.1949 181.145 52.3453 181.145C51.818 181.145 51.3346 181.253 50.8951 181.47C50.4557 181.687 50.1041 181.985 49.8405 182.366C49.5826 182.747 49.4537 183.143 49.4537 183.553C49.4537 184.156 49.5709 184.719 49.8053 185.24C50.0397 185.762 50.3707 186.175 50.7985 186.479C51.2321 186.784 51.7242 186.937 52.275 186.937ZM62.3649 174.966C63.5367 174.966 64.4655 175.238 65.151 175.783C65.8365 176.328 66.1793 177.081 66.1793 178.042C66.1793 178.675 65.983 179.252 65.5905 179.773C65.1979 180.295 64.5709 180.77 63.7096 181.197C64.7526 181.695 65.4938 182.22 65.9332 182.771C66.3727 183.315 66.5924 183.948 66.5924 184.669C66.5924 185.735 66.2203 186.588 65.4762 187.227C64.7321 187.859 63.7125 188.176 62.4176 188.176C61.0465 188.176 59.9918 187.877 59.2535 187.279C58.5153 186.676 58.1461 185.823 58.1461 184.722C58.1461 183.251 59.0426 182.105 60.8356 181.285C60.027 180.828 59.4469 180.336 59.0953 179.809C58.7438 179.275 58.568 178.681 58.568 178.024C58.568 177.093 58.9108 176.352 59.5963 175.801C60.2877 175.244 61.2106 174.966 62.3649 174.966ZM59.5875 184.757C59.5875 185.46 59.8307 186.008 60.317 186.4C60.8092 186.793 61.4977 186.989 62.3824 186.989C63.2555 186.989 63.9352 186.784 64.4215 186.374C64.9078 185.964 65.151 185.401 65.151 184.687C65.151 184.118 64.9225 183.614 64.4655 183.175C64.0084 182.729 63.2115 182.299 62.0748 181.883C61.2018 182.258 60.569 182.674 60.1764 183.131C59.7838 183.582 59.5875 184.124 59.5875 184.757ZM62.3473 176.152C61.6149 176.152 61.0406 176.328 60.6246 176.68C60.2086 177.031 60.0006 177.5 60.0006 178.086C60.0006 178.625 60.1735 179.088 60.5192 179.475C60.8649 179.861 61.5035 180.248 62.4352 180.635C63.2731 180.283 63.8649 179.905 64.2106 179.501C64.5621 179.097 64.7379 178.625 64.7379 178.086C64.7379 177.494 64.524 177.025 64.0963 176.68C63.6744 176.328 63.0914 176.152 62.3473 176.152ZM77.4645 185.047H75.5573V188H74.1598V185.047H67.9108V183.772L74.0104 175.08H75.5573V183.72H77.4645V185.047ZM74.1598 183.72V179.448C74.1598 178.61 74.1891 177.664 74.2477 176.609H74.1774C73.8961 177.172 73.6324 177.638 73.3864 178.007L69.3698 183.72H74.1598ZM87.1588 188H78.7125V186.743L82.0963 183.342C83.1276 182.299 83.8073 181.555 84.1354 181.109C84.4635 180.664 84.7096 180.23 84.8737 179.809C85.0377 179.387 85.1198 178.933 85.1198 178.446C85.1198 177.761 84.9117 177.219 84.4957 176.82C84.0797 176.416 83.5026 176.214 82.7643 176.214C82.2311 176.214 81.7242 176.302 81.2438 176.478C80.7692 176.653 80.2389 176.973 79.653 177.436L78.8795 176.442C80.0631 175.458 81.3522 174.966 82.7467 174.966C83.9537 174.966 84.9 175.276 85.5856 175.897C86.2711 176.513 86.6139 177.342 86.6139 178.385C86.6139 179.199 86.3854 180.005 85.9283 180.802C85.4713 181.599 84.6158 182.606 83.3619 183.825L80.5494 186.576V186.646H87.1588V188ZM96.9762 178.174C96.9762 178.994 96.7448 179.665 96.2819 180.187C95.8248 180.708 95.1744 181.057 94.3307 181.232V181.303C95.3619 181.432 96.1266 181.76 96.6246 182.287C97.1227 182.814 97.3717 183.506 97.3717 184.361C97.3717 185.586 96.9469 186.529 96.0973 187.191C95.2477 187.848 94.0406 188.176 92.4762 188.176C91.7965 188.176 91.1725 188.123 90.6041 188.018C90.0416 187.918 89.4938 187.739 88.9606 187.481V186.093C89.5172 186.368 90.109 186.579 90.736 186.726C91.3688 186.866 91.9664 186.937 92.5289 186.937C94.7496 186.937 95.86 186.066 95.86 184.326C95.86 182.768 94.6354 181.988 92.1862 181.988H90.9205V180.731H92.2037C93.2057 180.731 93.9996 180.512 94.5856 180.072C95.1715 179.627 95.4645 179.012 95.4645 178.227C95.4645 177.6 95.2477 177.107 94.8141 176.75C94.3864 176.393 93.8033 176.214 93.0651 176.214C92.5026 176.214 91.9723 176.29 91.4742 176.442C90.9762 176.595 90.4078 176.876 89.7692 177.286L89.0309 176.302C89.5582 175.886 90.1647 175.561 90.8502 175.326C91.5416 175.086 92.2682 174.966 93.0299 174.966C94.278 174.966 95.2477 175.253 95.9391 175.827C96.6305 176.396 96.9762 177.178 96.9762 178.174ZM103.331 180.151C104.684 180.151 105.748 180.488 106.521 181.162C107.3 181.83 107.69 182.747 107.69 183.913C107.69 185.243 107.265 186.286 106.416 187.042C105.572 187.798 104.406 188.176 102.918 188.176C101.47 188.176 100.366 187.944 99.6041 187.481V186.075C100.014 186.339 100.524 186.547 101.133 186.699C101.743 186.846 102.343 186.919 102.935 186.919C103.966 186.919 104.766 186.676 105.335 186.189C105.909 185.703 106.196 185 106.196 184.08C106.196 182.287 105.097 181.391 102.9 181.391C102.343 181.391 101.599 181.476 100.668 181.646L99.9117 181.162L100.395 175.15H106.785V176.495H101.643L101.318 180.354C101.992 180.219 102.663 180.151 103.331 180.151ZM118.061 180.635C118.061 185.662 116.116 188.176 112.225 188.176C111.546 188.176 111.006 188.117 110.608 188V186.743C111.077 186.896 111.61 186.972 112.208 186.972C113.614 186.972 114.674 186.538 115.389 185.671C116.11 184.798 116.503 183.462 116.567 181.663H116.462C116.139 182.149 115.712 182.521 115.178 182.779C114.645 183.031 114.045 183.157 113.377 183.157C112.24 183.157 111.338 182.817 110.67 182.138C110.002 181.458 109.668 180.509 109.668 179.29C109.668 177.954 110.04 176.899 110.784 176.126C111.534 175.353 112.518 174.966 113.737 174.966C114.61 174.966 115.372 175.191 116.022 175.643C116.678 176.088 117.182 176.741 117.534 177.603C117.885 178.458 118.061 179.469 118.061 180.635ZM113.737 176.214C112.899 176.214 112.252 176.483 111.795 177.022C111.338 177.562 111.109 178.312 111.109 179.272C111.109 180.116 111.32 180.781 111.742 181.268C112.164 181.748 112.805 181.988 113.667 181.988C114.2 181.988 114.689 181.88 115.134 181.663C115.586 181.446 115.94 181.15 116.198 180.775C116.456 180.4 116.585 180.008 116.585 179.598C116.585 178.982 116.464 178.414 116.224 177.893C115.984 177.371 115.647 176.961 115.214 176.662C114.786 176.363 114.294 176.214 113.737 176.214ZM125.321 188H123.897V178.842C123.897 178.08 123.921 177.359 123.967 176.68C123.844 176.803 123.707 176.932 123.554 177.066C123.402 177.201 122.705 177.772 121.463 178.78L120.689 177.778L124.09 175.15H125.321V188Z" fill="#646464"/>
</svg>
