<svg width="183" height="230" viewBox="0 0 183 230" fill="none" xmlns="http://www.w3.org/2000/svg">
<path d="M18.4 10.4102C18.4 12.4883 18.0016 14.2383 17.2047 15.6602C16.4156 17.082 15.2633 18.082 13.7477 18.6602L17.8492 23.0781H14.0758L10.8414 19.2344H10.3844C7.79846 19.2344 5.81018 18.4688 4.41956 16.9375C3.03674 15.3984 2.34534 13.2148 2.34534 10.3867C2.34534 7.55859 3.04065 5.38672 4.43127 3.87109C5.82971 2.35547 7.8219 1.59766 10.4078 1.59766C12.9547 1.59766 14.9235 2.36719 16.3141 3.90625C17.7047 5.44531 18.4 7.61328 18.4 10.4102ZM5.3219 10.4102C5.3219 12.5195 5.74768 14.1211 6.59924 15.2148C7.45081 16.3008 8.71252 16.8438 10.3844 16.8438C12.0485 16.8438 13.3024 16.3047 14.1461 15.2266C14.9977 14.1484 15.4235 12.543 15.4235 10.4102C15.4235 8.30859 15.0016 6.71484 14.1578 5.62891C13.3219 4.54297 12.0719 4 10.4078 4C8.72815 4 7.45862 4.54297 6.59924 5.62891C5.74768 6.71484 5.3219 8.30859 5.3219 10.4102ZM30.9274 19L30.5406 17.3008H30.4C30.0172 17.9023 29.4703 18.375 28.7594 18.7188C28.0563 19.0625 27.2516 19.2344 26.3453 19.2344C24.775 19.2344 23.6031 18.8438 22.8297 18.0625C22.0563 17.2812 21.6696 16.0977 21.6696 14.5117V6.03906H24.4469V14.0312C24.4469 15.0234 24.65 15.7695 25.0563 16.2695C25.4625 16.7617 26.0992 17.0078 26.9664 17.0078C28.1227 17.0078 28.9703 16.6641 29.5094 15.9766C30.0563 15.2812 30.3297 14.1211 30.3297 12.4961V6.03906H33.0953V19H30.9274ZM39.775 19H37.0211V6.03906H39.775V19ZM36.8571 2.60547C36.8571 2.11328 36.9899 1.73438 37.2555 1.46875C37.5289 1.20312 37.9156 1.07031 38.4156 1.07031C38.9 1.07031 39.275 1.20312 39.5406 1.46875C39.8141 1.73438 39.9508 2.11328 39.9508 2.60547C39.9508 3.07422 39.8141 3.44531 39.5406 3.71875C39.275 3.98438 38.9 4.11719 38.4156 4.11719C37.9156 4.11719 37.5289 3.98438 37.2555 3.71875C36.9899 3.44531 36.8571 3.07422 36.8571 2.60547ZM48.9508 19.2344C46.9899 19.2344 45.4977 18.6641 44.4742 17.5234C43.4586 16.375 42.9508 14.7305 42.9508 12.5898C42.9508 10.4102 43.4821 8.73438 44.5446 7.5625C45.6149 6.39062 47.1578 5.80469 49.1735 5.80469C50.5406 5.80469 51.7711 6.05859 52.8649 6.56641L52.0328 8.78125C50.8688 8.32812 49.9078 8.10156 49.15 8.10156C46.9078 8.10156 45.7867 9.58984 45.7867 12.5664C45.7867 14.0195 46.0641 15.1133 46.6188 15.8477C47.1813 16.5742 48.0016 16.9375 49.0797 16.9375C50.3063 16.9375 51.4664 16.6328 52.5602 16.0234V18.4258C52.068 18.7148 51.5406 18.9219 50.9781 19.0469C50.4235 19.1719 49.7477 19.2344 48.9508 19.2344ZM58.2672 12.1562L59.8258 10.2109L63.7399 6.03906H66.9156L61.7008 11.6055L67.2438 19H64.0094L59.8492 13.3164L58.3375 14.5586V19H55.6071V0.765625H58.3375V9.66016L58.1969 12.1562H58.2672ZM75.8688 19V1.86719H78.6696V16.5977H85.9235V19H75.8688ZM91.3375 19H88.5836V6.03906H91.3375V19ZM88.4196 2.60547C88.4196 2.11328 88.5524 1.73438 88.818 1.46875C89.0914 1.20312 89.4781 1.07031 89.9781 1.07031C90.4625 1.07031 90.8375 1.20312 91.1031 1.46875C91.3766 1.73438 91.5133 2.11328 91.5133 2.60547C91.5133 3.07422 91.3766 3.44531 91.1031 3.71875C90.8375 3.98438 90.4625 4.11719 89.9781 4.11719C89.4781 4.11719 89.0914 3.98438 88.818 3.71875C88.5524 3.44531 88.4196 3.07422 88.4196 2.60547ZM106.689 19H103.923V11.0312C103.923 10.0312 103.72 9.28516 103.314 8.79297C102.916 8.30078 102.279 8.05469 101.404 8.05469C100.24 8.05469 99.3883 8.39844 98.8492 9.08594C98.3102 9.77344 98.0406 10.9258 98.0406 12.543V19H95.2867V6.03906H97.443L97.8297 7.73828H97.9703C98.361 7.12109 98.9156 6.64453 99.6344 6.30859C100.353 5.97266 101.15 5.80469 102.025 5.80469C105.134 5.80469 106.689 7.38672 106.689 10.5508V19ZM113.181 12.1562L114.74 10.2109L118.654 6.03906H121.83L116.615 11.6055L122.158 19H118.923L114.763 13.3164L113.252 14.5586V19H110.521V0.765625H113.252V9.66016L113.111 12.1562H113.181ZM132.963 15.3086C132.963 16.5742 132.502 17.5469 131.58 18.2266C130.658 18.8984 129.338 19.2344 127.619 19.2344C125.892 19.2344 124.505 18.9727 123.459 18.4492V16.0703C124.982 16.7734 126.4 17.125 127.713 17.125C129.408 17.125 130.255 16.6133 130.255 15.5898C130.255 15.2617 130.162 14.9883 129.974 14.7695C129.787 14.5508 129.478 14.3242 129.048 14.0898C128.619 13.8555 128.021 13.5898 127.255 13.293C125.763 12.7148 124.752 12.1367 124.22 11.5586C123.697 10.9805 123.435 10.2305 123.435 9.30859C123.435 8.19922 123.88 7.33984 124.771 6.73047C125.67 6.11328 126.888 5.80469 128.427 5.80469C129.951 5.80469 131.392 6.11328 132.752 6.73047L131.861 8.80469C130.463 8.22656 129.287 7.9375 128.334 7.9375C126.88 7.9375 126.154 8.35156 126.154 9.17969C126.154 9.58594 126.341 9.92969 126.716 10.2109C127.099 10.4922 127.927 10.8789 129.201 11.3711C130.271 11.7852 131.048 12.1641 131.533 12.5078C132.017 12.8516 132.377 13.25 132.611 13.7031C132.845 14.1484 132.963 14.6836 132.963 15.3086Z" fill="#212121"/>
<path d="M10.7711 69L9.17151 64.9131H4.02112L2.43909 69H0.927368L6.00745 56.0977H7.26428L12.318 69H10.7711ZM8.70569 63.5684L7.21155 59.5869C7.01819 59.083 6.81897 58.4648 6.61389 57.7324C6.48499 58.2949 6.30042 58.9131 6.06018 59.5869L4.54846 63.5684H8.70569ZM18.3473 59.209C19.6129 59.209 20.5944 59.6426 21.2916 60.5098C21.9948 61.3711 22.3463 62.5928 22.3463 64.1748C22.3463 65.7568 21.9918 66.9873 21.2828 67.8662C20.5797 68.7393 19.6012 69.1758 18.3473 69.1758C17.7203 69.1758 17.1461 69.0615 16.6246 68.833C16.109 68.5986 15.6754 68.2412 15.3239 67.7607H15.2184L14.9108 69H13.8649V55.3242H15.3239V58.6465C15.3239 59.3906 15.3004 60.0586 15.2535 60.6504H15.3239C16.0035 59.6895 17.0114 59.209 18.3473 59.209ZM18.1364 60.4307C17.1403 60.4307 16.4225 60.7178 15.983 61.292C15.5436 61.8604 15.3239 62.8213 15.3239 64.1748C15.3239 65.5283 15.5494 66.498 16.0006 67.084C16.4518 67.6641 17.1754 67.9541 18.1715 67.9541C19.068 67.9541 19.736 67.6289 20.1754 66.9785C20.6149 66.3223 20.8346 65.3818 20.8346 64.1572C20.8346 62.9033 20.6149 61.9688 20.1754 61.3535C19.736 60.7383 19.0563 60.4307 18.1364 60.4307ZM33.2184 64.1748C33.2184 65.7451 32.8229 66.9727 32.0319 67.8574C31.2408 68.7363 30.1481 69.1758 28.7535 69.1758C27.8922 69.1758 27.1276 68.9736 26.4596 68.5693C25.7916 68.165 25.276 67.585 24.9127 66.8291C24.5494 66.0732 24.3678 65.1885 24.3678 64.1748C24.3678 62.6045 24.7604 61.3828 25.5455 60.5098C26.3307 59.6309 27.4205 59.1914 28.8151 59.1914C30.1627 59.1914 31.2321 59.6396 32.0231 60.5361C32.8199 61.4326 33.2184 62.6455 33.2184 64.1748ZM25.8795 64.1748C25.8795 65.4053 26.1256 66.3428 26.6178 66.9873C27.11 67.6318 27.8336 67.9541 28.7887 67.9541C29.7438 67.9541 30.4674 67.6348 30.9596 66.9961C31.4576 66.3516 31.7067 65.4111 31.7067 64.1748C31.7067 62.9502 31.4576 62.0215 30.9596 61.3887C30.4674 60.75 29.7379 60.4307 28.7711 60.4307C27.816 60.4307 27.0953 60.7441 26.609 61.3711C26.1227 61.998 25.8795 62.9326 25.8795 64.1748ZM37.1559 59.3672V65.6162C37.1559 66.4014 37.3346 66.9873 37.692 67.374C38.0494 67.7607 38.609 67.9541 39.3707 67.9541C40.3785 67.9541 41.1139 67.6787 41.5768 67.1279C42.0455 66.5771 42.2799 65.6777 42.2799 64.4297V59.3672H43.7389V69H42.5348L42.3239 67.708H42.2448C41.9459 68.1826 41.5299 68.5459 40.9967 68.7979C40.4694 69.0498 39.8658 69.1758 39.1862 69.1758C38.0143 69.1758 37.1354 68.8975 36.5494 68.3408C35.9694 67.7842 35.6793 66.8936 35.6793 65.6689V59.3672H37.1559ZM49.9528 67.9717C50.2106 67.9717 50.4596 67.9541 50.6998 67.9189C50.9401 67.8779 51.1305 67.8369 51.2711 67.7959V68.9121C51.1129 68.9883 50.8785 69.0498 50.568 69.0967C50.2633 69.1494 49.9879 69.1758 49.7418 69.1758C47.8785 69.1758 46.9469 68.1943 46.9469 66.2314V60.501H45.567V59.7979L46.9469 59.1914L47.5621 57.1348H48.4059V59.3672H51.2008V60.501H48.4059V66.1699C48.4059 66.75 48.5436 67.1953 48.819 67.5059C49.0944 67.8164 49.4723 67.9717 49.9528 67.9717ZM69.2535 62.5576C69.2535 64.6143 68.7321 66.2314 67.6891 67.4092C66.652 68.5869 65.2076 69.1758 63.3561 69.1758C61.4635 69.1758 60.0016 68.5986 58.9703 67.4443C57.9449 66.2842 57.4323 64.6494 57.4323 62.54C57.4323 60.4482 57.9479 58.8281 58.9791 57.6797C60.0104 56.5254 61.4752 55.9482 63.3737 55.9482C65.2194 55.9482 66.6608 56.5342 67.6979 57.7061C68.735 58.8779 69.2535 60.4951 69.2535 62.5576ZM59.0143 62.5576C59.0143 64.2979 59.3834 65.6191 60.1217 66.5215C60.8658 67.418 61.944 67.8662 63.3561 67.8662C64.7799 67.8662 65.8551 67.418 66.5817 66.5215C67.3082 65.625 67.6715 64.3037 67.6715 62.5576C67.6715 60.8291 67.3082 59.5195 66.5817 58.6289C65.861 57.7324 64.7916 57.2842 63.3737 57.2842C61.9498 57.2842 60.8658 57.7354 60.1217 58.6377C59.3834 59.5342 59.0143 60.8408 59.0143 62.5576ZM73.2789 59.3672V65.6162C73.2789 66.4014 73.4576 66.9873 73.8151 67.374C74.1725 67.7607 74.7321 67.9541 75.4938 67.9541C76.5016 67.9541 77.2369 67.6787 77.6998 67.1279C78.1686 66.5771 78.403 65.6777 78.403 64.4297V59.3672H79.8619V69H78.6578L78.4469 67.708H78.3678C78.069 68.1826 77.653 68.5459 77.1198 68.7979C76.5924 69.0498 75.9889 69.1758 75.3092 69.1758C74.1373 69.1758 73.2584 68.8975 72.6725 68.3408C72.0924 67.7842 71.8024 66.8936 71.8024 65.6689V59.3672H73.2789ZM87.359 59.1914C87.7867 59.1914 88.1705 59.2266 88.5104 59.2969L88.3082 60.6504C87.9098 60.5625 87.5582 60.5186 87.2535 60.5186C86.4742 60.5186 85.8063 60.835 85.2496 61.4678C84.6989 62.1006 84.4235 62.8887 84.4235 63.832V69H82.9645V59.3672H84.1686L84.3356 61.1514H84.4059C84.7633 60.5244 85.194 60.041 85.6979 59.7012C86.2018 59.3613 86.7555 59.1914 87.359 59.1914ZM100.71 57.3018C99.2975 57.3018 98.1813 57.7734 97.361 58.7168C96.5465 59.6543 96.1393 60.9404 96.1393 62.5752C96.1393 64.2568 96.5319 65.5576 97.317 66.4775C98.108 67.3916 99.233 67.8486 100.692 67.8486C101.589 67.8486 102.611 67.6875 103.759 67.3652V68.6748C102.869 69.0088 101.77 69.1758 100.464 69.1758C98.5709 69.1758 97.109 68.6016 96.0778 67.4531C95.0524 66.3047 94.5397 64.6729 94.5397 62.5576C94.5397 61.2334 94.7858 60.0732 95.278 59.0771C95.776 58.0811 96.4908 57.3135 97.4225 56.7744C98.36 56.2354 99.4615 55.9658 100.727 55.9658C102.075 55.9658 103.253 56.2119 104.26 56.7041L103.628 57.9873C102.655 57.5303 101.682 57.3018 100.71 57.3018ZM114.658 64.1748C114.658 65.7451 114.262 66.9727 113.471 67.8574C112.68 68.7363 111.588 69.1758 110.193 69.1758C109.332 69.1758 108.567 68.9736 107.899 68.5693C107.231 68.165 106.715 67.585 106.352 66.8291C105.989 66.0732 105.807 65.1885 105.807 64.1748C105.807 62.6045 106.2 61.3828 106.985 60.5098C107.77 59.6309 108.86 59.1914 110.255 59.1914C111.602 59.1914 112.672 59.6396 113.463 60.5361C114.259 61.4326 114.658 62.6455 114.658 64.1748ZM107.319 64.1748C107.319 65.4053 107.565 66.3428 108.057 66.9873C108.549 67.6318 109.273 67.9541 110.228 67.9541C111.183 67.9541 111.907 67.6348 112.399 66.9961C112.897 66.3516 113.146 65.4111 113.146 64.1748C113.146 62.9502 112.897 62.0215 112.399 61.3887C111.907 60.75 111.177 60.4307 110.211 60.4307C109.255 60.4307 108.535 60.7441 108.048 61.3711C107.562 61.998 107.319 62.9326 107.319 64.1748ZM129.503 69V62.7334C129.503 61.9658 129.339 61.3916 129.01 61.0107C128.682 60.624 128.172 60.4307 127.481 60.4307C126.573 60.4307 125.902 60.6914 125.468 61.2129C125.035 61.7344 124.818 62.5371 124.818 63.6211V69H123.359V62.7334C123.359 61.9658 123.195 61.3916 122.867 61.0107C122.539 60.624 122.026 60.4307 121.329 60.4307C120.415 60.4307 119.744 60.7061 119.316 61.2568C118.894 61.8018 118.683 62.6982 118.683 63.9463V69H117.224V59.3672H118.411L118.648 60.6855H118.718C118.994 60.2168 119.38 59.8506 119.879 59.5869C120.382 59.3232 120.945 59.1914 121.566 59.1914C123.072 59.1914 124.056 59.7363 124.519 60.8262H124.589C124.877 60.3223 125.293 59.9238 125.838 59.6309C126.382 59.3379 127.004 59.1914 127.701 59.1914C128.791 59.1914 129.605 59.4727 130.144 60.0352C130.689 60.5918 130.962 61.4854 130.962 62.7158V69H129.503ZM138.459 69.1758C137.832 69.1758 137.257 69.0615 136.736 68.833C136.22 68.5986 135.787 68.2412 135.435 67.7607H135.33C135.4 68.3232 135.435 68.8564 135.435 69.3604V73.3242H133.976V59.3672H135.163L135.365 60.6855H135.435C135.81 60.1582 136.247 59.7773 136.745 59.543C137.243 59.3086 137.814 59.1914 138.459 59.1914C139.736 59.1914 140.72 59.6279 141.412 60.501C142.109 61.374 142.458 62.5986 142.458 64.1748C142.458 65.7568 142.103 66.9873 141.394 67.8662C140.691 68.7393 139.713 69.1758 138.459 69.1758ZM138.248 60.4307C137.263 60.4307 136.551 60.7031 136.112 61.248C135.672 61.793 135.447 62.6602 135.435 63.8496V64.1748C135.435 65.5283 135.661 66.498 136.112 67.084C136.563 67.6641 137.287 67.9541 138.283 67.9541C139.115 67.9541 139.765 67.6172 140.234 66.9434C140.709 66.2695 140.946 65.3408 140.946 64.1572C140.946 62.9561 140.709 62.0361 140.234 61.3975C139.765 60.7529 139.103 60.4307 138.248 60.4307ZM150.939 69L150.649 67.6289H150.579C150.098 68.2324 149.618 68.6426 149.137 68.8594C148.663 69.0703 148.068 69.1758 147.353 69.1758C146.398 69.1758 145.648 68.9297 145.103 68.4375C144.564 67.9453 144.295 67.2451 144.295 66.3369C144.295 64.3916 145.85 63.3721 148.962 63.2783L150.596 63.2256V62.6279C150.596 61.8721 150.432 61.3154 150.104 60.958C149.782 60.5947 149.263 60.4131 148.548 60.4131C147.746 60.4131 146.838 60.6592 145.824 61.1514L145.376 60.0352C145.85 59.7773 146.369 59.5752 146.931 59.4287C147.5 59.2822 148.068 59.209 148.636 59.209C149.785 59.209 150.634 59.4639 151.185 59.9736C151.742 60.4834 152.02 61.3008 152.02 62.4258V69H150.939ZM147.643 67.9717C148.551 67.9717 149.263 67.7227 149.779 67.2246C150.3 66.7266 150.561 66.0293 150.561 65.1328V64.2627L149.102 64.3242C147.942 64.3652 147.104 64.5469 146.589 64.8691C146.079 65.1855 145.824 65.6807 145.824 66.3545C145.824 66.8818 145.982 67.2832 146.298 67.5586C146.621 67.834 147.069 67.9717 147.643 67.9717ZM161.627 69V62.7686C161.627 61.9834 161.448 61.3975 161.09 61.0107C160.733 60.624 160.173 60.4307 159.412 60.4307C158.404 60.4307 157.666 60.7031 157.197 61.248C156.728 61.793 156.494 62.6924 156.494 63.9463V69H155.035V59.3672H156.221L156.459 60.6855H156.529C156.828 60.2109 157.247 59.8447 157.786 59.5869C158.325 59.3232 158.925 59.1914 159.588 59.1914C160.748 59.1914 161.621 59.4727 162.207 60.0352C162.793 60.5918 163.086 61.4854 163.086 62.7158V69H161.627ZM164.562 59.3672H166.127L168.236 64.8604C168.699 66.1143 168.986 67.0195 169.097 67.5762H169.168C169.244 67.2773 169.402 66.7676 169.642 66.0469C169.888 65.3203 170.685 63.0938 172.033 59.3672H173.597L169.458 70.3359C169.047 71.4199 168.567 72.1875 168.016 72.6387C167.471 73.0957 166.8 73.3242 166.004 73.3242C165.558 73.3242 165.119 73.2744 164.685 73.1748V72.0059C165.007 72.0762 165.368 72.1113 165.766 72.1113C166.768 72.1113 167.483 71.5488 167.911 70.4238L168.447 69.0527L164.562 59.3672ZM9.94495 105.581C9.94495 106.712 9.53479 107.594 8.71448 108.227C7.89417 108.859 6.78088 109.176 5.37463 109.176C3.8512 109.176 2.67932 108.979 1.85901 108.587V107.146C2.38635 107.368 2.96057 107.544 3.58167 107.673C4.20276 107.802 4.81799 107.866 5.42737 107.866C6.42346 107.866 7.17346 107.679 7.67737 107.304C8.18127 106.923 8.43323 106.396 8.43323 105.722C8.43323 105.276 8.34241 104.913 8.16077 104.632C7.98499 104.345 7.68616 104.081 7.26428 103.841C6.84827 103.601 6.21252 103.328 5.35706 103.023C4.16174 102.596 3.30627 102.089 2.79065 101.503C2.28088 100.917 2.026 100.152 2.026 99.209C2.026 98.2188 2.39807 97.4307 3.14221 96.8447C3.88635 96.2588 4.87073 95.9658 6.09534 95.9658C7.37268 95.9658 8.54749 96.2002 9.61975 96.6689L9.15393 97.9697C8.09338 97.5244 7.06213 97.3018 6.06018 97.3018C5.26917 97.3018 4.651 97.4717 4.20569 97.8115C3.76038 98.1514 3.53772 98.623 3.53772 99.2266C3.53772 99.6719 3.61975 100.038 3.78381 100.325C3.94788 100.606 4.22327 100.867 4.60999 101.107C5.00256 101.342 5.60022 101.603 6.40295 101.89C7.75061 102.37 8.67639 102.886 9.1803 103.437C9.69006 103.987 9.94495 104.702 9.94495 105.581ZM16.4225 109.176C14.9987 109.176 13.8737 108.742 13.0475 107.875C12.2272 107.008 11.817 105.804 11.817 104.263C11.817 102.71 12.1979 101.477 12.9596 100.562C13.7272 99.6484 14.7555 99.1914 16.0446 99.1914C17.2516 99.1914 18.2067 99.5898 18.9098 100.387C19.6129 101.178 19.9645 102.224 19.9645 103.524V104.447H13.3287C13.358 105.578 13.6422 106.437 14.1813 107.022C14.7262 107.608 15.4908 107.901 16.4752 107.901C17.5123 107.901 18.5377 107.685 19.5514 107.251V108.552C19.0358 108.774 18.5465 108.933 18.0836 109.026C17.6266 109.126 17.0729 109.176 16.4225 109.176ZM16.027 100.413C15.2535 100.413 14.6354 100.665 14.1725 101.169C13.7155 101.673 13.4459 102.37 13.3639 103.261H18.4C18.4 102.341 18.1949 101.638 17.7848 101.151C17.3746 100.659 16.7887 100.413 16.027 100.413ZM26.8551 99.1914C27.2828 99.1914 27.6666 99.2266 28.0065 99.2969L27.8043 100.65C27.4059 100.562 27.0543 100.519 26.7496 100.519C25.9703 100.519 25.3024 100.835 24.7457 101.468C24.1949 102.101 23.9196 102.889 23.9196 103.832V109H22.4606V99.3672H23.6647L23.8317 101.151H23.902C24.2594 100.524 24.6901 100.041 25.194 99.7012C25.6979 99.3613 26.2516 99.1914 26.8551 99.1914ZM31.9176 109L28.2614 99.3672H29.8258L31.9 105.08C32.3688 106.416 32.6442 107.283 32.7262 107.682H32.7965C32.861 107.371 33.0631 106.729 33.403 105.757C33.7487 104.778 34.5192 102.648 35.7145 99.3672H37.2789L33.6227 109H31.9176ZM40.2848 109H38.8258V99.3672H40.2848V109ZM38.7028 96.7568C38.7028 96.4229 38.7848 96.1797 38.9489 96.0273C39.1129 95.8691 39.318 95.79 39.5641 95.79C39.7985 95.79 40.0006 95.8691 40.1705 96.0273C40.3405 96.1855 40.4254 96.4287 40.4254 96.7568C40.4254 97.085 40.3405 97.3311 40.1705 97.4951C40.0006 97.6533 39.7985 97.7324 39.5641 97.7324C39.318 97.7324 39.1129 97.6533 38.9489 97.4951C38.7848 97.3311 38.7028 97.085 38.7028 96.7568ZM47.2281 109.176C45.8336 109.176 44.7526 108.748 43.985 107.893C43.2233 107.031 42.8424 105.815 42.8424 104.245C42.8424 102.634 43.2291 101.389 44.0026 100.51C44.7819 99.6309 45.8893 99.1914 47.3248 99.1914C47.7877 99.1914 48.2506 99.2412 48.7135 99.3408C49.1764 99.4404 49.5397 99.5576 49.8033 99.6924L49.3551 100.932C49.0328 100.803 48.6813 100.697 48.3004 100.615C47.9196 100.527 47.5826 100.483 47.2897 100.483C45.3326 100.483 44.3541 101.731 44.3541 104.228C44.3541 105.411 44.5914 106.319 45.066 106.952C45.5465 107.585 46.2555 107.901 47.193 107.901C47.9957 107.901 48.819 107.729 49.6627 107.383V108.675C49.0182 109.009 48.2067 109.176 47.2281 109.176ZM56.026 109.176C54.6022 109.176 53.4772 108.742 52.651 107.875C51.8307 107.008 51.4205 105.804 51.4205 104.263C51.4205 102.71 51.8014 101.477 52.5631 100.562C53.3307 99.6484 54.359 99.1914 55.6481 99.1914C56.8551 99.1914 57.8102 99.5898 58.5133 100.387C59.2164 101.178 59.568 102.224 59.568 103.524V104.447H52.9323C52.9615 105.578 53.2457 106.437 53.7848 107.022C54.3297 107.608 55.0944 107.901 56.0787 107.901C57.1158 107.901 58.1412 107.685 59.1549 107.251V108.552C58.6393 108.774 58.15 108.933 57.6871 109.026C57.2301 109.126 56.6764 109.176 56.026 109.176ZM55.6305 100.413C54.8571 100.413 54.2389 100.665 53.776 101.169C53.319 101.673 53.0494 102.37 52.9674 103.261H58.0035C58.0035 102.341 57.7985 101.638 57.3883 101.151C56.9781 100.659 56.3922 100.413 55.6305 100.413ZM68.278 106.372C68.278 107.269 67.944 107.96 67.276 108.446C66.608 108.933 65.6705 109.176 64.4635 109.176C63.1862 109.176 62.1901 108.974 61.4752 108.569V107.216C61.9381 107.45 62.4332 107.635 62.9606 107.77C63.4938 107.904 64.0065 107.972 64.4987 107.972C65.2604 107.972 65.8463 107.852 66.2565 107.611C66.6666 107.365 66.8717 106.993 66.8717 106.495C66.8717 106.12 66.7076 105.801 66.3795 105.537C66.0573 105.268 65.4244 104.951 64.4811 104.588C63.5846 104.254 62.9459 103.964 62.5651 103.718C62.1901 103.466 61.9088 103.182 61.7213 102.865C61.5397 102.549 61.4489 102.171 61.4489 101.731C61.4489 100.946 61.7682 100.328 62.4069 99.877C63.0455 99.4199 63.9215 99.1914 65.0348 99.1914C66.0719 99.1914 67.0856 99.4023 68.0758 99.8242L67.5573 101.011C66.5905 100.612 65.7145 100.413 64.9293 100.413C64.2379 100.413 63.7164 100.521 63.3649 100.738C63.0133 100.955 62.8375 101.254 62.8375 101.635C62.8375 101.893 62.902 102.112 63.0309 102.294C63.1656 102.476 63.3795 102.648 63.6725 102.812C63.9655 102.977 64.528 103.214 65.36 103.524C66.5026 103.94 67.2731 104.359 67.6715 104.781C68.0758 105.203 68.278 105.733 68.278 106.372ZM86.7701 109H85.2936L82.7008 100.396C82.5778 100.015 82.4401 99.5342 82.2877 98.9541C82.1354 98.374 82.0563 98.0254 82.0504 97.9082C81.9215 98.6816 81.7164 99.5283 81.4352 100.448L78.9215 109H77.4449L74.026 96.1504H75.608L77.6383 104.087C77.9196 105.2 78.1246 106.208 78.2535 107.11C78.4117 106.038 78.6461 104.989 78.9567 103.964L81.2594 96.1504H82.8414L85.2584 104.034C85.5397 104.942 85.777 105.968 85.9703 107.11C86.0817 106.278 86.2926 105.265 86.6031 104.069L88.6246 96.1504H90.2067L86.7701 109ZM99.3824 109H92.2194V96.1504H99.3824V97.4775H93.7135V101.617H99.0397V102.936H93.7135V107.664H99.3824V109ZM111.177 109.176C110.55 109.176 109.976 109.062 109.455 108.833C108.939 108.599 108.505 108.241 108.154 107.761H108.048C108.119 108.323 108.154 108.856 108.154 109.36V113.324H106.695V99.3672H107.881L108.084 100.686H108.154C108.529 100.158 108.965 99.7773 109.464 99.543C109.962 99.3086 110.533 99.1914 111.177 99.1914C112.455 99.1914 113.439 99.6279 114.13 100.501C114.828 101.374 115.176 102.599 115.176 104.175C115.176 105.757 114.822 106.987 114.113 107.866C113.41 108.739 112.431 109.176 111.177 109.176ZM110.966 100.431C109.982 100.431 109.27 100.703 108.831 101.248C108.391 101.793 108.166 102.66 108.154 103.85V104.175C108.154 105.528 108.38 106.498 108.831 107.084C109.282 107.664 110.005 107.954 111.002 107.954C111.834 107.954 112.484 107.617 112.953 106.943C113.427 106.27 113.665 105.341 113.665 104.157C113.665 102.956 113.427 102.036 112.953 101.397C112.484 100.753 111.822 100.431 110.966 100.431ZM122.129 99.1914C122.556 99.1914 122.94 99.2266 123.28 99.2969L123.078 100.65C122.679 100.562 122.328 100.519 122.023 100.519C121.244 100.519 120.576 100.835 120.019 101.468C119.468 102.101 119.193 102.889 119.193 103.832V109H117.734V99.3672H118.938L119.105 101.151H119.175C119.533 100.524 119.964 100.041 120.467 99.7012C120.971 99.3613 121.525 99.1914 122.129 99.1914ZM133.396 104.175C133.396 105.745 133.001 106.973 132.21 107.857C131.419 108.736 130.326 109.176 128.931 109.176C128.07 109.176 127.305 108.974 126.637 108.569C125.969 108.165 125.454 107.585 125.09 106.829C124.727 106.073 124.546 105.188 124.546 104.175C124.546 102.604 124.938 101.383 125.723 100.51C126.508 99.6309 127.598 99.1914 128.993 99.1914C130.34 99.1914 131.41 99.6396 132.201 100.536C132.998 101.433 133.396 102.646 133.396 104.175ZM126.057 104.175C126.057 105.405 126.303 106.343 126.796 106.987C127.288 107.632 128.011 107.954 128.966 107.954C129.922 107.954 130.645 107.635 131.137 106.996C131.635 106.352 131.884 105.411 131.884 104.175C131.884 102.95 131.635 102.021 131.137 101.389C130.645 100.75 129.916 100.431 128.949 100.431C127.994 100.431 127.273 100.744 126.787 101.371C126.3 101.998 126.057 102.933 126.057 104.175ZM138.072 109L134.416 99.3672H135.98L138.054 105.08C138.523 106.416 138.798 107.283 138.88 107.682H138.951C139.015 107.371 139.217 106.729 139.557 105.757C139.903 104.778 140.673 102.648 141.869 99.3672H143.433L139.777 109H138.072ZM146.439 109H144.98V99.3672H146.439V109ZM144.857 96.7568C144.857 96.4229 144.939 96.1797 145.103 96.0273C145.267 95.8691 145.472 95.79 145.718 95.79C145.953 95.79 146.155 95.8691 146.325 96.0273C146.495 96.1855 146.58 96.4287 146.58 96.7568C146.58 97.085 146.495 97.3311 146.325 97.4951C146.155 97.6533 145.953 97.7324 145.718 97.7324C145.472 97.7324 145.267 97.6533 145.103 97.4951C144.939 97.3311 144.857 97.085 144.857 96.7568ZM156.089 107.708H156.01C155.337 108.687 154.329 109.176 152.987 109.176C151.727 109.176 150.746 108.745 150.043 107.884C149.345 107.022 148.997 105.798 148.997 104.21C148.997 102.622 149.348 101.389 150.051 100.51C150.755 99.6309 151.733 99.1914 152.987 99.1914C154.294 99.1914 155.296 99.666 155.993 100.615H156.107L156.046 99.9209L156.01 99.2441V95.3242H157.469V109H156.283L156.089 107.708ZM153.172 107.954C154.168 107.954 154.888 107.685 155.334 107.146C155.785 106.601 156.01 105.725 156.01 104.518V104.21C156.01 102.845 155.782 101.872 155.325 101.292C154.874 100.706 154.15 100.413 153.154 100.413C152.298 100.413 151.642 100.747 151.185 101.415C150.734 102.077 150.508 103.015 150.508 104.228C150.508 105.458 150.734 106.387 151.185 107.014C151.636 107.641 152.298 107.954 153.172 107.954ZM164.641 109.176C163.217 109.176 162.092 108.742 161.266 107.875C160.446 107.008 160.036 105.804 160.036 104.263C160.036 102.71 160.417 101.477 161.178 100.562C161.946 99.6484 162.974 99.1914 164.263 99.1914C165.47 99.1914 166.425 99.5898 167.129 100.387C167.832 101.178 168.183 102.224 168.183 103.524V104.447H161.547C161.577 105.578 161.861 106.437 162.4 107.022C162.945 107.608 163.71 107.901 164.694 107.901C165.731 107.901 166.756 107.685 167.77 107.251V108.552C167.255 108.774 166.765 108.933 166.302 109.026C165.845 109.126 165.292 109.176 164.641 109.176ZM164.246 100.413C163.472 100.413 162.854 100.665 162.391 101.169C161.934 101.673 161.665 102.37 161.583 103.261H166.619C166.619 102.341 166.414 101.638 166.004 101.151C165.593 100.659 165.007 100.413 164.246 100.413ZM8.19592 137.302C6.78381 137.302 5.6676 137.773 4.84729 138.717C4.03284 139.654 3.62561 140.94 3.62561 142.575C3.62561 144.257 4.01819 145.558 4.80334 146.478C5.59436 147.392 6.71936 147.849 8.17834 147.849C9.07483 147.849 10.0973 147.688 11.2457 147.365V148.675C10.3551 149.009 9.25647 149.176 7.94983 149.176C6.05725 149.176 4.59534 148.602 3.56409 147.453C2.5387 146.305 2.026 144.673 2.026 142.558C2.026 141.233 2.27209 140.073 2.76428 139.077C3.26233 138.081 3.97717 137.313 4.90881 136.774C5.84631 136.235 6.94788 135.966 8.2135 135.966C9.56116 135.966 10.7389 136.212 11.7467 136.704L11.1139 137.987C10.1412 137.53 9.16858 137.302 8.19592 137.302ZM19.7535 149L19.4635 147.629H19.3932C18.9127 148.232 18.4323 148.643 17.9518 148.859C17.4772 149.07 16.8824 149.176 16.1676 149.176C15.2125 149.176 14.4625 148.93 13.9176 148.438C13.3785 147.945 13.109 147.245 13.109 146.337C13.109 144.392 14.6647 143.372 17.776 143.278L19.4108 143.226V142.628C19.4108 141.872 19.2467 141.315 18.9186 140.958C18.5963 140.595 18.0778 140.413 17.3629 140.413C16.5602 140.413 15.652 140.659 14.6383 141.151L14.1901 140.035C14.6647 139.777 15.1832 139.575 15.7457 139.429C16.3141 139.282 16.8824 139.209 17.4508 139.209C18.5992 139.209 19.4489 139.464 19.9996 139.974C20.5563 140.483 20.8346 141.301 20.8346 142.426V149H19.7535ZM16.4576 147.972C17.3658 147.972 18.0778 147.723 18.5934 147.225C19.1149 146.727 19.3756 146.029 19.3756 145.133V144.263L17.9166 144.324C16.7565 144.365 15.9186 144.547 15.403 144.869C14.8932 145.186 14.6383 145.681 14.6383 146.354C14.6383 146.882 14.7965 147.283 15.1129 147.559C15.4352 147.834 15.8834 147.972 16.4576 147.972ZM28.2438 139.191C28.6715 139.191 29.0553 139.227 29.3951 139.297L29.193 140.65C28.7946 140.562 28.443 140.519 28.1383 140.519C27.359 140.519 26.691 140.835 26.1344 141.468C25.5836 142.101 25.3082 142.889 25.3082 143.832V149H23.8492V139.367H25.0533L25.2203 141.151H25.2906C25.6481 140.524 26.0787 140.041 26.5826 139.701C27.0865 139.361 27.6403 139.191 28.2438 139.191ZM35.2662 149.176C33.8424 149.176 32.7174 148.742 31.8912 147.875C31.0709 147.008 30.6608 145.804 30.6608 144.263C30.6608 142.71 31.0416 141.477 31.8033 140.562C32.5709 139.648 33.5992 139.191 34.8883 139.191C36.0953 139.191 37.0504 139.59 37.7535 140.387C38.4567 141.178 38.8082 142.224 38.8082 143.524V144.447H32.1725C32.2018 145.578 32.486 146.437 33.025 147.022C33.5699 147.608 34.3346 147.901 35.319 147.901C36.3561 147.901 37.3815 147.685 38.3951 147.251V148.552C37.8795 148.774 37.3903 148.933 36.9274 149.026C36.4703 149.126 35.9166 149.176 35.2662 149.176ZM34.8707 140.413C34.0973 140.413 33.4791 140.665 33.0162 141.169C32.5592 141.673 32.2897 142.37 32.2076 143.261H37.2438C37.2438 142.341 37.0387 141.638 36.6285 141.151C36.2184 140.659 35.6324 140.413 34.8707 140.413ZM45.3737 149.176C43.9498 149.176 42.8248 148.742 41.9987 147.875C41.1783 147.008 40.7682 145.804 40.7682 144.263C40.7682 142.71 41.149 141.477 41.9108 140.562C42.6783 139.648 43.7067 139.191 44.9957 139.191C46.2028 139.191 47.1578 139.59 47.861 140.387C48.5641 141.178 48.9156 142.224 48.9156 143.524V144.447H42.2799C42.3092 145.578 42.5934 146.437 43.1324 147.022C43.6774 147.608 44.442 147.901 45.4264 147.901C46.4635 147.901 47.4889 147.685 48.5026 147.251V148.552C47.9869 148.774 47.4977 148.933 47.0348 149.026C46.5778 149.126 46.024 149.176 45.3737 149.176ZM44.9781 140.413C44.2047 140.413 43.5865 140.665 43.1237 141.169C42.6666 141.673 42.3971 142.37 42.3151 143.261H47.3512C47.3512 142.341 47.1461 141.638 46.736 141.151C46.3258 140.659 45.7399 140.413 44.9781 140.413ZM55.8063 139.191C56.234 139.191 56.6178 139.227 56.9576 139.297L56.7555 140.65C56.3571 140.562 56.0055 140.519 55.7008 140.519C54.9215 140.519 54.2535 140.835 53.6969 141.468C53.1461 142.101 52.8707 142.889 52.8707 143.832V149H51.4117V139.367H52.6158L52.7828 141.151H52.8531C53.2106 140.524 53.6412 140.041 54.1451 139.701C54.649 139.361 55.2028 139.191 55.8063 139.191ZM65.527 138.708C65.527 139.112 65.6324 139.499 65.8434 139.868C66.0543 140.231 66.4147 140.671 66.9244 141.187C67.6803 140.747 68.2047 140.343 68.4977 139.974C68.7965 139.599 68.9459 139.168 68.9459 138.682C68.9459 138.23 68.7936 137.864 68.4889 137.583C68.1901 137.296 67.7887 137.152 67.2848 137.152C66.7633 137.152 66.3385 137.293 66.0104 137.574C65.6881 137.855 65.527 138.233 65.527 138.708ZM66.8893 147.866C68.3014 147.866 69.4733 147.415 70.4049 146.513L66.5641 142.786C65.9137 143.185 65.4537 143.516 65.1842 143.779C64.9147 144.037 64.7155 144.315 64.5865 144.614C64.4576 144.913 64.3932 145.253 64.3932 145.634C64.3932 146.319 64.6188 146.864 65.0699 147.269C65.527 147.667 66.1334 147.866 66.8893 147.866ZM62.8815 145.669C62.8815 144.907 63.0836 144.233 63.4879 143.647C63.8981 143.062 64.6305 142.47 65.6852 141.872C65.1871 141.315 64.8473 140.894 64.6656 140.606C64.4899 140.319 64.3492 140.021 64.2438 139.71C64.1383 139.399 64.0856 139.077 64.0856 138.743C64.0856 137.864 64.3727 137.179 64.9469 136.687C65.5211 136.194 66.3209 135.948 67.3463 135.948C68.2955 135.948 69.0426 136.194 69.5875 136.687C70.1324 137.173 70.4049 137.853 70.4049 138.726C70.4049 139.353 70.2057 139.933 69.8073 140.466C69.4088 140.993 68.7496 141.529 67.8297 142.074L71.4069 145.511C71.735 145.147 71.9957 144.723 72.1891 144.236C72.3883 143.744 72.5553 143.208 72.6901 142.628H74.1666C73.7682 144.304 73.1676 145.575 72.3649 146.442L74.9928 149H72.9801L71.3541 147.436C70.6627 148.057 69.9596 148.502 69.2448 148.771C68.5299 149.041 67.733 149.176 66.8541 149.176C65.5944 149.176 64.6158 148.865 63.9186 148.244C63.2272 147.623 62.8815 146.765 62.8815 145.669ZM92.6324 142.558C92.6324 144.614 92.111 146.231 91.068 147.409C90.0309 148.587 88.5865 149.176 86.735 149.176C84.8424 149.176 83.3805 148.599 82.3492 147.444C81.3239 146.284 80.8112 144.649 80.8112 142.54C80.8112 140.448 81.3268 138.828 82.358 137.68C83.3893 136.525 84.8541 135.948 86.7526 135.948C88.5983 135.948 90.0397 136.534 91.0768 137.706C92.1139 138.878 92.6324 140.495 92.6324 142.558ZM82.3932 142.558C82.3932 144.298 82.7623 145.619 83.5006 146.521C84.2448 147.418 85.3229 147.866 86.735 147.866C88.1588 147.866 89.234 147.418 89.9606 146.521C90.6871 145.625 91.0504 144.304 91.0504 142.558C91.0504 140.829 90.6871 139.52 89.9606 138.629C89.2399 137.732 88.1705 137.284 86.7526 137.284C85.3287 137.284 84.2448 137.735 83.5006 138.638C82.7623 139.534 82.3932 140.841 82.3932 142.558ZM99.7692 149.176C99.1422 149.176 98.568 149.062 98.0465 148.833C97.5309 148.599 97.0973 148.241 96.7457 147.761H96.6403C96.7106 148.323 96.7457 148.856 96.7457 149.36V153.324H95.2867V139.367H96.4733L96.6754 140.686H96.7457C97.1207 140.158 97.5573 139.777 98.0553 139.543C98.5533 139.309 99.1246 139.191 99.7692 139.191C101.047 139.191 102.031 139.628 102.722 140.501C103.42 141.374 103.768 142.599 103.768 144.175C103.768 145.757 103.414 146.987 102.705 147.866C102.002 148.739 101.023 149.176 99.7692 149.176ZM99.5582 140.431C98.5739 140.431 97.8619 140.703 97.4225 141.248C96.983 141.793 96.7574 142.66 96.7457 143.85V144.175C96.7457 145.528 96.9713 146.498 97.4225 147.084C97.8737 147.664 98.5973 147.954 99.5934 147.954C100.425 147.954 101.076 147.617 101.545 146.943C102.019 146.27 102.256 145.341 102.256 144.157C102.256 142.956 102.019 142.036 101.545 141.397C101.076 140.753 100.414 140.431 99.5582 140.431ZM110.808 149.176C110.181 149.176 109.607 149.062 109.086 148.833C108.57 148.599 108.136 148.241 107.785 147.761H107.679C107.75 148.323 107.785 148.856 107.785 149.36V153.324H106.326V139.367H107.512L107.714 140.686H107.785C108.16 140.158 108.596 139.777 109.094 139.543C109.592 139.309 110.164 139.191 110.808 139.191C112.086 139.191 113.07 139.628 113.761 140.501C114.459 141.374 114.807 142.599 114.807 144.175C114.807 145.757 114.453 146.987 113.744 147.866C113.041 148.739 112.062 149.176 110.808 149.176ZM110.597 140.431C109.613 140.431 108.901 140.703 108.462 141.248C108.022 141.793 107.797 142.66 107.785 143.85V144.175C107.785 145.528 108.01 146.498 108.462 147.084C108.913 147.664 109.636 147.954 110.632 147.954C111.464 147.954 112.115 147.617 112.584 146.943C113.058 146.27 113.296 145.341 113.296 144.157C113.296 142.956 113.058 142.036 112.584 141.397C112.115 140.753 111.453 140.431 110.597 140.431ZM125.679 144.175C125.679 145.745 125.284 146.973 124.493 147.857C123.702 148.736 122.609 149.176 121.214 149.176C120.353 149.176 119.589 148.974 118.921 148.569C118.253 148.165 117.737 147.585 117.374 146.829C117.01 146.073 116.829 145.188 116.829 144.175C116.829 142.604 117.221 141.383 118.006 140.51C118.792 139.631 119.881 139.191 121.276 139.191C122.624 139.191 123.693 139.64 124.484 140.536C125.281 141.433 125.679 142.646 125.679 144.175ZM118.34 144.175C118.34 145.405 118.587 146.343 119.079 146.987C119.571 147.632 120.295 147.954 121.25 147.954C122.205 147.954 122.928 147.635 123.421 146.996C123.919 146.352 124.168 145.411 124.168 144.175C124.168 142.95 123.919 142.021 123.421 141.389C122.928 140.75 122.199 140.431 121.232 140.431C120.277 140.431 119.556 140.744 119.07 141.371C118.584 141.998 118.34 142.933 118.34 144.175ZM132.64 139.191C133.068 139.191 133.452 139.227 133.792 139.297L133.589 140.65C133.191 140.562 132.839 140.519 132.535 140.519C131.755 140.519 131.088 140.835 130.531 141.468C129.98 142.101 129.705 142.889 129.705 143.832V149H128.246V139.367H129.45L129.617 141.151H129.687C130.045 140.524 130.475 140.041 130.979 139.701C131.483 139.361 132.037 139.191 132.64 139.191ZM138.705 147.972C138.963 147.972 139.212 147.954 139.452 147.919C139.692 147.878 139.882 147.837 140.023 147.796V148.912C139.865 148.988 139.63 149.05 139.32 149.097C139.015 149.149 138.74 149.176 138.494 149.176C136.63 149.176 135.699 148.194 135.699 146.231V140.501H134.319V139.798L135.699 139.191L136.314 137.135H137.158V139.367H139.953V140.501H137.158V146.17C137.158 146.75 137.296 147.195 137.571 147.506C137.846 147.816 138.224 147.972 138.705 147.972ZM143.328 139.367V145.616C143.328 146.401 143.506 146.987 143.864 147.374C144.221 147.761 144.781 147.954 145.543 147.954C146.55 147.954 147.286 147.679 147.749 147.128C148.217 146.577 148.452 145.678 148.452 144.43V139.367H149.911V149H148.707L148.496 147.708H148.417C148.118 148.183 147.702 148.546 147.169 148.798C146.641 149.05 146.038 149.176 145.358 149.176C144.186 149.176 143.307 148.897 142.721 148.341C142.141 147.784 141.851 146.894 141.851 145.669V139.367H143.328ZM159.605 149V142.769C159.605 141.983 159.426 141.397 159.069 141.011C158.712 140.624 158.152 140.431 157.39 140.431C156.382 140.431 155.644 140.703 155.175 141.248C154.707 141.793 154.472 142.692 154.472 143.946V149H153.013V139.367H154.2L154.437 140.686H154.507C154.806 140.211 155.225 139.845 155.764 139.587C156.303 139.323 156.904 139.191 157.566 139.191C158.726 139.191 159.599 139.473 160.185 140.035C160.771 140.592 161.064 141.485 161.064 142.716V149H159.605ZM165.529 149H164.07V139.367H165.529V149ZM163.947 136.757C163.947 136.423 164.029 136.18 164.193 136.027C164.357 135.869 164.562 135.79 164.808 135.79C165.043 135.79 165.245 135.869 165.415 136.027C165.585 136.186 165.67 136.429 165.67 136.757C165.67 137.085 165.585 137.331 165.415 137.495C165.245 137.653 165.043 137.732 164.808 137.732C164.562 137.732 164.357 137.653 164.193 137.495C164.029 137.331 163.947 137.085 163.947 136.757ZM171.734 147.972C171.992 147.972 172.241 147.954 172.481 147.919C172.721 147.878 172.912 147.837 173.052 147.796V148.912C172.894 148.988 172.66 149.05 172.349 149.097C172.045 149.149 171.769 149.176 171.523 149.176C169.66 149.176 168.728 148.194 168.728 146.231V140.501H167.348V139.798L168.728 139.191L169.343 137.135H170.187V139.367H172.982V140.501H170.187V146.17C170.187 146.75 170.325 147.195 170.6 147.506C170.876 147.816 171.254 147.972 171.734 147.972ZM173.457 139.367H175.021L177.13 144.86C177.593 146.114 177.88 147.02 177.992 147.576H178.062C178.138 147.277 178.297 146.768 178.537 146.047C178.783 145.32 179.58 143.094 180.927 139.367H182.492L178.352 150.336C177.942 151.42 177.462 152.188 176.911 152.639C176.366 153.096 175.695 153.324 174.898 153.324C174.453 153.324 174.013 153.274 173.58 153.175V152.006C173.902 152.076 174.262 152.111 174.661 152.111C175.663 152.111 176.378 151.549 176.805 150.424L177.341 149.053L173.457 139.367ZM10.8414 179.895C10.8414 181.195 10.3961 182.197 9.50549 182.9C8.62073 183.598 7.35217 183.946 5.69983 183.946H4.18811V189H2.69397V176.15H6.02502C9.23596 176.15 10.8414 177.398 10.8414 179.895ZM4.18811 182.663H5.53284C6.85706 182.663 7.81506 182.449 8.40686 182.021C8.99866 181.594 9.29456 180.908 9.29456 179.965C9.29456 179.115 9.01624 178.482 8.45959 178.066C7.90295 177.65 7.03577 177.442 5.85803 177.442H4.18811V182.663ZM17.7145 179.191C18.1422 179.191 18.526 179.227 18.8658 179.297L18.6637 180.65C18.2653 180.562 17.9137 180.519 17.609 180.519C16.8297 180.519 16.1617 180.835 15.6051 181.468C15.0543 182.101 14.7789 182.889 14.7789 183.832V189H13.3199V179.367H14.524L14.691 181.151H14.7614C15.1188 180.524 15.5494 180.041 16.0533 179.701C16.5573 179.361 17.111 179.191 17.7145 179.191ZM22.1266 189H20.6676V179.367H22.1266V189ZM20.5446 176.757C20.5446 176.423 20.6266 176.18 20.7906 176.027C20.9547 175.869 21.1598 175.79 21.4059 175.79C21.6403 175.79 21.8424 175.869 22.0123 176.027C22.1823 176.186 22.2672 176.429 22.2672 176.757C22.2672 177.085 22.1823 177.331 22.0123 177.495C21.8424 177.653 21.6403 177.732 21.4059 177.732C21.1598 177.732 20.9547 177.653 20.7906 177.495C20.6266 177.331 20.5446 177.085 20.5446 176.757ZM27.3297 189L23.6735 179.367H25.2379L27.3121 185.08C27.7809 186.416 28.0563 187.283 28.1383 187.682H28.2086C28.2731 187.371 28.4752 186.729 28.8151 185.757C29.1608 184.778 29.9313 182.648 31.1266 179.367H32.691L29.0348 189H27.3297ZM40.1617 189L39.8717 187.629H39.8014C39.3209 188.232 38.8405 188.643 38.36 188.859C37.8854 189.07 37.2906 189.176 36.5758 189.176C35.6207 189.176 34.8707 188.93 34.3258 188.438C33.7867 187.945 33.5172 187.245 33.5172 186.337C33.5172 184.392 35.0729 183.372 38.1842 183.278L39.819 183.226V182.628C39.819 181.872 39.6549 181.315 39.3268 180.958C39.0045 180.595 38.486 180.413 37.7711 180.413C36.9684 180.413 36.0602 180.659 35.0465 181.151L34.5983 180.035C35.0729 179.777 35.5914 179.575 36.1539 179.429C36.7223 179.282 37.2906 179.209 37.859 179.209C39.0074 179.209 39.8571 179.464 40.4078 179.974C40.9645 180.483 41.2428 181.301 41.2428 182.426V189H40.1617ZM36.8658 187.972C37.774 187.972 38.486 187.723 39.0016 187.225C39.5231 186.727 39.7838 186.029 39.7838 185.133V184.263L38.3248 184.324C37.1647 184.365 36.3268 184.547 35.8112 184.869C35.3014 185.186 35.0465 185.681 35.0465 186.354C35.0465 186.882 35.2047 187.283 35.5211 187.559C35.8434 187.834 36.2916 187.972 36.8658 187.972ZM48.1071 189.176C46.7125 189.176 45.6315 188.748 44.8639 187.893C44.1022 187.031 43.7213 185.815 43.7213 184.245C43.7213 182.634 44.108 181.389 44.8815 180.51C45.6608 179.631 46.7682 179.191 48.2037 179.191C48.6666 179.191 49.1295 179.241 49.5924 179.341C50.0553 179.44 50.4186 179.558 50.6823 179.692L50.234 180.932C49.9117 180.803 49.5602 180.697 49.1793 180.615C48.7985 180.527 48.4615 180.483 48.1686 180.483C46.2115 180.483 45.233 181.731 45.233 184.228C45.233 185.411 45.4703 186.319 45.9449 186.952C46.4254 187.585 47.1344 187.901 48.0719 187.901C48.8746 187.901 49.6979 187.729 50.5416 187.383V188.675C49.8971 189.009 49.0856 189.176 48.1071 189.176ZM51.3063 179.367H52.8707L54.9801 184.86C55.443 186.114 55.7301 187.02 55.8414 187.576H55.9117C55.9879 187.277 56.1461 186.768 56.3864 186.047C56.6324 185.32 57.4293 183.094 58.777 179.367H60.3414L56.2018 190.336C55.7916 191.42 55.3112 192.188 54.7604 192.639C54.2155 193.096 53.5446 193.324 52.7477 193.324C52.3024 193.324 51.8629 193.274 51.4293 193.175V192.006C51.7516 192.076 52.1119 192.111 52.5104 192.111C53.5123 192.111 54.2272 191.549 54.6549 190.424L55.191 189.053L51.3063 179.367ZM68.6735 178.708C68.6735 179.112 68.7789 179.499 68.9899 179.868C69.2008 180.231 69.5612 180.671 70.0709 181.187C70.8268 180.747 71.3512 180.343 71.6442 179.974C71.943 179.599 72.0924 179.168 72.0924 178.682C72.0924 178.23 71.9401 177.864 71.6354 177.583C71.3365 177.296 70.9352 177.152 70.4313 177.152C69.9098 177.152 69.485 177.293 69.1569 177.574C68.8346 177.855 68.6735 178.233 68.6735 178.708ZM70.0358 187.866C71.4479 187.866 72.6198 187.415 73.5514 186.513L69.7106 182.786C69.0602 183.185 68.6002 183.516 68.3307 183.779C68.0612 184.037 67.8619 184.315 67.733 184.614C67.6041 184.913 67.5397 185.253 67.5397 185.634C67.5397 186.319 67.7653 186.864 68.2164 187.269C68.6735 187.667 69.2799 187.866 70.0358 187.866ZM66.028 185.669C66.028 184.907 66.2301 184.233 66.6344 183.647C67.0446 183.062 67.777 182.47 68.8317 181.872C68.3336 181.315 67.9938 180.894 67.8121 180.606C67.6364 180.319 67.4957 180.021 67.3903 179.71C67.2848 179.399 67.2321 179.077 67.2321 178.743C67.2321 177.864 67.5192 177.179 68.0934 176.687C68.6676 176.194 69.4674 175.948 70.4928 175.948C71.442 175.948 72.1891 176.194 72.734 176.687C73.2789 177.173 73.5514 177.853 73.5514 178.726C73.5514 179.353 73.3522 179.933 72.9537 180.466C72.5553 180.993 71.8961 181.529 70.9762 182.074L74.5533 185.511C74.8815 185.147 75.1422 184.723 75.3356 184.236C75.5348 183.744 75.7018 183.208 75.8365 182.628H77.3131C76.9147 184.304 76.3141 185.575 75.5114 186.442L78.1393 189H76.1266L74.5006 187.436C73.8092 188.057 73.1061 188.502 72.3912 188.771C71.6764 189.041 70.8795 189.176 70.0006 189.176C68.7408 189.176 67.7623 188.865 67.0651 188.244C66.3737 187.623 66.028 186.765 66.028 185.669ZM88.8883 189.176C88.2614 189.176 87.6871 189.062 87.1656 188.833C86.65 188.599 86.2164 188.241 85.8649 187.761H85.7594C85.8297 188.323 85.8649 188.856 85.8649 189.36V193.324H84.4059V179.367H85.5924L85.7946 180.686H85.8649C86.2399 180.158 86.6764 179.777 87.1744 179.543C87.6725 179.309 88.2438 179.191 88.8883 179.191C90.1656 179.191 91.15 179.628 91.8414 180.501C92.5387 181.374 92.8873 182.599 92.8873 184.175C92.8873 185.757 92.5328 186.987 91.8239 187.866C91.1207 188.739 90.1422 189.176 88.8883 189.176ZM88.6774 180.431C87.693 180.431 86.9811 180.703 86.5416 181.248C86.1022 181.793 85.8766 182.66 85.8649 183.85V184.175C85.8649 185.528 86.0905 186.498 86.5416 187.084C86.9928 187.664 87.7164 187.954 88.7125 187.954C89.5446 187.954 90.1949 187.617 90.6637 186.943C91.1383 186.27 91.3756 185.341 91.3756 184.157C91.3756 182.956 91.1383 182.036 90.6637 181.397C90.1949 180.753 89.5328 180.431 88.6774 180.431ZM103.759 184.175C103.759 185.745 103.364 186.973 102.573 187.857C101.782 188.736 100.689 189.176 99.2946 189.176C98.4332 189.176 97.6686 188.974 97.0006 188.569C96.3326 188.165 95.817 187.585 95.4537 186.829C95.0905 186.073 94.9088 185.188 94.9088 184.175C94.9088 182.604 95.3014 181.383 96.0865 180.51C96.8717 179.631 97.9615 179.191 99.3561 179.191C100.704 179.191 101.773 179.64 102.564 180.536C103.361 181.433 103.759 182.646 103.759 184.175ZM96.4205 184.175C96.4205 185.405 96.6666 186.343 97.1588 186.987C97.651 187.632 98.3746 187.954 99.3297 187.954C100.285 187.954 101.008 187.635 101.501 186.996C101.999 186.352 102.248 185.411 102.248 184.175C102.248 182.95 101.999 182.021 101.501 181.389C101.008 180.75 100.279 180.431 99.3121 180.431C98.3571 180.431 97.6364 180.744 97.15 181.371C96.6637 181.998 96.4205 182.933 96.4205 184.175ZM107.785 189H106.326V175.324H107.785V189ZM112.338 189H110.879V179.367H112.338V189ZM110.755 176.757C110.755 176.423 110.838 176.18 111.002 176.027C111.166 175.869 111.371 175.79 111.617 175.79C111.851 175.79 112.053 175.869 112.223 176.027C112.393 176.186 112.478 176.429 112.478 176.757C112.478 177.085 112.393 177.331 112.223 177.495C112.053 177.653 111.851 177.732 111.617 177.732C111.371 177.732 111.166 177.653 111.002 177.495C110.838 177.331 110.755 177.085 110.755 176.757ZM119.281 189.176C117.886 189.176 116.805 188.748 116.038 187.893C115.276 187.031 114.895 185.815 114.895 184.245C114.895 182.634 115.282 181.389 116.055 180.51C116.835 179.631 117.942 179.191 119.378 179.191C119.84 179.191 120.303 179.241 120.766 179.341C121.229 179.44 121.592 179.558 121.856 179.692L121.408 180.932C121.086 180.803 120.734 180.697 120.353 180.615C119.972 180.527 119.635 180.483 119.342 180.483C117.385 180.483 116.407 181.731 116.407 184.228C116.407 185.411 116.644 186.319 117.119 186.952C117.599 187.585 118.308 187.901 119.246 187.901C120.048 187.901 120.872 187.729 121.715 187.383V188.675C121.071 189.009 120.259 189.176 119.281 189.176ZM122.48 179.367H124.045L126.154 184.86C126.617 186.114 126.904 187.02 127.015 187.576H127.086C127.162 187.277 127.32 186.768 127.56 186.047C127.806 185.32 128.603 183.094 129.951 179.367H131.515L127.376 190.336C126.965 191.42 126.485 192.188 125.934 192.639C125.389 193.096 124.718 193.324 123.922 193.324C123.476 193.324 123.037 193.274 122.603 193.175V192.006C122.925 192.076 123.286 192.111 123.684 192.111C124.686 192.111 125.401 191.549 125.829 190.424L126.365 189.053L122.48 179.367ZM8.19592 217.302C6.78381 217.302 5.6676 217.773 4.84729 218.717C4.03284 219.654 3.62561 220.94 3.62561 222.575C3.62561 224.257 4.01819 225.558 4.80334 226.478C5.59436 227.392 6.71936 227.849 8.17834 227.849C9.07483 227.849 10.0973 227.688 11.2457 227.365V228.675C10.3551 229.009 9.25647 229.176 7.94983 229.176C6.05725 229.176 4.59534 228.602 3.56409 227.453C2.5387 226.305 2.026 224.673 2.026 222.558C2.026 221.233 2.27209 220.073 2.76428 219.077C3.26233 218.081 3.97717 217.313 4.90881 216.774C5.84631 216.235 6.94788 215.966 8.2135 215.966C9.56116 215.966 10.7389 216.212 11.7467 216.704L11.1139 217.987C10.1412 217.53 9.16858 217.302 8.19592 217.302ZM22.1442 224.175C22.1442 225.745 21.7487 226.973 20.9576 227.857C20.1666 228.736 19.0739 229.176 17.6793 229.176C16.818 229.176 16.0533 228.974 15.3854 228.569C14.7174 228.165 14.2018 227.585 13.8385 226.829C13.4752 226.073 13.2936 225.188 13.2936 224.175C13.2936 222.604 13.6862 221.383 14.4713 220.51C15.2565 219.631 16.3463 219.191 17.7408 219.191C19.0885 219.191 20.1578 219.64 20.9489 220.536C21.7457 221.433 22.1442 222.646 22.1442 224.175ZM14.8053 224.175C14.8053 225.405 15.0514 226.343 15.5436 226.987C16.0358 227.632 16.7594 227.954 17.7145 227.954C18.6696 227.954 19.3932 227.635 19.8854 226.996C20.3834 226.352 20.6324 225.411 20.6324 224.175C20.6324 222.95 20.3834 222.021 19.8854 221.389C19.3932 220.75 18.6637 220.431 17.6969 220.431C16.7418 220.431 16.0211 220.744 15.5348 221.371C15.0485 221.998 14.8053 222.933 14.8053 224.175ZM31.3024 229V222.769C31.3024 221.983 31.1237 221.397 30.7662 221.011C30.4088 220.624 29.8492 220.431 29.0875 220.431C28.0797 220.431 27.3414 220.703 26.8727 221.248C26.4039 221.793 26.1696 222.692 26.1696 223.946V229H24.7106V219.367H25.8971L26.1344 220.686H26.2047C26.5035 220.211 26.9225 219.845 27.4615 219.587C28.0006 219.323 28.6012 219.191 29.2633 219.191C30.4235 219.191 31.2965 219.473 31.8824 220.035C32.4684 220.592 32.7614 221.485 32.7614 222.716V229H31.3024ZM38.8785 227.972C39.1364 227.972 39.3854 227.954 39.6256 227.919C39.8658 227.878 40.0563 227.837 40.1969 227.796V228.912C40.0387 228.988 39.8043 229.05 39.4938 229.097C39.1891 229.149 38.9137 229.176 38.6676 229.176C36.8043 229.176 35.8727 228.194 35.8727 226.231V220.501H34.4928V219.798L35.8727 219.191L36.4879 217.135H37.3317V219.367H40.1266V220.501H37.3317V226.17C37.3317 226.75 37.4694 227.195 37.7448 227.506C38.0201 227.816 38.3981 227.972 38.8785 227.972ZM48.0543 229L47.7643 227.629H47.694C47.2135 228.232 46.733 228.643 46.2526 228.859C45.778 229.07 45.1832 229.176 44.4684 229.176C43.5133 229.176 42.7633 228.93 42.2184 228.438C41.6793 227.945 41.4098 227.245 41.4098 226.337C41.4098 224.392 42.9655 223.372 46.0768 223.278L47.7115 223.226V222.628C47.7115 221.872 47.5475 221.315 47.2194 220.958C46.8971 220.595 46.3785 220.413 45.6637 220.413C44.861 220.413 43.9528 220.659 42.9391 221.151L42.4908 220.035C42.9655 219.777 43.484 219.575 44.0465 219.429C44.6149 219.282 45.1832 219.209 45.7516 219.209C46.9 219.209 47.7496 219.464 48.3004 219.974C48.8571 220.483 49.1354 221.301 49.1354 222.426V229H48.0543ZM44.7584 227.972C45.6666 227.972 46.3785 227.723 46.8942 227.225C47.4156 226.727 47.6764 226.029 47.6764 225.133V224.263L46.2174 224.324C45.0573 224.365 44.2194 224.547 43.7037 224.869C43.194 225.186 42.9391 225.681 42.9391 226.354C42.9391 226.882 43.0973 227.283 43.4137 227.559C43.736 227.834 44.1842 227.972 44.7584 227.972ZM55.9996 229.176C54.6051 229.176 53.524 228.748 52.7565 227.893C51.9948 227.031 51.6139 225.815 51.6139 224.245C51.6139 222.634 52.0006 221.389 52.774 220.51C53.5533 219.631 54.6608 219.191 56.0963 219.191C56.5592 219.191 57.0221 219.241 57.485 219.341C57.9479 219.44 58.3112 219.558 58.5748 219.692L58.1266 220.932C57.8043 220.803 57.4528 220.697 57.0719 220.615C56.691 220.527 56.3541 220.483 56.0612 220.483C54.1041 220.483 53.1256 221.731 53.1256 224.228C53.1256 225.411 53.3629 226.319 53.8375 226.952C54.318 227.585 55.027 227.901 55.9645 227.901C56.7672 227.901 57.5905 227.729 58.4342 227.383V228.675C57.7897 229.009 56.9781 229.176 55.9996 229.176ZM63.8395 227.972C64.0973 227.972 64.3463 227.954 64.5865 227.919C64.8268 227.878 65.0172 227.837 65.1578 227.796V228.912C64.9996 228.988 64.7653 229.05 64.4547 229.097C64.15 229.149 63.8746 229.176 63.6285 229.176C61.7653 229.176 60.8336 228.194 60.8336 226.231V220.501H59.4537V219.798L60.8336 219.191L61.4489 217.135H62.2926V219.367H65.0875V220.501H62.2926V226.17C62.2926 226.75 62.4303 227.195 62.7057 227.506C62.9811 227.816 63.359 227.972 63.8395 227.972ZM81.6901 216.15V224.465C81.6901 225.93 81.2477 227.081 80.3629 227.919C79.4781 228.757 78.2623 229.176 76.7155 229.176C75.1686 229.176 73.9703 228.754 73.1207 227.91C72.277 227.066 71.8551 225.906 71.8551 224.43V216.15H73.3492V224.535C73.3492 225.607 73.6422 226.431 74.2281 227.005C74.8141 227.579 75.6754 227.866 76.8121 227.866C77.8961 227.866 78.7311 227.579 79.317 227.005C79.903 226.425 80.1959 225.596 80.1959 224.518V216.15H81.6901ZM92.3512 225.581C92.3512 226.712 91.941 227.594 91.1207 228.227C90.3004 228.859 89.1871 229.176 87.7809 229.176C86.2574 229.176 85.0856 228.979 84.2653 228.587V227.146C84.7926 227.368 85.3668 227.544 85.9879 227.673C86.609 227.802 87.2242 227.866 87.8336 227.866C88.8297 227.866 89.5797 227.679 90.0836 227.304C90.5875 226.923 90.8395 226.396 90.8395 225.722C90.8395 225.276 90.7487 224.913 90.567 224.632C90.3912 224.345 90.0924 224.081 89.6705 223.841C89.2545 223.601 88.6188 223.328 87.7633 223.023C86.568 222.596 85.7125 222.089 85.1969 221.503C84.6871 220.917 84.4323 220.152 84.4323 219.209C84.4323 218.219 84.8043 217.431 85.5485 216.845C86.2926 216.259 87.277 215.966 88.5016 215.966C89.7789 215.966 90.9537 216.2 92.026 216.669L91.5602 217.97C90.4996 217.524 89.4684 217.302 88.4664 217.302C87.6754 217.302 87.0573 217.472 86.6119 217.812C86.1666 218.151 85.944 218.623 85.944 219.227C85.944 219.672 86.026 220.038 86.1901 220.325C86.3541 220.606 86.6295 220.867 87.0162 221.107C87.4088 221.342 88.0065 221.603 88.8092 221.89C90.1569 222.37 91.0826 222.886 91.5865 223.437C92.0963 223.987 92.3512 224.702 92.3512 225.581Z" fill="#646464"/>
</svg>
